<svg width="184" height="236" viewBox="0 0 184 236" fill="none" xmlns="http://www.w3.org/2000/svg">
<g opacity="0.5">
<path d="M106.977 70.5421L105.805 77.1871L105.78 77.3334L105.838 77.4701L110.552 88.5212L86.6208 74.0035C87.2725 73.8785 88.15 73.7191 89.1794 73.5371C91.3035 73.1615 94.066 72.6909 96.8063 72.2302C99.5462 71.7695 102.263 71.319 104.294 70.9836C105.31 70.8159 106.155 70.677 106.745 70.5801L106.977 70.5421Z" stroke="#E65251"/>
<path d="M69.0323 137.823V145.324L44.7915 131.26L56.7891 129.45L69.0323 137.823Z" stroke="#E65251"/>
<path d="M70.0323 145.305V137.846L85.4311 128.85L95.1373 130.102L70.0323 145.305Z" stroke="#E65251"/>
<path d="M70.7596 120.01L56.7363 128.446L45.7219 130.108L70.7596 115.027V120.01Z" stroke="#E65251"/>
<path d="M94.382 128.997L85.4882 127.849L71.7596 120.003V115.038L94.382 128.997Z" stroke="#E65251"/>
<path d="M153.32 31.2718L130.488 17.2839L155.502 16.3948L153.32 31.2718Z" stroke="#E65251"/>
<path d="M154.342 31.1937L156.512 16.4021L179.665 17.8742L154.342 31.1937Z" stroke="#E65251"/>
<path d="M156.524 15.4008L154.55 0.999219L179.558 16.8655L156.524 15.4008Z" stroke="#E65251"/>
<path d="M174.276 66.1229V65.9864L174.207 65.8689L154.402 32.2921L180.983 18.3107L181.896 90.3013L174.276 84.0168V66.1229Z" stroke="#E65251"/>
<path d="M129.312 17.7357L142.346 25.7192L129.312 38.9322V17.7357Z" stroke="#E65251"/>
<path d="M153.205 32.3739V68.1293L141.712 43.681L141.617 43.4791L141.404 43.4148L129.75 39.9113L143.221 26.2557L153.205 32.3739Z" stroke="#E65251"/>
<path d="M139.079 56.3299L138.728 56.0096L138.39 56.3434L129.312 65.3123V40.8235L140.902 44.3082L152.178 68.2968L139.079 56.3299Z" stroke="#E65251"/>
<path d="M5.2169 196.157C4.73901 196.01 4.73899 196.01 4.73896 196.01L4.7388 196.01L4.73816 196.012L4.7356 196.021L4.72544 196.054L4.68574 196.182C4.65093 196.295 4.59981 196.461 4.53463 196.671C4.40427 197.092 4.21765 197.693 3.99269 198.412C3.54272 199.851 2.93954 201.765 2.32637 203.665C1.71285 205.566 1.09068 207.449 0.602373 208.828C0.582872 208.883 0.563605 208.938 0.544579 208.991C0.526202 207.925 0.514266 206.509 0.507438 204.85C0.492244 201.16 0.502371 196.279 0.522641 191.41C0.542908 186.541 0.573311 181.686 0.598647 178.048C0.611315 176.229 0.622716 174.714 0.63095 173.654L0.637222 172.862L25.5555 187.752L5.03649 195.69L4.81032 195.778L4.73901 196.01L5.2169 196.157Z" stroke="#E65251"/>
<path d="M13.4416 227.169L0.506995 218.766L0.64272 211.243L5.17351 197.845L13.4416 227.169Z" stroke="#E65251"/>
<path d="M10.8537 214.311L5.95026 196.915L5.96827 196.921C6.54276 197.105 7.36315 197.367 8.34663 197.683C10.3137 198.315 12.9328 199.161 15.5416 200.018C18.151 200.874 20.7475 201.74 22.6704 202.411C23.6329 202.747 24.4211 203.032 24.9564 203.242C24.9796 203.252 25.0023 203.261 25.0244 203.269C24.9771 203.307 24.9272 203.346 24.8749 203.388C24.434 203.737 23.8209 204.219 23.0934 204.788C21.6387 205.927 19.7287 207.415 17.8284 208.893C15.9282 210.371 14.0379 211.84 12.6227 212.938C11.9151 213.487 11.3263 213.944 10.9143 214.264L10.8537 214.311Z" stroke="#E65251"/>
<path d="M6.68359 196.125L26.1546 188.592L25.4707 202.486L6.68359 196.125Z" stroke="#E65251"/>
<path d="M54.5723 185.012L28.9529 187.157L54.5723 172.837V185.012Z" stroke="#E65251"/>
<path d="M26.7744 216.046L26.4378 203.177L27.1697 188.31L48.394 186.532L26.7744 216.046Z" stroke="#E65251"/>
<path d="M49.7146 186.421L54.279 186.04L44.2538 209.014L44.1073 209.349L44.3834 209.59L54.8717 218.742L27.7931 234.802L26.8222 217.673L49.7146 186.421Z" stroke="#E65251"/>
<path d="M55.1991 217.701L45.3168 209.078L54.6168 187.766L55.1991 217.701Z" stroke="#E65251"/>
<path d="M14.7087 227.978L11.1463 215.348L25.4799 204.163L26.8022 234.776L14.7087 227.978Z" stroke="#E65251"/>
<path d="M15.1808 180.386L1.10635 171.977L17.6401 161.742L15.1808 180.386Z" stroke="#E65251"/>
<path d="M18.7378 161.068L27.8969 155.65L29.6858 172.039L29.7062 172.226L29.8449 172.354L38.0426 179.873L16.7086 176.466L18.7378 161.068Z" stroke="#E65251"/>
<path d="M30.6595 171.744L28.9203 155.81L54.1002 171.956L39.6782 180.016L30.6595 171.744Z" stroke="#E65251"/>
<path d="M16.116 180.944L16.5776 177.458L38.105 180.896L26.7002 187.271L16.116 180.944Z" stroke="#E65251"/>
<path d="M48.483 152.165L54.1956 170.829L43.3537 163.879L43.7971 131.839L68.2609 146.032L48.8248 151.538L48.3335 151.677L48.483 152.165Z" stroke="#E65251"/>
<path d="M55.5723 171.985V171.91L55.5504 171.839L50.0001 153.705L68.073 171L55.5723 184.216V171.985Z" stroke="#E65251"/>
<path d="M49.9381 152.262L69.0117 146.859L68.3123 169.845L49.9381 152.262Z" stroke="#E65251"/>
<path d="M55.5723 202.886V185.671L68.3006 172.215L69.0157 210.81L55.5723 202.886Z" stroke="#E65251"/>
<path d="M70.9179 145.937L96.1124 130.681L95.8093 170.115L83.5126 148.427L83.3974 148.224L83.1677 148.182L70.9179 145.937Z" stroke="#E65251"/>
<path d="M87.8778 158.156L95.8004 172.127L96.7557 194.589L70.0161 210.817L69.2828 171.239L87.8778 158.156Z" stroke="#E65251"/>
<path d="M87.3823 157.282L69.3081 169.999L70.0144 146.789L82.7577 149.123L87.3823 157.282Z" stroke="#E65251"/>
<path d="M87.9085 72.8235L111.725 58.8262L107.237 69.4884L87.9085 72.8235Z" stroke="#E65251"/>
<path d="M129.637 74.0841L129.806 74.3083L130.086 74.2804L137.586 73.5318L111.853 89.0303L106.813 77.2145L108.017 70.3998L125.704 68.875L129.637 74.0841Z" stroke="#E65251"/>
<path d="M126.335 68.0518L126.169 67.8312L125.893 67.8549L108.374 69.3654L113.015 58.339L129.429 67.4217L138.155 72.47L130.266 73.2574L126.335 68.0518Z" stroke="#E65251"/>
<path d="M155.514 15.3938L130.546 16.2812L153.522 0.861611L155.514 15.3938Z" stroke="#E65251"/>
<path d="M124.276 82.7144L139.247 73.6983V125.396L124.276 82.7144Z" stroke="#E65251"/>
<path d="M96.6696 81.2712L84.5378 118.519L85.7652 74.6563L96.6696 81.2712Z" stroke="#E65251"/>
<path d="M97.5478 81.804L111.118 90.0366V115.753L93.6208 110.963L92.8639 110.756L92.9959 111.529L95.9401 128.783L84.5383 121.747L97.5478 81.804Z" stroke="#E65251"/>
<path d="M111.118 161.513L97.1016 129.645L94.1136 112.135L111.118 116.79V161.513Z" stroke="#E65251"/>
<path d="M96.7949 171.976L97.1012 132.127L111.118 163.997V186.525L97.1063 179.297L96.7949 171.976Z" stroke="#E65251"/>
<path d="M112.118 146.044L138.912 170.89L112.118 186.476V146.044Z" stroke="#E65251"/>
<path d="M112.118 116.408V90.0376L123.401 83.2413L131.572 106.534L112.118 142.903V116.408Z" stroke="#E65251"/>
<path d="M112.241 144.794L132.021 107.815L139.248 128.417V169.837L112.241 144.794Z" stroke="#E65251"/>
<path d="M140.248 72.8135V72.5246L139.997 72.3803L129.63 66.4037L138.755 57.3886L153.106 70.4989L140.248 100.853V72.8135Z" stroke="#E65251"/>
<path d="M140.272 103.358L153.205 72.8304V156.819L140.272 103.358Z" stroke="#E65251"/>
<path d="M152.964 160.078L140.248 153.654V107.508L152.964 160.078Z" stroke="#E65251"/>
<path d="M154.205 134.146L182.299 146.225L154.205 160.205V134.146Z" stroke="#E65251"/>
<mask id="path-49-inside-1_534_2161" fill="white">
<path d="M153.705 32.0939L154.094 32.7535L173.776 66.1229V84.2525L153.705 133.386V70.3683"/>
</mask>
<path d="M154.094 32.7535L154.956 32.2455L154.955 32.2447L154.094 32.7535ZM173.776 66.1229H174.776V65.85L174.638 65.6149L173.776 66.1229ZM173.776 84.2525L174.702 84.6307L174.776 84.4489V84.2525H173.776ZM153.705 133.386H152.705L154.63 133.765L153.705 133.386ZM152.844 32.6028L153.234 33.2624L154.955 32.2447L154.565 31.5851L152.844 32.6028ZM153.233 33.2616L172.915 66.6309L174.638 65.6149L154.956 32.2455L153.233 33.2616ZM172.776 66.1229V84.2525H174.776V66.1229H172.776ZM172.851 83.8743L152.779 133.008L154.63 133.765L174.702 84.6307L172.851 83.8743ZM154.705 133.386V70.3683H152.705V133.386H154.705Z" fill="#E65251" mask="url(#path-49-inside-1_534_2161)"/>
<path d="M154.353 133.121L173.982 85.0704L181.914 91.6126L182.973 145.426L154.353 133.121Z" stroke="#E65251"/>
<path d="M57.8342 128.953L71.2662 120.873L84.3267 128.337L69.5534 136.968L57.8342 128.953Z" stroke="#E65251"/>
</g>
</svg>
