<svg width="257" height="222" viewBox="0 0 257 222" fill="none" xmlns="http://www.w3.org/2000/svg">
<g opacity="0.5">
<path d="M177.42 212.003L170.268 218.102L145.224 181.049H152.881L177.42 212.003Z" stroke="#E65251"/>
<path d="M178.395 211.624L154.202 181.104L172.964 182.059L195.069 215.525L178.395 211.624Z" stroke="#E65251"/>
<path d="M195.051 216.548L188.867 221.406L171.311 218.526L178.243 212.615L195.051 216.548Z" stroke="#E65251"/>
<path d="M153.149 180.049L153.136 180.049H153.123H144.3L132.762 179.214L149.362 152.802L156.526 158.599L156.627 158.681L156.756 158.703L195.267 165.31L182.573 181.449L173.268 181.073L173.263 181.073L153.149 180.049Z" stroke="#E65251"/>
<path d="M125.163 140.454L148.523 152.258L131.841 178.8L111.553 154.225L125.163 140.454Z" stroke="#E65251"/>
<path d="M149.553 151.67L149.512 151.637L149.464 151.613L128.256 140.897L163.865 146.983L193.486 163.99L157.053 157.74L149.553 151.67Z" stroke="#E65251"/>
<path d="M164.805 146.369L196.321 108.842L212.116 115.734L210.771 167.916L196.365 164.49L164.805 146.369Z" stroke="#E65251"/>
<path d="M213.106 116.15L251.155 131.866C251.147 131.878 251.139 131.89 251.13 131.902C250.889 132.25 250.542 132.75 250.119 133.353C249.273 134.562 248.127 136.188 246.922 137.862C245.716 139.536 244.455 141.256 243.378 142.65C242.84 143.348 242.351 143.961 241.94 144.446C241.521 144.939 241.205 145.273 241.009 145.433C240.079 146.194 232.575 151.865 225.284 157.36C221.643 160.104 218.06 162.801 215.388 164.811C214.052 165.816 212.943 166.65 212.169 167.232L211.785 167.521L213.106 116.15Z" stroke="#E65251"/>
<path d="M238.508 154.869L215.565 165.915L240.49 147.082L238.508 154.869Z" stroke="#E65251"/>
<path d="M56.308 146.062L56.4295 145.838L56.3191 145.608L41.9128 115.573L73.5478 134.311L71.8104 166.261L50.416 156.942L56.308 146.062Z" stroke="#E65251"/>
<path d="M55.3072 145.81L49.521 156.495L41.1828 151.731L38.4348 140.618L41.0588 116.104L55.3072 145.81Z" stroke="#E65251"/>
<path d="M84.7581 174.326C85.7528 178.04 86.7747 181.842 87.2142 183.428C87.1656 183.415 87.1143 183.401 87.0603 183.386C86.4254 183.211 85.4957 182.917 84.362 182.539C82.0976 181.784 79.0512 180.705 75.9927 179.6C72.9352 178.495 69.8693 177.366 67.5676 176.514C66.4168 176.087 65.4572 175.73 64.7853 175.479C64.4493 175.354 64.1853 175.255 64.0053 175.188L63.9592 175.171L59.9556 162.194L72.0674 167.469L72.2101 167.531L72.3628 167.502L82.4103 165.54L82.4998 165.875C82.6335 166.377 82.8249 167.094 83.0552 167.957C83.516 169.683 84.1331 171.992 84.7581 174.326Z" stroke="#E65251"/>
<path d="M82.6615 164.472L72.8047 166.394L74.5383 134.513L110.169 132.774L101.098 159.337L82.6615 164.472Z" stroke="#E65251"/>
<path d="M124.729 139.472L124.718 139.482L124.708 139.492L110.574 153.797L102.395 158.63L111.296 132.579L111.741 132.324L113.461 131.34C114.943 130.492 117.062 129.281 119.606 127.828C124.695 124.921 131.489 121.045 138.307 117.169C145.124 113.293 151.965 109.418 157.15 106.512C159.742 105.058 161.919 103.848 163.47 103.002C164.247 102.578 164.864 102.247 165.298 102.023C165.516 101.91 165.683 101.827 165.799 101.772C165.833 101.756 165.861 101.744 165.883 101.734C165.891 101.735 165.9 101.735 165.91 101.736C165.97 101.74 166.05 101.746 166.15 101.755C166.349 101.771 166.62 101.796 166.953 101.827C167.62 101.89 168.532 101.98 169.605 102.088C171.752 102.305 174.542 102.593 177.309 102.881C180.076 103.169 182.818 103.458 184.87 103.674C185.343 103.724 185.779 103.77 186.171 103.811L149.063 117.678L148.975 117.711L148.904 117.774L124.729 139.472Z" stroke="#E65251"/>
<path d="M101.62 160.23L101.683 160.212L101.74 160.179L110.767 154.842L126.629 174.057L88.2563 183.406L83.3882 165.308L101.62 160.23Z" stroke="#E65251"/>
<path d="M40.4038 113.94L40.2712 114.067L40.2517 114.249L37.506 139.9L10.2745 127.02L59.0165 67.508L66.9836 86.4337L49.4449 105.321L40.4038 113.94Z" stroke="#E65251"/>
<path d="M15.0911 96.8735L24.0727 72.4647L57.9414 67.2423L10.2873 125.426L15.0911 96.8735Z" stroke="#E65251"/>
<path d="M82.867 85.8421H91.4669L78.8359 98.3129L78.7164 98.4308L78.6923 98.597L73.6757 133.224L41.6285 114.242L72.5197 89.7111L82.867 85.8421Z" stroke="#E65251"/>
<path d="M72.0955 88.8022L72.0215 88.8298L71.9596 88.8789L46.3822 109.19L67.8492 86.9676L96.7847 76.4136L96.8559 76.3877L96.9162 76.3418L120.36 58.5038H125.935L105.725 72.6297L105.697 72.6491L105.673 72.6721L92.4895 84.8421H82.7766H82.6862L82.6015 84.8738L72.0955 88.8022Z" stroke="#E65251"/>
<path d="M79.6578 98.9066L93.0303 85.7038L106.326 73.4299L126.683 59.2007L122.459 74.909L110.474 98.0239L74.7686 132.655L79.6578 98.9066Z" stroke="#E65251"/>
<path d="M75.3631 133.471L111.144 98.7669L123.49 94.836L110.52 131.755L75.3631 133.471Z" stroke="#E65251"/>
<path d="M111.793 131.149L124.71 94.3809L177.254 60.0179L165.385 100.895L111.793 131.149Z" stroke="#E65251"/>
<path d="M149.502 118.582L188.279 104.09L195.418 108.362L163.839 145.964L126.167 139.525L149.502 118.582Z" stroke="#E65251"/>
<path d="M188.586 103.108L188.491 103.051L188.38 103.04L166.456 100.794L169.705 89.6083L206.269 85.3355L248.715 95.9469L251.359 130.869L212.825 114.952L212.82 114.95L196.408 107.789L188.586 103.108Z" stroke="#E65251"/>
<path d="M255.832 104.62L252.102 127.428L249.807 97.1199L255.832 104.62Z" stroke="#E65251"/>
<path d="M237.688 54.4568L245.887 52.7858L255.489 102.597L249.638 95.3136L237.688 54.4568Z" stroke="#E65251"/>
<path d="M248.462 94.8528L207.28 84.5574L236.812 55.0255L248.462 94.8528Z" stroke="#E65251"/>
<path d="M237.216 53.5323L203.718 20.5418L245.099 51.9257L237.216 53.5323Z" stroke="#E65251"/>
<path d="M207.888 53.5754L198.764 17.0662L235.835 53.5754H207.888Z" stroke="#E65251"/>
<path d="M235.848 54.5754L206.851 83.5719L207.978 54.5754H235.848Z" stroke="#E65251"/>
<path d="M170.008 88.5662L178.503 59.3029L206.974 54.6672L205.819 84.3813L170.008 88.5662Z" stroke="#E65251"/>
<path d="M14.1365 96.5719L14.1204 96.6157L14.1127 96.6616L9.49245 124.124L0.578465 68.8719L19.0021 67.0728L23.1371 72.1114L14.1365 96.5719Z" stroke="#E65251"/>
<path d="M1.37235 67.7896L42.7965 27.5336L18.9244 66.0757L1.37235 67.7896Z" stroke="#E65251"/>
<path d="M59.1049 32.278L85.736 34.9743L64.2034 40.2632L63.8948 40.339L63.8324 40.6506L58.7336 66.1084L23.9107 71.4779L19.8325 66.5085L45.5357 25.0099L58.9181 32.2207L59.0058 32.268L59.1049 32.278Z" stroke="#E65251"/>
<path d="M119.906 57.5388L59.7841 65.9564L64.7506 41.1585L88.7885 35.2543L88.8016 35.2511L88.8144 35.2472L148.002 17.2997L119.906 57.5388Z" stroke="#E65251"/>
<path d="M67.8458 85.9045L59.8684 66.9543L118.366 58.7642L96.371 75.5001L67.8458 85.9045Z" stroke="#E65251"/>
<path d="M59.1783 31.2249L46.6845 24.4929L125.05 2.44561L59.1783 31.2249Z" stroke="#E65251"/>
<path d="M61.1032 31.4752L131.793 0.590686L148.269 16.1737L88.62 34.2612L61.1032 31.4752Z" stroke="#E65251"/>
<path d="M149.437 15.9021L137.37 4.49012C138.281 4.5882 139.545 4.70652 141.04 4.83731C144.085 5.10352 148.105 5.42243 152.111 5.72925C156.116 6.03611 160.11 6.33099 163.101 6.54915C164.597 6.65823 165.842 6.74814 166.714 6.81077L167.725 6.88327L167.992 6.90228L168.027 6.90478L194.694 15.0267L149.437 15.9021Z" stroke="#E65251"/>
<path d="M156.473 51.7169L156.351 51.6799L156.227 51.7049L127.473 57.5038H121.15L149.233 17.2835L176.898 57.9663L156.473 51.7169Z" stroke="#E65251"/>
<path d="M150.171 16.8843L197.459 15.9697L206.88 53.6692L178.345 58.3154L150.171 16.8843Z" stroke="#E65251"/>
<path d="M124.078 93.5995L111.881 97.4829L123.314 75.4326L156.41 52.7436L176.944 59.0259L124.078 93.5995Z" stroke="#E65251"/>
<path d="M123.762 73.9127L127.925 58.4327L154.019 53.1703L123.762 73.9127Z" stroke="#E65251"/>
</g>
</svg>
