<svg width="205" height="285" viewBox="0 0 205 285" fill="none" xmlns="http://www.w3.org/2000/svg">
<g opacity="0.5">
<path d="M75.263 88.717L86.6669 40.9282L91.7 39.8692L91.0705 58.4773L79.5522 89.9295L75.263 88.717Z" stroke="#E65251"/>
<path d="M103.904 92.2204C103.945 93.4287 103.982 94.5141 104.013 95.4412C103.953 95.2657 103.891 95.0842 103.827 94.8971C103.67 94.4416 103.502 93.9524 103.324 93.4335C102.26 90.3276 100.838 86.1497 99.3959 81.7199L99.3958 81.7199C97.6137 76.2482 95.7775 70.4238 94.3867 65.9666C93.6913 63.7382 93.1074 61.8518 92.6973 60.5226C92.4923 59.858 92.3307 59.3327 92.2204 58.9736L92.0944 58.563L92.0755 58.5015L92.6752 40.7476L102.631 54.7227L102.643 55.0766L102.691 56.5014L102.864 61.5822L103.386 76.9584C103.576 82.5359 103.764 88.0944 103.904 92.2204Z" stroke="#E65251"/>
<path d="M103.25 53.8735L93.2964 39.8965L119.039 43.3326L103.25 53.8735Z" stroke="#E65251"/>
<path d="M103.633 54.82L119.569 44.181L105.018 95.6531L103.633 54.82Z" stroke="#E65251"/>
<path d="M105.214 98.6385L120.621 44.1364L131.872 59.5399L120.795 107.774L105.214 98.6385Z" stroke="#E65251"/>
<path d="M137.874 95.8193L121.915 107.364L132.752 60.1757L151.267 69.9695L137.874 95.8193Z" stroke="#E65251"/>
<path d="M139.527 94.8023L152.009 70.7115L160.286 82.1966L139.527 94.8023Z" stroke="#E65251"/>
<path d="M80.5082 90.2267L91.5386 60.1069L103.845 98.0836L80.5082 90.2267Z" stroke="#E65251"/>
<path d="M159.043 84.121L126.874 126.848L121.707 108.749L138.54 96.5717L159.043 84.121Z" stroke="#E65251"/>
<path d="M101.942 122.579L115.324 105.722L120.704 108.879L125.964 127.304L101.942 122.579Z" stroke="#E65251"/>
<path d="M145.934 103.643L146.087 103.278L166.761 125.155C166.647 125.166 166.524 125.178 166.392 125.19C165.508 125.273 164.245 125.391 162.73 125.531C159.698 125.81 155.656 126.177 151.614 126.524C147.57 126.871 143.529 127.199 140.499 127.402C138.982 127.503 137.724 127.573 136.847 127.599C136.557 127.607 136.313 127.611 136.118 127.609C136.185 127.424 136.27 127.197 136.371 126.93C136.654 126.191 137.06 125.166 137.549 123.95C138.528 121.518 139.836 118.332 141.145 115.163C142.454 111.995 143.764 108.845 144.747 106.488C145.238 105.309 145.648 104.329 145.934 103.643ZM135.649 127.584C135.649 127.584 135.65 127.584 135.652 127.585L135.649 127.584ZM135.958 128.087C135.957 128.095 135.956 128.097 135.958 128.089L135.958 128.087Z" stroke="#E65251"/>
<path d="M102.4 123.688L126.572 128.443L126.88 128.503L127.068 128.253L144.006 105.752L135.055 127.716L117.53 140.709L102.4 123.688Z" stroke="#E65251"/>
<path d="M137.305 128.395L167.72 126.066L176.193 130.651L146.626 133.056L137.305 128.395Z" stroke="#E65251"/>
<path d="M145.886 133.804L136.381 156.587L118.268 141.407L135.517 128.618L145.886 133.804Z" stroke="#E65251"/>
<path d="M137.387 156.771L146.483 134.971L153.127 154.257L137.387 156.771Z" stroke="#E65251"/>
<path d="M153.364 155.232L155.956 175.168L137.657 157.741L153.364 155.232Z" stroke="#E65251"/>
<path d="M156.12 176.705L155.425 187.674L138.932 160.336L156.12 176.705Z" stroke="#E65251"/>
<path d="M100.545 39.8578L92.7187 38.8106L92.6158 20.3562L108.523 22.6219L100.545 39.8578Z" stroke="#E65251"/>
<path d="M91.6154 20.2947L91.7066 36.6459L85.1641 20.4906L91.6154 20.2947Z" stroke="#E65251"/>
<path d="M91.7018 19.2917L85.4927 19.4802L93.7949 9.02878L91.7018 19.2917Z" stroke="#E65251"/>
<path d="M92.8038 18.8926L95.0583 7.83791L104.922 13.0695L92.8038 18.8926Z" stroke="#E65251"/>
<path d="M93.8139 19.5167L105.745 13.7835L108.512 21.6104L93.8139 19.5167Z" stroke="#E65251"/>
<path d="M84.963 114.957L77.27 101.545L80.2005 91.1782L91.1941 94.878L84.963 114.957Z" stroke="#E65251"/>
<path d="M84.5293 116.21L69.1532 145.16L76.9749 103.04L84.5293 116.21Z" stroke="#E65251"/>
<path d="M60.6277 182.23L68.5414 148.452L84.1381 119.081L76.7391 165.854L76.6608 165.934L76.1234 166.483C75.6601 166.955 74.9976 167.632 74.2009 168.444C72.6074 170.07 70.477 172.242 68.3292 174.427C66.1812 176.613 64.0161 178.812 62.3531 180.493C61.6855 181.167 61.0992 181.758 60.6277 182.23Z" stroke="#E65251"/>
<path d="M60.1901 184.054L76.1984 167.823L71.1858 185.555L71.1651 185.592C71.1326 185.649 71.0846 185.734 71.023 185.842C70.8999 186.057 70.7225 186.365 70.5062 186.734C70.0732 187.472 69.4853 188.45 68.8638 189.418C68.2402 190.389 67.5913 191.334 67.0355 192.014C66.7556 192.355 66.5147 192.611 66.3242 192.767C66.2459 192.831 66.1883 192.869 66.1505 192.888C66.0432 192.85 65.8722 192.778 65.6371 192.667C65.3546 192.534 65.0063 192.359 64.6147 192.155C63.832 191.747 62.8895 191.232 61.9787 190.724C61.0684 190.217 60.1926 189.72 59.5442 189.349C59.2455 189.178 58.9952 189.034 58.8122 188.929L60.1901 184.054ZM66.1134 192.905C66.1134 192.905 66.1144 192.904 66.1163 192.904C66.1143 192.905 66.1133 192.905 66.1134 192.905Z" stroke="#E65251"/>
<path d="M27.7988 226.783L14.9617 249.773L2.01341 241.752L13.489 227.446L27.7988 226.783Z" stroke="#E65251"/>
<path d="M15.8842 250.173L29.0678 226.561L47.3311 210.64L47.2305 211.397C47.0555 212.714 46.8054 214.597 46.5054 216.858C45.9054 221.379 45.1056 227.412 44.3065 233.457C43.5074 239.503 42.7089 245.561 42.1115 250.133C41.8128 252.42 41.5643 254.335 41.3911 255.691C41.3046 256.37 41.2367 256.909 41.1908 257.285C41.1859 257.326 41.1812 257.365 41.1767 257.401C41.0219 257.368 40.8312 257.323 40.6062 257.268C39.8909 257.093 38.8632 256.82 37.6237 256.479C35.1461 255.797 31.8387 254.85 28.5284 253.889C25.2186 252.928 21.908 251.955 19.4247 251.221C18.183 250.855 17.1483 250.548 16.424 250.333L15.8842 250.173ZM41.5743 257.474C41.58 257.474 41.5807 257.474 41.5749 257.474L41.5743 257.474Z" stroke="#E65251"/>
<path d="M48.4046 210.133L60.4423 215.744L42.5459 254.74L48.4046 210.133Z" stroke="#E65251"/>
<path d="M53.6657 232.904L53.8832 257.204L42.406 257.442L53.6657 232.904Z" stroke="#E65251"/>
<path d="M28.4764 225.75L15.5512 226.349L44.66 211.639L28.4764 225.75Z" stroke="#E65251"/>
<path d="M54.6466 230.766L61.521 215.791L69.5804 207.736L79.1932 247.113L77.033 265.662L54.8844 257.346L54.6466 230.766Z" stroke="#E65251"/>
<path d="M88.2452 252.029L91.2458 265.531L78.0189 265.841L80.1135 247.855L88.2452 252.029Z" stroke="#E65251"/>
<path d="M70.3411 206.636L70.339 206.627L70.3366 206.618L66.628 193.493L71.5635 186.717L75.8125 195.51L87.9658 250.762L80.1318 246.741L70.3411 206.636Z" stroke="#E65251"/>
<path d="M62.4647 199.707L47.7505 194.584L58.2078 189.73L65.4218 193.608L62.4647 199.707Z" stroke="#E65251"/>
<path d="M69.2946 206.608L61.7512 214.148L63.2085 200.465L65.9572 194.796L69.2946 206.608Z" stroke="#E65251"/>
<path d="M60.6811 214.752L48.4649 209.058L47.0015 195.382L62.1813 200.667L60.6811 214.752Z" stroke="#E65251"/>
</g>
</svg>
