<svg width="261" height="249" viewBox="0 0 261 249" fill="none" xmlns="http://www.w3.org/2000/svg">
<g opacity="0.5">
<path d="M84.553 162.442L95.558 207.754L53.9165 175.172L84.553 162.442Z" stroke="#E65251"/>
<path d="M100.103 225.087L84.134 240.407L73.6544 220.514L96.0548 209.748L100.103 225.087Z" stroke="#E65251"/>
<path d="M95.4419 208.933L72.7951 219.818L51.5671 225.569L16.9661 175.539H52.7624L95.4419 208.933Z" stroke="#E65251"/>
<path d="M67.0828 244.499L52.2342 226.425L72.7145 220.875L83.254 240.882L67.0828 244.499Z" stroke="#E65251"/>
<path d="M3.9326 145.587C4.18717 145.604 4.49371 145.634 4.83852 145.672C5.67307 145.766 6.70688 145.913 7.71795 146.068C8.72793 146.222 9.71044 146.383 10.4408 146.506C10.8059 146.568 11.1077 146.62 11.3182 146.656L11.5242 146.692L17.7297 151.567L17.824 151.641L17.9417 151.664L35.0509 155.042L35.2367 155.079L35.4002 154.983L51.6093 145.501L51.6649 145.469L51.7104 145.423L62.3222 134.811L62.4028 134.731L62.4405 134.623L64.6569 128.294L67.1838 146.291L67.2155 146.516L67.4061 146.64L81.804 156.016L84.2363 161.491L52.8314 174.539H16.3385L3.9326 145.587Z" stroke="#E65251"/>
<path d="M18.253 150.706L12.084 145.86L7.57746 140.474L4.36839 127.753L6.68549 116.596L14.4291 105.537L28.4515 99.3045L40.4067 95.9824L49.3993 99.7101L59.0225 108.341L64.3402 126.173L61.4475 134.438L51.0505 144.669L35.0587 154.024L18.253 150.706Z" stroke="#E65251"/>
<path d="M85.3994 153.603L83.6608 157.734L82.6578 155.475L82.5978 155.339L82.4737 155.259L68.2681 146.008L69.0093 143.608L85.3994 153.603Z" stroke="#E65251"/>
<path d="M84.5331 158.239L86.3872 153.833L103.959 150.012L103.582 153.006L84.5331 158.239Z" stroke="#E65251"/>
<path d="M104.759 151.666L105.022 149.568L113.546 138.268L112.505 141.768L104.759 151.666Z" stroke="#E65251"/>
<path d="M17.7691 113.299L26.7175 107.541L32.4614 114.381L30.667 121.515L23.649 120.429L17.7691 113.299Z" stroke="#E65251"/>
<path d="M37.8133 121.629C37.8171 121.39 37.8173 121.076 37.8161 120.716C37.8154 120.498 37.8142 120.263 37.8128 120.015C37.8096 119.406 37.806 118.721 37.8086 118.035C37.8122 117.069 37.8282 116.116 37.8739 115.39C37.8969 115.025 37.9265 114.733 37.9626 114.53C37.973 114.471 37.9829 114.426 37.9916 114.392C38.5417 114.055 40.5216 112.781 42.4196 111.556C43.4714 110.877 44.5073 110.207 45.2803 109.707L46.151 109.144L51.4014 116.942L43.9033 122.237L37.8133 121.629Z" stroke="#E65251"/>
<path d="M43.9897 123.25L44.1753 123.269L44.3278 123.161L51.5892 118.033V118.38L43.9252 123.685L38.5843 122.711L43.9897 123.25Z" stroke="#E65251"/>
<mask id="path-13-inside-1_534_2263" fill="white">
<path d="M31.0407 122.079L30.7966 122.756L24.4448 121.783L23.3844 120.894L31.0407 122.079Z"/>
</mask>
<path d="M31.0407 122.079L31.9816 122.417L32.3928 121.276L31.1936 121.09L31.0407 122.079ZM30.7966 122.756L30.6452 123.745L31.4585 123.869L31.7374 123.095L30.7966 122.756ZM24.4448 121.783L23.8023 122.55L24.0168 122.73L24.2934 122.772L24.4448 121.783ZM23.3844 120.894L23.5373 119.906L19.9961 119.358L22.7419 121.661L23.3844 120.894ZM30.0999 121.74L29.8558 122.418L31.7374 123.095L31.9816 122.417L30.0999 121.74ZM30.948 121.768L24.5963 120.795L24.2934 122.772L30.6452 123.745L30.948 121.768ZM25.0874 121.017L24.0269 120.128L22.7419 121.661L23.8023 122.55L25.0874 121.017ZM23.2315 121.883L30.8879 123.067L31.1936 121.09L23.5373 119.906L23.2315 121.883Z" fill="#E65251" mask="url(#path-13-inside-1_534_2263)"/>
<path d="M13.948 132.271L22.254 127.047L29.681 128.182L28.7762 134.161L20.1652 139.765L13.948 132.271Z" stroke="#E65251"/>
<path d="M38.7729 141.573L34.6209 135.217L36.4804 128.297L43.0194 128.857L47.2999 135.511L38.7729 141.573Z" stroke="#E65251"/>
<path d="M28.4536 135.837L21.401 140.179L21.3709 140.173L28.5158 135.524L28.4536 135.837Z" stroke="#E65251"/>
<path d="M47.759 136.972L39.6398 142.88L39.3244 142.408L47.6525 136.487L47.759 136.972Z" stroke="#E65251"/>
<path d="M0.53103 126.944L1.58942 110.977L5.68185 116.511L3.45705 127.223L0.53103 126.944Z" stroke="#E65251"/>
<path d="M6.63584 140.83L6.6638 140.941L6.73718 141.028L10.5273 145.558L3.60524 144.647L0.608601 127.956L3.45694 128.228L6.63584 140.83Z" stroke="#E65251"/>
<path d="M28.1447 98.3509L28.1092 98.3608L28.0755 98.3758L13.8925 104.68L13.7656 104.737L13.686 104.85L6.20584 115.538L1.83384 109.625L13.4998 97.4921L13.5253 97.4787L13.8088 97.3298L14.8849 96.765C15.812 96.2784 17.1365 95.5837 18.7258 94.7507C21.9046 93.0848 26.1429 90.8662 30.3811 88.6556C34.6195 86.4448 38.857 84.2424 42.0346 82.6085C43.6237 81.7914 44.9461 81.1174 45.8706 80.6557C45.9838 80.5992 46.0908 80.546 46.1915 80.4961C46.0294 80.8933 45.8291 81.3788 45.6005 81.9291C44.9758 83.4329 44.1427 85.415 43.3092 87.3902C42.4757 89.3651 41.6423 91.3323 41.0171 92.8058C40.7046 93.5425 40.4441 94.1558 40.2618 94.5849L40.0695 95.0373L28.1447 98.3509Z" stroke="#E65251"/>
<path d="M86.1756 146.23L85.6017 152.555L68.9814 142.42L68.4329 142.085L68.2434 142.699L67.8624 143.932L65.39 126.325L76.019 112.558L95.4041 107.647L93.7847 110.652L80.5365 112.975L80.3416 113.009L80.2229 113.167L73.1314 122.62L72.9978 122.798L73.0408 123.017L76.3606 139.904L76.4024 140.116L76.586 140.231L86.1756 146.23Z" stroke="#E65251"/>
<path d="M106.208 134.319L106.706 134.368L106.706 134.367L106.706 134.366L106.707 134.363L106.708 134.348L106.714 134.29L106.735 134.069C106.753 133.878 106.78 133.605 106.811 133.275C106.875 132.615 106.959 131.728 107.043 130.819C107.21 129.025 107.383 127.089 107.383 126.721C107.383 126.622 107.361 126.501 107.341 126.402C107.318 126.289 107.285 126.15 107.245 125.991C107.166 125.674 107.053 125.262 106.919 124.792C106.652 123.85 106.295 122.661 105.94 121.496C105.584 120.33 105.228 119.185 104.961 118.332C104.828 117.906 104.717 117.552 104.639 117.305L104.549 117.018L104.525 116.943L104.519 116.924L104.517 116.919L104.517 116.917L104.517 116.917C104.517 116.917 104.517 116.917 104.04 117.068L104.517 116.917L104.46 116.737L104.298 116.639L94.7764 110.92L96.5968 107.541L110.57 114.312L114.29 135.627L104.538 148.557L100.906 143.937L106.635 134.58L106.695 134.482L106.706 134.368L106.208 134.319Z" stroke="#E65251"/>
<path d="M86.5866 152.767L87.1636 146.407L100.08 144.509L103.656 149.054L86.5866 152.767Z" stroke="#E65251"/>
<path d="M115.172 134.884L114.331 130.054L147.991 105.476L151.963 108.476L115.172 134.884Z" stroke="#E65251"/>
<path d="M127.353 68.9178L48.998 78.784L114.736 31.5716L136.984 57.3749L136.061 61.5248L127.353 68.9178Z" stroke="#E65251"/>
<path d="M67.964 105.252L48.0469 79.9117L125.572 70.15L72.5898 106.345L67.964 105.252Z" stroke="#E65251"/>
<path d="M50.0035 98.9087L49.94 98.8517L49.8612 98.819L41.0941 95.1848L47.2405 80.5039L67.2859 106.007L67.3939 106.145L67.564 106.185L72.5747 107.369L72.7895 107.42L72.9718 107.295L110.006 81.9936L117.376 100.071L114.399 104.577L114.258 104.79L114.348 105.028L115.991 109.416L110.951 113.388L96.602 106.433L96.4379 106.353L96.2611 106.398L75.6061 111.631L75.4387 111.673L75.3332 111.81L65.0661 125.108L59.9406 107.92L59.9003 107.785L59.7953 107.691L50.0035 98.9087Z" stroke="#E65251"/>
<path d="M143.197 51.3662L143.268 51.4663L143.378 51.522L153.435 56.6302L143.281 63.653L137.917 56.9267L137.911 56.9192L137.905 56.9119L125.453 42.4721L135.858 41.0589L143.197 51.3662Z" stroke="#E65251"/>
<path d="M124.674 41.5687L115.747 31.2128L134.323 27.2838L135.547 40.092L124.674 41.5687Z" stroke="#E65251"/>
<path d="M134.453 26.2341L116.766 29.975L130.758 18.7511L138.597 19.449L134.453 26.2341Z" stroke="#E65251"/>
<path d="M131.979 81.2316L131.864 81.414L131.918 81.6225L136.309 98.6188L136.362 98.8239L136.547 98.9285L147.076 104.905L114.139 128.956L111.559 114.182L116.652 110.168L120.256 111.892L120.407 111.965L120.571 111.931L125.553 110.918L125.744 110.879L125.858 110.721L128.42 107.175L128.552 106.993L128.503 106.773L127.377 101.762L127.323 101.524L127.103 101.42L122.825 99.3938L122.709 99.3389L122.581 99.3466L118.267 99.6057L110.851 81.4165L127.845 69.8081L127.867 69.7934L127.887 69.7764L136.837 62.1784L136.965 62.0697L137.001 61.9057L137.787 58.3678L142.57 64.3644L131.979 81.2316Z" stroke="#E65251"/>
<path d="M115.373 104.916L118.215 100.616L122.701 100.441L126.454 102.219L127.478 106.772L125.162 109.977L120.536 110.918L116.984 109.219L115.373 104.916Z" stroke="#E65251"/>
<path d="M131.736 17.8341L141.216 8.66068L147.37 10.3071L139.253 18.5035L131.736 17.8341Z" stroke="#E65251"/>
<path d="M166.238 7.61362L166.164 7.5993L166.089 7.60748L148.37 9.53966L142.788 8.04623L154.479 4.05044L175.15 5.22095L185.193 9.27898L176.231 9.54543L166.238 7.61362Z" stroke="#E65251"/>
<path d="M208.011 59.0786C207.916 59.4621 207.835 59.7925 207.771 60.0602C207.754 60.0461 207.738 60.0316 207.721 60.0169C207.252 59.6076 206.57 58.9929 205.744 58.2375C204.092 56.7278 201.872 54.6664 199.646 52.5879C197.42 50.5097 195.188 48.4156 193.513 46.8409C192.676 46.0536 191.977 45.3961 191.489 44.9356L190.928 44.4071L194.917 26.7891L194.969 26.5613L194.827 26.3755L186.974 16.0772L186.917 16.0024L186.837 15.9535L177.888 10.4967L187.426 10.2131L213.971 31.1005L213.906 31.4165C213.824 31.8165 213.704 32.3978 213.555 33.1232C213.256 34.574 212.837 36.6011 212.359 38.9063C211.404 43.5168 210.213 49.2388 209.268 53.6869C208.834 55.7233 208.409 57.4673 208.099 58.7248C208.068 58.8472 208.039 58.9652 208.011 59.0786Z" stroke="#E65251"/>
<path d="M244.921 86.2645C243 89.6406 240.849 93.38 239.61 95.4043C237.766 93.3206 230.809 85.545 223.948 77.8833C220.054 73.5353 216.186 69.219 213.292 65.9897C211.845 64.3751 210.642 63.0322 209.8 62.0929L208.823 61.0033L208.648 60.8075L214.775 32.1148L248.711 79.5584L248.548 79.8493C248.343 80.2133 248.049 80.7374 247.688 81.3778C246.966 82.6587 245.979 84.4045 244.921 86.2645Z" stroke="#E65251"/>
<path d="M260.05 97.1348L253.557 112.343L240.284 96.1914L249.327 80.4865L260.05 97.1348Z" stroke="#E65251"/>
<path d="M253.159 114.106L252.951 118.987L234.147 129.236L233.225 123.632L253.159 114.106Z" stroke="#E65251"/>
<path d="M189.489 101.945L189.534 101.834L189.523 101.714L188.274 87.987L222.38 113.93L232.204 123.585L233.109 129.088L188.304 104.895L189.489 101.945Z" stroke="#E65251"/>
<path d="M188.516 101.684L187.34 104.611L180.045 104.368L179.288 89.4909L181.919 84.6358L187.201 87.2269L188.516 101.684Z" stroke="#E65251"/>
<path d="M222.66 112.886L188.38 86.8116L208.127 61.7326L238.994 96.226L222.66 112.886Z" stroke="#E65251"/>
<path d="M173.058 102.807L171.797 100.573L178.358 90.8923L178.457 92.8471L173.058 102.807Z" stroke="#E65251"/>
<path d="M173.298 104.283L173.434 104.213L173.507 104.078L178.555 94.7655L179.056 104.608L94.2812 166.417L92.7586 163.548L92.7325 163.498L92.6961 163.456L88.2295 158.261L104.169 153.882L104.328 153.838L104.43 153.708L113.351 142.309L113.41 142.235L113.437 142.144L115.246 136.062L152.847 109.072L158.23 111.884L158.461 112.005L158.693 111.885L173.298 104.283Z" stroke="#E65251"/>
<path d="M158.462 110.877L153.48 108.274L154.199 106.894L170.978 101.156L172.377 103.635L158.462 110.877Z" stroke="#E65251"/>
<path d="M87.1625 158.554L91.722 163.857L87.8001 171.793L85.3875 161.64L85.3768 161.595L85.3579 161.553L84.3661 159.322L87.1625 158.554Z" stroke="#E65251"/>
<path d="M88.2541 173.131L92.3327 164.879L93.5874 167.243L91.9776 176.339L88.2541 173.131Z" stroke="#E65251"/>
<path d="M96.8414 208.798L88.4908 174.655L91.8697 177.566L91.9378 177.841L92.2383 179.057L93.3104 183.397C94.1974 186.988 95.3795 191.773 96.5597 196.554C97.74 201.334 98.9184 206.109 99.7981 209.678C100.162 211.156 100.475 212.427 100.716 213.405C100.316 212.925 99.8661 212.388 99.4177 211.854C98.7528 211.062 98.0897 210.276 97.5929 209.687C97.3445 209.393 97.1376 209.148 96.9928 208.977L96.8414 208.798Z" stroke="#E65251"/>
<path d="M101.093 224.916L97.4422 211.086L101.272 215.68L103.948 226.58L101.093 224.916Z" stroke="#E65251"/>
<path d="M84.1102 241.715L84.2465 241.685L84.3472 241.588L100.736 225.866L103.934 227.729L89.481 243.919L70.0981 247.553L67.8884 245.343L84.1102 241.715Z" stroke="#E65251"/>
<path d="M140.91 7.63137L140.804 7.6675L140.724 7.74518L130.271 17.8598L128.981 18.8961L129.31 15.0406L148.919 0.499939H153.469L153.856 3.20648L140.91 7.63137Z" stroke="#E65251"/>
<path d="M158.82 58.9583L146.146 62.8873L154.694 56.9755L155.384 56.4983L154.636 56.1185L143.941 50.686L136.575 40.3419L135.281 26.797L139.839 19.3327L148.561 10.5246L166.123 8.60973L176.007 10.5206L186.236 16.7546L193.886 26.796L189.886 44.4646L189.822 44.7463L190.034 44.9423L207.423 61.0091L187.53 86.2748L182.119 83.6206L176.667 66.4597L176.597 66.2388L176.383 66.1496L159.16 58.9743L158.993 58.9046L158.82 58.9583Z" stroke="#E65251"/>
<path d="M12.9672 96.6442L12.8951 96.6819L12.8388 96.7405L2.01289 107.996L2.90117 103.619L20.1733 90.645H24.4207L12.9672 96.6442Z" stroke="#E65251"/>
<path d="M142.445 41.6072L145.75 33.8417L154.436 32.8884L159.377 38.3479L155.768 45.258L147.329 46.9553L142.445 41.6072Z" stroke="#E65251"/>
<path d="M167.135 46.5002L166.146 38.5774L172.608 34.3719L180.964 36.9632L181.743 44.5188L175.755 49.0882L167.135 46.5002Z" stroke="#E65251"/>
<path d="M146.486 16.685L153.043 12.1384L159.894 13.9707L161.399 21.1303L161.359 21.1614L160.605 21.7503C159.98 22.2385 159.144 22.8911 158.303 23.5491C157.463 24.2069 156.616 24.8703 155.969 25.3798C155.645 25.6345 155.371 25.8512 155.172 26.0097C155.093 26.073 155.025 26.1274 154.97 26.1716C154.928 26.1649 154.877 26.156 154.817 26.1448C154.583 26.1006 154.25 26.0275 153.847 25.9329C153.042 25.7443 151.983 25.4765 150.925 25.2025C149.868 24.9287 148.815 24.6497 148.027 24.4389C147.633 24.3336 147.306 24.2454 147.076 24.1835L147.057 24.1783L146.486 16.685Z" stroke="#E65251"/>
<path d="M168.841 22.4556L171.6 15.2766L180.005 14.6435L184.872 19.2558C184.773 19.4629 184.632 19.7582 184.462 20.1121C184.122 20.8224 183.665 21.7684 183.202 22.7122C182.738 23.6569 182.269 24.5959 181.903 25.2935C181.72 25.6435 181.565 25.9259 181.452 26.1162C181.438 26.141 181.424 26.1634 181.412 26.1836C181.345 26.1876 181.266 26.1931 181.178 26.1997C180.921 26.2192 180.57 26.25 180.157 26.2884C179.332 26.3651 178.254 26.4728 177.184 26.5822C176.115 26.6916 175.052 26.8028 174.257 26.8866C173.859 26.9285 173.529 26.9636 173.297 26.9882L173.179 27.0008L168.841 22.4556ZM181.778 26.1946C181.762 26.1905 181.746 26.1873 181.731 26.1848C181.746 26.1872 181.762 26.1904 181.778 26.1946Z" stroke="#E65251"/>
<path d="M155.161 27.7515L149.23 25.736L155.022 27.1642L155.259 27.2225L155.451 27.072L161.453 22.3608V22.8875L155.161 27.7515Z" stroke="#E65251"/>
<path d="M156.199 46.1913L156.433 46.1442L156.543 45.9326L159.481 40.308V40.4183L156.71 46.7601L147.928 47.8669L147.922 47.856L156.199 46.1913Z" stroke="#E65251"/>
<path d="M167.314 47.6022L175.707 50.1265L175.952 50.2001L176.155 50.0452L181.858 45.6928L181.97 46.855L181.91 46.9004L181.161 47.4638C180.542 47.9298 179.716 48.5506 178.891 49.1695C178.066 49.7884 177.243 50.4052 176.628 50.8635C176.32 51.0927 176.065 51.2817 175.889 51.4112C175.877 51.4199 175.865 51.4284 175.854 51.4366C175.813 51.42 175.768 51.402 175.72 51.3827C175.475 51.285 175.125 51.1496 174.707 50.9897C173.87 50.6696 172.753 50.2487 171.636 49.83C170.518 49.4112 169.4 48.9943 168.561 48.682C168.142 48.5259 167.792 48.396 167.548 48.3051L167.431 48.2619L167.314 47.6022ZM175.463 51.7855C175.459 51.7926 175.456 51.8024 175.451 51.8141C175.451 51.8139 175.45 51.8137 175.45 51.8134C175.454 51.8042 175.458 51.7949 175.463 51.7855Z" stroke="#E65251"/>
<path d="M181.698 27.1764L181.971 27.1497L182.095 26.9053L185.107 20.9798L185.222 22.634L182.288 28.2892L173.33 29.1948L168.908 24.2177L168.884 23.9497L172.622 27.8692L172.79 28.0454L173.032 28.0218L181.698 27.1764Z" stroke="#E65251"/>
<path d="M140.406 90.6289L143.7 93.4778L137.105 97.7005L132.985 81.7549L138.008 79.1008L140.243 90.3481L140.276 90.5165L140.406 90.6289Z" stroke="#E65251"/>
<path d="M144.363 67.4059L144.194 67.4673L144.103 67.6219L138.009 77.9694L133.817 80.1843L143.507 64.7527L158.943 59.9671L175.784 66.9835L181.168 83.9284L178.365 89.2902L177.454 90.4984L172.412 84.4279L166.702 68.3028L166.629 68.0947L166.425 68.009L155.617 63.4502L155.436 63.3739L155.251 63.441L144.363 67.4059Z" stroke="#E65251"/>
<path d="M148.242 104.418L137.761 98.468L144.553 94.1188L153.327 98.9321L153.517 99.0364L153.723 98.9689L165.767 95.0223L165.936 94.967L166.032 94.818L172.021 85.5227L176.848 91.3343L170.889 100.13L153.686 106.012L153.497 106.077L153.405 106.254L152.636 107.731L148.297 104.454L148.271 104.434L148.242 104.418Z" stroke="#E65251"/>
<path d="M138.895 78.4348L144.874 68.2841L155.409 64.4479L165.833 68.8446L171.417 84.6143L165.287 94.1272L153.618 97.9511L144.821 93.1248L141.19 89.9848L138.895 78.4348Z" stroke="#E65251"/>
<path d="M74.0648 123.042L80.904 113.926L94.0122 111.627L103.621 117.402L105.49 122.973L106.374 126.757L105.717 134.158L99.9896 143.512L86.8104 145.448L77.2999 139.498L74.0648 123.042Z" stroke="#E65251"/>
<path d="M232.772 122.741L223.415 113.545L239.646 96.9893L252.902 113.12L232.772 122.741Z" stroke="#E65251"/>
<path d="M260.114 104.989L254.037 117.001L254.19 113.409L260.114 99.5316V104.989Z" stroke="#E65251"/>
</g>
</svg>
