<svg width="327" height="278" viewBox="0 0 327 278" fill="none" xmlns="http://www.w3.org/2000/svg">
<g opacity="0.5">
<path d="M126.445 54.8426L148.698 56.2304L132.664 67.0284L132.602 67.0703L132.555 67.1287L116.185 87.378L112.202 79.8255L126.445 54.8426Z" stroke="#E65251"/>
<path d="M178.388 44.6354L178.379 44.6383L178.371 44.6416L150.127 55.3144L128.699 53.9809L177.326 37.2427L177.332 37.2426L177.577 37.2376L178.506 37.2188C179.305 37.2027 180.446 37.18 181.811 37.1536C184.54 37.1006 188.164 37.0326 191.745 36.9721C195.326 36.9116 198.862 36.8587 201.415 36.8362C201.604 36.8345 201.788 36.833 201.965 36.8317C201.451 36.9957 200.888 37.1771 200.284 37.3725C197.719 38.2026 194.431 39.2864 191.188 40.3622C187.944 41.4381 184.744 42.5064 182.355 43.3057C181.161 43.7053 180.169 44.0378 179.476 44.2703L178.672 44.54L178.461 44.611L178.406 44.6292L178.393 44.6338L178.389 44.635L178.388 44.6353C178.388 44.6354 178.388 44.6354 178.547 45.1093L178.388 44.6354Z" stroke="#E65251"/>
<path d="M184.591 45.202L184.519 45.2079L184.452 45.2338L152.207 57.6683L152.137 57.6953L152.077 57.7419L138.34 68.5528L138.305 68.5803L138.276 68.6136L120.752 88.3346L117.054 87.8932L133.285 67.8158L150.43 56.2701L173.76 47.4538L173.773 47.4492L173.785 47.4439L178.273 45.4736L185.05 43.4556L203.633 41.8522L196.08 44.255L184.591 45.202Z" stroke="#E65251"/>
<path d="M110.343 61.3557L110.366 61.3077L110.378 61.256L114.349 44.3791L125.531 54.4267L111.665 78.7491L106.794 68.8398L110.343 61.3557Z" stroke="#E65251"/>
<path d="M126.281 53.7557L114.898 43.5285L126.853 36.5159L145.332 47.1973L126.281 53.7557Z" stroke="#E65251"/>
<path d="M142.542 44.4309L128.145 36.1081L147.438 30.9386L164.536 28.6917L142.542 44.4309Z" stroke="#E65251"/>
<path d="M176.222 36.5665L146.584 46.7662L143.492 44.9803L166.432 28.565L176.222 36.5665Z" stroke="#E65251"/>
<path d="M202.515 30.6316C202.226 30.7765 201.911 30.9326 201.593 31.0881C201.005 31.3759 200.409 31.6596 199.937 31.8674C199.7 31.9716 199.502 32.0536 199.355 32.107C199.288 32.1317 199.238 32.1477 199.204 32.1569L199.138 32.1477L198.834 32.1044C198.575 32.0675 198.207 32.0147 197.745 31.9484C196.822 31.8158 195.526 31.629 193.981 31.4063C190.892 30.961 186.811 30.3718 182.743 29.7842C179.027 29.2476 175.321 28.7122 172.392 28.2889L185.423 27.9664L202.515 30.6316ZM199.169 32.165C199.169 32.1649 199.172 32.1643 199.176 32.1637C199.171 32.1648 199.169 32.1651 199.169 32.165Z" stroke="#E65251"/>
<path d="M177.408 36.245L168.162 28.6877L199.023 33.1407L203.47 35.9071L177.408 36.245Z" stroke="#E65251"/>
<path d="M200.248 32.7249L204.17 30.9056L223.968 36.1056L233.525 41.2281L205.37 35.9109L200.248 32.7249Z" stroke="#E65251"/>
<path d="M208.084 40.4689L208.05 40.4673L208.017 40.4702L188.982 42.1126L196.767 39.4487L205.212 36.8989L229.489 41.4836L208.084 40.4689Z" stroke="#E65251"/>
<path d="M213.59 42.6377L213.552 42.6354L213.514 42.6389L200.733 43.8241L208.126 41.472L235.488 42.769L234.405 43.8743L213.59 42.6377Z" stroke="#E65251"/>
<path d="M120.893 89.3586L121.153 89.3896L121.327 89.194L122.056 88.3721C122.146 88.5939 122.254 88.8579 122.375 89.1541C122.75 90.0732 123.254 91.3027 123.77 92.5434C124.285 93.7835 124.813 95.0372 125.236 96.0038C125.412 96.4073 125.572 96.7634 125.705 97.0488C125.606 97.0401 125.499 97.03 125.384 97.0184C124.604 96.9397 123.525 96.8016 122.428 96.6517C121.333 96.502 120.226 96.3413 119.392 96.218C118.975 96.1563 118.627 96.104 118.383 96.0672L118.26 96.0486L101.461 60.9994L108.333 63.261L105.787 68.6296L105.684 68.8478L105.79 69.0645L111.187 80.0375L111.187 80.0375L111.193 80.0499L115.654 88.5156L115.777 88.7479L116.038 88.779L120.893 89.3586Z" stroke="#E65251"/>
<path d="M115.644 92.9097L106.797 82.0263L96.6415 62.4203L100.262 60.8119L115.644 92.9097Z" stroke="#E65251"/>
<path d="M96.6903 60.2065L98.6384 60.4389L96.5531 61.3653L96.6903 60.2065Z" stroke="#E65251"/>
<path d="M118.29 97.0501L125.833 97.9492L124.492 101.644L117.096 101.483L118.29 97.0501Z" stroke="#E65251"/>
<path d="M116.301 100.588L108.991 86.3109L117.371 96.6194L116.301 100.588Z" stroke="#E65251"/>
<path d="M97.1972 120.367L98.579 121.91L92.311 121.161L116.612 102.473L123.534 102.623L119.962 105.723L118.314 104.243L118.007 103.967L117.678 104.216L97.2683 119.635L96.8346 119.962L97.1972 120.367Z" stroke="#E65251"/>
<path d="M57.2898 91.7383L57.2185 91.794L57.1712 91.8712L56.8605 92.3784L56.7994 91.3356L95.6142 60.7894L95.4812 61.9131L57.2898 91.7383Z" stroke="#E65251"/>
<path d="M85.6087 120.138L57.096 93.9087L57.6986 92.9248L85.7286 119.984L85.6087 120.138Z" stroke="#E65251"/>
<path d="M70.8057 75.3055L72.1372 71.0952L77.4914 73.778L71.9997 78.1013L70.8057 75.3055Z" stroke="#E65251"/>
<path d="M76.3486 67.4271L79.3285 67.7818L78.0808 72.9549L72.7603 70.289L76.3486 67.4271Z" stroke="#E65251"/>
<path d="M79.2437 72.3991L80.4193 67.5248L82.0314 64.3085L86.0969 63.4704L89.4423 64.3748L79.2437 72.3991Z" stroke="#E65251"/>
<path d="M122.459 132.198L122.321 132.39L122.381 132.619L127.393 151.45L100.205 122.227L98.3047 120.105L117.952 105.262L119.556 106.702L128.548 123.758L122.459 132.198Z" stroke="#E65251"/>
<path d="M156.249 182.169L156.246 182.251L156.27 182.33L162.394 202.633L128.853 153.047L123.409 132.591L129.098 124.705L156.656 170.26L156.249 182.169Z" stroke="#E65251"/>
<path d="M157.583 172.41L184.145 235.202L164.28 205.422L157.251 182.121L157.583 172.41Z" stroke="#E65251"/>
<path d="M200.909 248.306L200.932 248.515L201.097 248.644L211.545 256.861L202.605 261.283L187.109 239.643L159.201 173.668L198.434 225.75L200.909 248.306Z" stroke="#E65251"/>
<path d="M201.88 247.988L199.667 227.818L214.588 253.149L212.375 256.242L201.88 247.988Z" stroke="#E65251"/>
<path d="M98.8987 114.835L89.5145 118.265L114.734 99.7156L115.813 101.827L98.8987 114.835Z" stroke="#E65251"/>
<path d="M96.2592 116.864L90.8911 120.991L86.6074 120.482L86.7055 120.356L96.2592 116.864Z" stroke="#E65251"/>
<path d="M86.4423 119.283L58.3589 92.1723L95.7853 62.9444L114.272 98.8142L86.4423 119.283Z" stroke="#E65251"/>
<path d="M73.2915 110.166L70.0315 110.333L59.4839 109.074L44.7827 100.107L63.224 100.905L73.2915 110.166Z" stroke="#E65251"/>
<path d="M74.3174 111.116L66.4307 112.039L66.371 112.046L66.3147 112.067L66.4888 112.536C66.3147 112.067 66.3146 112.067 66.3145 112.067L66.3137 112.067L66.3109 112.068L66.2994 112.073L66.2539 112.09L66.0767 112.155L65.4037 112.405L62.999 113.299C61.0074 114.04 58.348 115.028 55.6773 116.022C51.0935 117.728 46.442 119.461 45.1099 119.967C45.0412 119.761 44.9713 119.48 44.9066 119.177C44.8346 118.841 44.7733 118.497 44.7298 118.236C44.7245 118.205 44.7194 118.174 44.7147 118.145L59.4105 110.076L69.9626 111.332L70.0049 111.337L70.0474 111.335L74.3174 111.116ZM44.7385 120.111C44.7435 120.108 44.7485 120.106 44.7536 120.104C44.747 120.107 44.742 120.109 44.7385 120.111Z" stroke="#E65251"/>
<path d="M43.4333 100.456L58.3191 109.534L44.6102 117.061L43.4333 100.456Z" stroke="#E65251"/>
<path d="M11.1531 178.084C10.7617 179.352 10.4081 180.471 10.1075 181.382C10.1533 180.879 10.2093 180.317 10.274 179.706C10.5781 176.835 11.0709 172.917 11.5933 168.965C12.1155 165.015 12.6668 161.036 13.0876 158.044C13.298 156.548 13.4757 155.299 13.6008 154.424C13.6634 153.987 13.7128 153.643 13.7465 153.408L13.7851 153.14L13.7888 153.115L29.7762 116.37L42.454 100.821L43.6515 117.716L19.7641 148.512L19.7041 148.589L19.6777 148.683L20.1591 148.818C19.6777 148.683 19.6777 148.684 19.6776 148.684L19.6773 148.685L19.676 148.69L19.6707 148.708L19.6501 148.782L19.5693 149.07C19.4984 149.322 19.3944 149.692 19.2617 150.163C18.9963 151.105 18.616 152.452 18.1568 154.071C17.2384 157.31 16.0042 161.638 14.7411 165.994C13.4779 170.351 12.1864 174.734 11.1531 178.084Z" stroke="#E65251"/>
<path d="M29.3702 151.437L20.9864 148.576L43.9584 118.959L44.4079 120.521L29.3702 151.437Z" stroke="#E65251"/>
<path d="M75.2919 112.007L78.1728 114.655L52.8823 129.179L52.8299 129.21L52.7861 129.251L31.2925 149.771L45.3036 120.966L66.604 113.021L75.2919 112.007Z" stroke="#E65251"/>
<path d="M78.9448 115.364L80.3423 116.651L55.2053 131.685L55.1587 131.713L55.1192 131.75L35.3995 150.313L35.3448 150.364L35.3076 150.43L25.9511 166.883L30.0707 152.32L53.4329 130.016L78.9448 115.364Z" stroke="#E65251"/>
<path d="M19.8408 172.84L26.486 161.306L23.8631 170.577L23.8577 170.596L17.8572 186.441L17.8356 186.498L17.8284 186.559L15.6693 204.655C15.5265 204.675 15.3493 204.698 15.1477 204.725C14.6077 204.798 13.8928 204.891 13.1921 204.978C12.5435 205.058 11.9117 205.132 11.4427 205.178C11.5149 204.948 11.5991 204.667 11.6939 204.34C11.962 203.417 12.3201 202.113 12.7364 200.558C13.5692 197.448 14.6382 193.324 15.693 189.209C16.7479 185.093 17.7891 180.984 18.5665 177.904C18.9552 176.364 19.278 175.081 19.5036 174.183L19.7653 173.142L19.8341 172.867L19.8408 172.84Z" stroke="#E65251"/>
<path d="M18.943 172.402L18.9096 172.46L18.8926 172.525L10.5259 204.436L8.81432 201.709L10.0852 184.231L20.4921 149.464L29.0165 152.373L27.6037 157.367L18.943 172.402Z" stroke="#E65251"/>
<path d="M277.01 148.615C276.901 149.103 276.901 149.103 276.9 149.103L276.899 149.102L276.894 149.101L276.875 149.097L276.798 149.08L276.497 149.013C276.233 148.954 275.847 148.869 275.355 148.76C274.372 148.544 272.968 148.237 271.285 147.874C267.919 147.148 263.438 146.2 258.978 145.31C254.516 144.421 250.082 143.591 246.807 143.101C245.166 142.856 243.833 142.698 242.937 142.658C242.693 142.647 242.493 142.646 242.334 142.652C242.36 142.69 242.389 142.731 242.42 142.774C242.629 143.065 242.921 143.445 243.287 143.903C244.019 144.817 245.033 146.025 246.235 147.427C248.639 150.229 251.786 153.793 254.915 157.299C258.043 160.806 261.152 164.254 263.478 166.825C264.641 168.111 265.609 169.177 266.286 169.923C266.575 170.241 266.812 170.501 266.987 170.694L292.843 143.393L292.871 143.363L292.904 143.338L310.828 129.758C310.468 129.752 310.051 129.745 309.59 129.739C307.983 129.718 305.84 129.702 303.693 129.723C301.544 129.745 299.401 129.804 297.79 129.931C296.982 129.995 296.326 130.075 295.876 130.171C295.664 130.216 295.522 130.26 295.436 130.297C295.411 130.364 295.38 130.421 295.357 130.463C295.306 130.554 295.24 130.653 295.165 130.757C295.014 130.967 294.805 131.226 294.551 131.525C294.041 132.124 293.325 132.908 292.477 133.807C290.78 135.608 288.534 137.894 286.295 140.14C284.056 142.386 281.822 144.594 280.148 146.241C279.311 147.064 278.614 147.747 278.126 148.224C277.882 148.463 277.69 148.65 277.559 148.777L277.41 148.923L277.372 148.96L277.362 148.97L277.359 148.972L277.359 148.973C277.359 148.973 277.359 148.973 277.01 148.615ZM277.01 148.615L276.901 149.103L277.165 149.162L277.359 148.973L277.01 148.615Z" stroke="#E65251"/>
<path d="M294.963 129.563L294.758 129.573L294.619 129.723L286.287 138.684L283.339 114.769L311.689 108.95L311.775 128.812L294.963 129.563Z" stroke="#E65251"/>
<path d="M264.051 128.548L264.305 128.491L264.404 128.252L274.908 103.008L282.304 114.546L285.396 139.628L276.841 148.081L242.612 142.1L252.84 131.031L264.051 128.548Z" stroke="#E65251"/>
<path d="M275.234 101.664L275.04 101.361L274.692 101.448L252.471 106.994L227.021 101.213L254.693 92.6464L318.308 81.956L311.778 107.911L283.022 113.813L275.234 101.664Z" stroke="#E65251"/>
<path d="M230.737 124.934L225.746 101.949L251.555 107.811L240.126 121.069L230.737 124.934Z" stroke="#E65251"/>
<path d="M252.006 72.0386L252.244 72.4781L252.293 72.4518L252.335 72.4154L267.472 59.2167L254.203 91.7547L225.39 100.672C225.362 100.588 225.331 100.493 225.297 100.387C225.173 99.9919 225.015 99.4605 224.837 98.8374C224.482 97.5919 224.05 95.9907 223.647 94.4059C223.244 92.8199 222.871 91.2571 222.632 90.0862C222.512 89.4985 222.429 89.0218 222.392 88.6941C222.384 88.6286 222.379 88.5725 222.376 88.5252C222.435 88.4961 222.504 88.4619 222.58 88.4231C222.829 88.2972 223.177 88.1174 223.607 87.8921C224.468 87.4412 225.667 86.8046 227.09 86.0449C229.935 84.5253 233.679 82.5113 237.405 80.5016C241.132 78.4918 244.842 76.4859 247.62 74.9825C249.009 74.2308 250.165 73.6047 250.974 73.1666L251.912 72.6581L252.159 72.5241L252.223 72.4898L252.239 72.4811L252.243 72.4789L252.244 72.4783C252.244 72.4782 252.244 72.4781 252.006 72.0386ZM222.373 88.3493C222.373 88.3493 222.372 88.3501 222.372 88.3514L222.373 88.3493Z" stroke="#E65251"/>
<path d="M255.379 91.5171L268.993 58.1318L317.331 81.1061L255.379 91.5171Z" stroke="#E65251"/>
<path d="M252.752 107.954L273.97 102.659L263.651 127.459L241.319 121.216L252.752 107.954Z" stroke="#E65251"/>
<path d="M240.46 122.021L261.871 128.007L252.47 130.092L252.317 130.126L252.211 130.241L241.254 142.099L241.228 142.127L241.207 142.159L241.622 142.438L241.207 142.159L241.207 142.159L241.206 142.16L241.204 142.163L241.196 142.175L241.164 142.223L241.043 142.402C240.939 142.557 240.79 142.778 240.611 143.043C240.252 143.573 239.772 144.28 239.289 144.988C238.805 145.695 238.318 146.402 237.945 146.931C237.868 147.04 237.796 147.142 237.73 147.233C237.685 147.156 237.637 147.073 237.585 146.982C237.264 146.424 236.811 145.624 236.271 144.662C235.191 142.738 233.762 140.172 232.337 137.604C230.913 135.037 229.492 132.469 228.428 130.542C227.895 129.579 227.452 128.777 227.142 128.215L226.913 127.8L230.576 126.085L240.46 122.021Z" stroke="#E65251"/>
<path d="M246.299 163.893L253.561 172.443L238.486 157.681L232.511 147.197L234.117 142.839L237.248 148.354L237.248 148.354L237.251 148.358L246.248 163.821L246.27 163.859L246.299 163.893Z" stroke="#E65251"/>
<path d="M241.668 143.246L266.35 171.473L260.945 179.591L247.09 163.28L238.275 148.131L241.668 143.246Z" stroke="#E65251"/>
<path d="M207.64 94.4518L213.05 90.7355L214.774 108.051L214.785 108.155L214.836 108.246L224.794 126.049L219.477 122.603L210.994 102.77L207.64 94.4518Z" stroke="#E65251"/>
<path d="M224.603 101.399L229.802 125.34L226.424 126.916L215.759 107.849L214.007 90.2475L221.555 88.762L224.603 101.399Z" stroke="#E65251"/>
<path d="M200.611 156.405L197.129 142.568L226.009 128.226L233.471 141.698L231.577 146.838L200.611 156.405Z" stroke="#E65251"/>
<path d="M234.664 152.996L215.252 170.369L201.226 157.262L231.725 147.839L234.664 152.996Z" stroke="#E65251"/>
<path d="M141.83 187.293L127.827 185.205L142.874 175.271L141.83 187.293Z" stroke="#E65251"/>
<path d="M108.901 212.675L126.702 186.049L141.358 188.234L131.968 200.202L108.901 212.675Z" stroke="#E65251"/>
<path d="M134.646 198.404L142.672 188.174L142.763 188.057L142.776 187.909L143.839 175.674L151.963 187.009C151.751 187.132 151.489 187.29 151.185 187.479C150.533 187.883 149.676 188.431 148.688 189.072C146.711 190.354 144.199 192.016 141.729 193.661C139.259 195.306 136.83 196.935 135.019 198.153C134.892 198.239 134.767 198.323 134.646 198.404Z" stroke="#E65251"/>
<path d="M81.1567 225.646L91.1153 223.228L83.4043 230.637L81.1567 225.646Z" stroke="#E65251"/>
<path d="M82.1243 208.453L82.1254 208.452L123.071 187.78L80.394 224.692L66.1455 216.57L82.1243 208.453Z" stroke="#E65251"/>
<path d="M107.014 213.697L92.612 221.836L82.3432 224.329L123.988 188.308L107.014 213.697Z" stroke="#E65251"/>
<path d="M199.77 157.16L199.805 157.303L199.913 157.404L201.106 158.518L193.777 163.564L158.511 167.144L197.319 147.422L199.77 157.16Z" stroke="#E65251"/>
<path d="M195.7 166.776L195.58 166.785L195.477 166.848L167.028 184.283L164.586 180.574L194.193 164.488L194.217 164.475L194.238 164.46L201.854 159.218L208.866 165.77L195.7 166.776Z" stroke="#E65251"/>
<path d="M191.529 164.797L164.039 179.733L156.755 168.327L191.529 164.797Z" stroke="#E65251"/>
<path d="M141.379 198.294L119.38 208.145L132.535 201.032L132.554 201.022L132.572 201.01L152.575 187.864L155.278 191.635L141.379 198.294Z" stroke="#E65251"/>
<path d="M78.9777 225.036L58.0585 228.449L65.2563 217.214L78.9777 225.036Z" stroke="#E65251"/>
<path d="M82.4779 231.015L65.1021 231.625L58.9625 229.315L80.1553 225.857L82.4779 231.015Z" stroke="#E65251"/>
</g>
</svg>
