<svg width="279" height="236" viewBox="0 0 279 236" fill="none" xmlns="http://www.w3.org/2000/svg">
<g opacity="0.5">
<path d="M136.075 27.6038L142.017 3.45488L163.727 9.64466L154.203 43.6929L136.075 27.6038Z" stroke="#E65251"/>
<path d="M136.768 29.5555L153.913 44.7732L149.805 62.1351L136.768 29.5555Z" stroke="#E65251"/>
<path d="M149.334 63.6479L120.524 89.3393L135.626 29.394L149.334 63.6479Z" stroke="#E65251"/>
<path d="M164.336 8.77856L142.974 2.68805L147.006 0.511793L155.757 1.32083L171.231 6.62892L164.336 8.77856Z" stroke="#E65251"/>
<path d="M172.409 7.30934L172.917 11.8684L150.428 97.812V63.8461L154.953 44.7226L164.751 9.69675L172.409 7.30934Z" stroke="#E65251"/>
<path d="M149.241 67.067C149.304 66.8609 149.365 66.6642 149.424 66.4772V101.629L137.405 147.443L133.893 127.297L133.912 127.22L134.037 126.701C134.147 126.246 134.309 125.578 134.515 124.728C134.927 123.028 135.518 120.598 136.231 117.677C137.659 111.835 139.578 104.032 141.547 96.1847C143.517 88.3369 145.534 80.4478 147.158 74.4337C147.971 71.4259 148.683 68.8915 149.241 67.067Z" stroke="#E65251"/>
<path d="M136.786 149.695L118.393 181.355L133.264 129.512L136.786 149.695Z" stroke="#E65251"/>
<path d="M117.27 185.279L135.87 153.262L116.333 226.84L113.845 231.583L105.181 234.334L117.27 185.279Z" stroke="#E65251"/>
<path d="M107.484 220.807L104.127 234.433L88.0208 228.988L84.8771 222.247L92.5574 196.038L107.484 220.807Z" stroke="#E65251"/>
<path d="M93.1301 195.051L116.084 185.914L107.823 219.432L93.1301 195.051Z" stroke="#E65251"/>
<path d="M116.389 184.716L93.1352 193.973L108.288 136.749L125.525 152.872L116.389 184.716Z" stroke="#E65251"/>
<path d="M132.9 127.153L126.32 150.1L120.165 90.9993L149.028 65.2607L132.9 127.153Z" stroke="#E65251"/>
<path d="M125.454 151.437L108.577 135.65L119.432 93.6092L125.454 151.437Z" stroke="#E65251"/>
<path d="M166.235 61.7297L166.105 61.5847V54.37L184.501 34.1297L191.621 35.5334L191.614 35.7035C191.596 36.0946 191.57 36.6681 191.537 37.3978C191.471 38.8573 191.377 40.9417 191.261 43.4411C191.029 48.44 190.715 55.0987 190.381 61.7388C190.048 68.3792 189.696 74.9992 189.391 79.9212C189.238 82.3829 189.097 84.4161 188.976 85.8137C188.94 86.2334 188.905 86.5928 188.873 86.8877C187.146 84.9862 182.327 79.6332 177.54 74.3095C174.631 71.0742 171.74 67.8573 169.577 65.4493L166.966 62.5428L166.235 61.7297Z" stroke="#E65251"/>
<path d="M225.596 64.9087C226.763 66.212 227.762 67.3302 228.524 68.1873C228.375 68.1159 228.22 68.0419 228.061 67.9654L228.029 67.9502C226.476 67.2061 224.438 66.2295 222.403 65.2381C220.368 64.2462 218.341 63.2415 216.809 62.4412C216.042 62.0405 215.406 61.6944 214.956 61.4285C214.731 61.2948 214.561 61.1868 214.449 61.1059C214.41 61.0777 214.382 61.0562 214.364 61.041C214.353 61.0192 214.342 61.002 214.336 60.9915C214.315 60.9565 214.289 60.9186 214.263 60.88C214.209 60.8022 214.137 60.7038 214.049 60.5888C213.874 60.3577 213.627 60.0435 213.32 59.6601C212.705 58.8925 211.842 57.8369 210.814 56.5924C208.758 54.103 206.041 50.8515 203.331 47.6233C200.621 44.3949 197.919 41.1888 195.894 38.7899C194.882 37.5904 194.039 36.5927 193.449 35.8949L192.764 35.0852L192.584 34.8721L192.537 34.8174L192.526 34.8036L192.523 34.8001L192.522 34.7993C192.522 34.7991 192.522 34.799 192.14 35.122L192.522 34.799L192.409 34.6653L192.237 34.6314L189.463 34.0846H195.335L200.121 36.5908L200.149 36.6211L200.403 36.9033L201.369 37.9744C202.2 38.897 203.388 40.2148 204.812 41.7954C207.661 44.9567 211.455 49.1692 215.238 53.3744C219.021 57.5797 222.792 61.7773 225.596 64.9087ZM214.335 61.0138C214.335 61.0139 214.339 61.0169 214.344 61.0227C214.337 61.0166 214.335 61.0137 214.335 61.0138Z" stroke="#E65251"/>
<path d="M230.181 70.1032L252.042 101.647L216.205 63.0144L230.181 70.1032Z" stroke="#E65251"/>
<path d="M256.859 106.847L235.103 75.4538C235.858 76.2772 236.682 77.1771 237.564 78.1407C242.008 82.9937 247.927 89.4643 253.827 95.9348C259.728 102.406 265.609 108.875 269.978 113.727C272.162 116.154 273.967 118.174 275.207 119.587C275.804 120.267 276.267 120.804 276.578 121.176C276.385 121.234 276.164 121.303 275.924 121.379C275.825 121.41 275.721 121.443 275.615 121.476C274.978 121.678 274.232 121.913 273.484 122.127C272.608 122.378 271.751 122.592 271.078 122.687C270.739 122.735 270.473 122.748 270.285 122.731C270.177 122.721 270.127 122.704 270.109 122.697C269.655 122.104 266.379 118.185 263.213 114.41C261.598 112.485 260.006 110.59 258.818 109.176C258.224 108.469 257.73 107.882 257.385 107.472L256.985 106.997L256.88 106.872L256.859 106.847Z" stroke="#E65251"/>
<path d="M273.18 127.138L273.22 126.924L273.091 126.75L270.597 123.355L277.077 122.058L278.321 126.293L277.072 129.331L272.606 130.205L273.18 127.138Z" stroke="#E65251"/>
<path d="M272.213 131.301L275.94 130.571L275.356 131.163C274.261 132.273 272.697 133.857 270.821 135.756C267.069 139.554 262.067 144.61 257.07 149.644C252.072 154.679 247.078 159.69 243.342 163.398C241.474 165.253 239.922 166.779 238.841 167.82C238.478 168.169 238.17 168.462 237.922 168.693C237.91 168.616 237.897 168.537 237.883 168.456C237.786 167.901 237.647 167.233 237.506 166.593C237.364 165.953 237.219 165.335 237.109 164.878C237.064 164.691 237.025 164.531 236.995 164.407L272.213 131.301Z" stroke="#E65251"/>
<path d="M237.007 169.432L213.364 186.028L236.151 165.188L237.007 168.837V169.432Z" stroke="#E65251"/>
<path d="M194.905 209.29L207.661 191.253L232.825 173.589L197.434 208.349L194.905 209.29Z" stroke="#E65251"/>
<path d="M188.893 210.817L189.065 210.793L189.185 210.667L202.915 196.232L193.231 209.925L186.951 212.838L184.525 211.441L188.893 210.817Z" stroke="#E65251"/>
<path d="M188.58 209.852L183.223 210.617L166.413 190.655L165.085 185.788L167.587 182.451L206.334 191.187L188.58 209.852Z" stroke="#E65251"/>
<path d="M190.512 77.688L199.383 80.536L209.131 110.375L189.692 87.7888L190.512 77.688Z" stroke="#E65251"/>
<path d="M213.395 61.4255L205.592 96.3219L200.255 79.9827L200.175 79.74L199.932 79.6619L190.583 76.6606L192.578 36.3831L203.35 48.7052L213.395 61.4255Z" stroke="#E65251"/>
<path d="M196.015 187.837L168.35 181.597L193.161 155.439L196.015 187.837Z" stroke="#E65251"/>
<path d="M235.858 164.101L207.158 190.348L197.039 188.068L194.081 154.482L222.2 127.054L235.858 164.101Z" stroke="#E65251"/>
<path d="M251.371 103.432L222.469 125.478L210.825 112.342L206.397 98.7853L251.371 103.432Z" stroke="#E65251"/>
<path d="M206.293 97.7693L214.215 62.3398L251.408 102.43L206.293 97.7693Z" stroke="#E65251"/>
<path d="M269.345 123.339L269.359 123.356L269.375 123.372L269.375 123.372L269.375 123.373L269.376 123.373L269.377 123.374L269.383 123.381L269.409 123.406C269.431 123.428 269.464 123.462 269.505 123.504C269.589 123.59 269.709 123.714 269.852 123.866C270.14 124.169 270.519 124.582 270.893 125.02C271.268 125.462 271.627 125.917 271.879 126.309C272.006 126.506 272.097 126.672 272.15 126.804C272.195 126.916 272.198 126.963 272.199 126.965L271.576 130.297L223.726 125.78L252.625 103.734L255.825 107.097L269.345 123.339Z" stroke="#E65251"/>
<path d="M236.651 163.361L223.147 126.73L270.83 131.231L236.651 163.361Z" stroke="#E65251"/>
<path d="M44.7579 129.954L35.9632 117.278L46.6903 116.316L65.8611 140.088L44.7579 129.954Z" stroke="#E65251"/>
<path d="M67.2531 141.865L80.1946 172.24L46.2928 131.8L67.2531 141.865Z" stroke="#E65251"/>
<path d="M82.3154 174.656L69.6144 144.85C70.1064 145.483 70.6621 146.199 71.2687 146.98C73.6823 150.087 76.9027 154.236 80.1305 158.404C83.3584 162.572 86.5932 166.758 89.0355 169.938C90.2568 171.529 91.2793 172.867 92.0035 173.826C92.3183 174.243 92.5759 174.587 92.7685 174.848C92.5226 174.868 92.2153 174.882 91.8567 174.891C90.7926 174.919 89.3444 174.9 87.8801 174.863C86.4179 174.826 84.9476 174.771 83.8422 174.724C83.2897 174.701 82.8287 174.68 82.5059 174.665C82.4357 174.662 82.372 174.659 82.3154 174.656ZM93.3119 174.772C93.3172 174.77 93.3184 174.77 93.3143 174.771C93.3136 174.772 93.3128 174.772 93.3119 174.772Z" stroke="#E65251"/>
<path d="M84.0509 182.163L84.1682 181.982L84.1168 181.772L82.6118 175.64H93.2089L94.0994 178.604L92.0608 181.502L80.7935 187.196L84.0509 182.163Z" stroke="#E65251"/>
<path d="M79.6576 188.892L90.2111 183.559C90.1029 183.678 89.991 183.801 89.8756 183.927C88.5783 185.352 86.8427 187.254 85.0886 189.163C83.3342 191.072 81.5626 192.988 80.1932 194.44C79.5081 195.167 78.9259 195.775 78.4976 196.208C78.283 196.425 78.1105 196.595 77.9847 196.712C77.9214 196.771 77.8745 196.812 77.8426 196.839C77.8425 196.839 77.8424 196.839 77.8424 196.839C77.8401 196.839 77.8378 196.84 77.8354 196.841C77.8053 196.85 77.7656 196.862 77.7158 196.876C77.6163 196.904 77.4843 196.94 77.3231 196.982C77.0011 197.065 76.5712 197.172 76.0695 197.294C75.0667 197.538 73.784 197.841 72.5186 198.137C71.3474 198.412 70.192 198.679 69.2886 198.888L79.6576 188.892ZM77.8145 196.86C77.8145 196.86 77.8157 196.86 77.8178 196.858C77.8155 196.86 77.8144 196.861 77.8145 196.86Z" stroke="#E65251"/>
<path d="M46.6595 115.314L36.2275 116.251L64.2839 82.9615L55.3997 104.752L46.6595 115.314Z" stroke="#E65251"/>
<path d="M66.2474 80.7943L74.184 82.4955L57.4896 102.275L66.2474 80.7943Z" stroke="#E65251"/>
<path d="M66.9023 79.9119L83.6847 61.6405L83.8165 61.4971V61.3023V54.6383L92.0589 54.049L93.9583 59.1862L74.9158 81.6296L66.9023 79.9119Z" stroke="#E65251"/>
<path d="M91.356 53.0968L83.5448 53.6552L70.0302 36.5206L76.0102 35.6557L91.356 53.0968Z" stroke="#E65251"/>
<path d="M69.0294 35.6548L69.0294 35.6547L69.0217 35.656L61.848 36.8091L64.8429 34.1108L72.5749 35.1421L69.0294 35.6548Z" stroke="#E65251"/>
<path d="M82.8165 61.1076L66.2506 79.1432L62.8016 60.6808L62.7119 60.2006L62.2297 60.2791L39.2115 64.0294L60.5214 38.0352L68.8905 36.69L82.8165 54.3463V61.1076Z" stroke="#E65251"/>
<path d="M16.0174 93.9093L38.2606 65.1974L61.9083 61.3446L65.3674 79.8614L16.0174 93.9093Z" stroke="#E65251"/>
<path d="M64.5058 81.1465L35.0452 116.102L15.6086 95.0656L64.5058 81.1465Z" stroke="#E65251"/>
<path d="M63.4856 198.381L39.2012 166.091L81.5625 175.561L83.0941 181.801L78.9809 188.156L67.4838 199.235L63.4856 198.381Z" stroke="#E65251"/>
<path d="M19.3899 140.76L15.3212 96.228L34.6715 117.171L43.6652 130.133L19.3899 140.76Z" stroke="#E65251"/>
<path d="M0.500122 117.974V112.767L4.88916 107.103L14.2997 96.0374L18.3078 139.906L0.500122 117.974Z" stroke="#E65251"/>
<path d="M79.9329 173.484L20.1002 141.541L44.2798 130.956L79.9329 173.484Z" stroke="#E65251"/>
<path d="M78.4966 173.851L38.2666 164.857L20.8618 143.081L78.4966 173.851Z" stroke="#E65251"/>
</g>
</svg>
