<svg width="69" height="57" viewBox="0 0 69 57" fill="none" xmlns="http://www.w3.org/2000/svg">
<path d="M31.3702 44.5352L32.9418 48.4645L29.0342 47.5937L31.3702 44.5352Z" fill="#E76A6A"/>
<path d="M31.3702 44.5352L28.4393 45.7461L29.0342 47.5937L31.3702 44.5352Z" fill="#F29191"/>
<path d="M28.4394 45.7461L27.016 51.5654L27.9298 52.1815L29.0342 47.5937L28.4394 45.7461Z" fill="#E65251"/>
<path d="M29.0342 47.5938L32.9418 48.4646L29.4161 53.2648L27.9298 52.1815L29.0342 47.5938Z" fill="#CC3737"/>
<path d="M34.7259 36.3369L32.6235 38.6735L29.5979 45.2677L30.1052 45.0581L34.7259 36.3369Z" fill="#EF5E5E"/>
<path d="M34.7259 36.337L34.6411 32.0893L32.1619 29.4556L25.5721 30.4541L30.4146 33.8945L32.6235 38.6735L34.7259 36.337Z" fill="#E76A6A"/>
<path d="M25.5721 30.4541L23.158 40.8027L24.6589 40.9605L27.5396 31.8523L25.5721 30.4541Z" fill="#CC3737"/>
<path d="M27.5395 31.8523L30.4146 33.8945L26.8961 43.8768L25.7064 41.2715L24.6588 40.9604L27.5395 31.8523Z" fill="#E65251"/>
<path d="M30.4146 33.8945L31.252 35.707L24.4888 51.948L24.1487 52.0951V50.5887L27.2072 44.8681L26.8962 43.8768L30.4146 33.8945Z" fill="#CC3737"/>
<path d="M31.252 35.707L32.6235 38.6736L29.5979 45.2678L28.4394 45.7462L27.0161 51.5655L26.3576 50.9283L24.4888 51.948L31.252 35.707Z" fill="#E76A6A"/>
<path d="M17.6921 20.5989L21.147 30.4541L18.4855 46.4999L17.1825 46.0645L15.8796 47.7565L16.5592 27.5656L17.6921 20.5989Z" fill="#E76A6A"/>
<path d="M17.6921 20.5989L13.8977 18.4185L8.14861 28.0467L16.5593 27.5656L17.6921 20.5989Z" fill="#F29191"/>
<path d="M16.5593 27.5657L10.6691 35.8347L10.3575 33.8946L8.57343 33.1726L16.5593 27.5657Z" fill="#AA1B1B"/>
<path d="M16.5593 27.5657L8.14861 28.0468L7.89382 32.9462L8.57343 33.1726L16.5593 27.5657Z" fill="#CC3737"/>
<path d="M16.5593 27.5657L10.6691 35.8347L10.9808 38.5532L11.9152 38.1852L14.4357 40.5641L14.9168 48.7194L15.8797 47.7566L16.5593 27.5657Z" fill="#E65251"/>
<path d="M10.9808 38.553L11.9152 38.1851L12.0568 42.362L11.6744 42.5175L10.9808 38.553Z" fill="#C34343"/>
<path d="M11.9152 38.1851L14.4357 40.564L12.0568 42.362L11.9152 38.1851Z" fill="#E76A6A"/>
<path d="M14.4357 40.564L14.9169 48.7193L14.2094 49.6113L12.0568 42.3619L14.4357 40.564Z" fill="#CC3737"/>
<path d="M12.0568 42.3621L11.6743 42.5176L13.3028 50.5179L14.2094 49.6114L12.0568 42.3621Z" fill="#AA1B1B"/>
<path d="M10.3575 33.8945L10.6692 35.8347L10.9808 38.5531L13.3029 50.5179L12.8217 51.0136L9.15439 36.3019L10.3575 33.8945Z" fill="#E65251"/>
<path d="M10.3575 33.8944L8.57344 33.1724L7.89383 32.9461L5.61415 32.0256L9.15437 36.3018L10.3575 33.8944Z" fill="#E76A6A"/>
<path d="M9.15442 36.3018L3.3914 37.307L5.6142 32.0256L9.15442 36.3018Z" fill="#F29191"/>
<path d="M9.15439 36.3018L3.39137 37.307L10.3575 49.0878L12.1862 48.4645L9.15439 36.3018Z" fill="#E76A6A"/>
<path d="M12.1861 48.4646L12.8217 51.0136L11.1648 52.9676L11.094 55.4876L10.2443 54.5532L10.3575 49.0879L12.1861 48.4646Z" fill="#CC3737"/>
<path d="M10.2443 54.5533L7.52587 51.9764L3.39134 37.3071L10.3575 49.088L10.2443 54.5533Z" fill="#AA1B1B"/>
<path d="M12.1862 56.4504L11.094 55.4876L10.2443 54.5532L7.5259 51.9764L3.92937 48.4646L3.67459 51.9764L12.0568 59.1265L12.1862 56.4504Z" fill="#CC3737"/>
<path d="M12.0568 59.1264L9.68516 60.6986L2.09763e-05 55.1335L3.6746 51.9763L12.0568 59.1264Z" fill="#AA1B1B"/>
<path d="M3.92938 48.4646L0.31892 50.6735L3.6746 51.9764L3.92938 48.4646Z" fill="#E76A6A"/>
<path d="M0.318883 50.6736L-1.72421e-05 55.1337L3.67456 51.9765L0.318883 50.6736Z" fill="#E65251"/>
<path d="M3.92938 48.4646L0.148878 49.9939L0.31892 50.6735L3.92938 48.4646Z" fill="#EF8484"/>
<path d="M0.148868 49.9939L8.81767e-06 55.1336L0.318909 50.6735L0.148868 49.9939Z" fill="#C34343"/>
<path d="M25.7064 41.2715L24.6589 40.9604L23.1581 40.8026L21.5719 40.564L22.266 43.8277L25.0976 45.392L27.2073 44.868L26.8962 43.8767L25.7064 41.2715Z" fill="#F29191"/>
<path d="M21.5719 40.564L20.085 47.3183C20.085 47.3183 21.4587 47.7291 21.5011 47.757C21.5435 47.7849 22.2654 43.8277 22.2654 43.8277L21.5719 40.564V40.564Z" fill="#E65251"/>
<path d="M22.266 43.8276L25.0977 45.392L23.2567 48.6485L21.5011 47.7564L22.266 43.8276Z" fill="#CC3737"/>
<path d="M27.2073 44.8679L25.0976 45.392L23.2567 48.6484L23.9224 48.9634L24.1488 50.5886L27.2073 44.8679Z" fill="#AA1B1B"/>
<path d="M31.1578 54.4963L29.4161 53.2648L27.9298 52.1815L27.016 51.5655L26.3576 50.9282L24.404 55.8349L29.0342 55.4736L31.1578 54.4963Z" fill="#E76A6A"/>
<path d="M31.1578 54.4963L29.8694 59.0557L28.0251 59.5374L29.7004 55.167L31.1578 54.4963Z" fill="#AA1B1B"/>
<path d="M29.7651 55.137L29.0342 55.4737L27.016 59.6651L28.0251 59.5374L29.7651 55.137Z" fill="#CC3737"/>
<path d="M29.0342 55.4736L24.4041 55.8349L24.5596 61.4491L27.016 59.665L29.0342 55.4736Z" fill="#E65251"/>
<path d="M24.5596 61.4491L21.5156 60.7974L24.4041 55.835L24.5596 61.4491Z" fill="#AA1B1B"/>
<path d="M26.3576 50.9282L24.4888 51.9479L21.1755 53.3813L24.4041 55.8349L26.3576 50.9282Z" fill="#F29191"/>
<path d="M24.4041 55.835L21.1755 53.3813L20.7613 60.7093L21.5156 60.7974L24.4041 55.835Z" fill="#E65251"/>
<path d="M18.7258 57.9796L20.1987 55.8984L21.02 56.1365L20.9776 56.888L18.7258 57.9796Z" fill="#E65251"/>
<path d="M16.2337 58.642L15.7102 54.624L13.0196 58.9994L16.2337 58.642Z" fill="#E65251"/>
<path d="M15.7102 54.624L18.7258 57.9797L16.2337 58.642L15.7102 54.624Z" fill="#EF8484"/>
<path d="M15.7102 54.624L20.1987 55.8985L18.7258 57.9797L15.7102 54.624Z" fill="#E76A6A"/>
<path d="M21.9633 53.0407L21.4303 49.9231L23.9224 48.9636L24.1487 50.5888V52.0952L21.9633 53.0407Z" fill="#AA1B1B"/>
<path d="M23.9224 48.9635L21.5011 47.7565L20.085 47.3177L18.4855 46.4999L17.1826 46.0645L21.4303 49.923L23.9224 48.9635Z" fill="#E76A6A"/>
<path d="M17.1826 46.0645L15.8797 47.7565L14.9169 48.7193L14.2094 49.6114L13.3029 50.5179L12.7638 51.081L11.1648 52.9676L13.4869 53.3813L17.1826 46.0645Z" fill="#D35E5E"/>
<path d="M13.4868 53.3813L17.1826 46.0645L21.4303 49.923L13.4868 53.3813Z" fill="#F29191"/>
<path d="M14.3409 53.0101L21.0712 55.2312L21.1755 53.3814L21.9633 53.0407L21.4303 49.9231L14.3409 53.0101Z" fill="#E65251"/>
<path d="M14.341 53.01L13.4869 53.3813L14.2094 57.0648L15.7102 54.624L21.02 56.1366L21.0713 55.2311L14.341 53.01Z" fill="#CC3737"/>
<path d="M13.3028 58.5388L12.0914 58.4167L12.1861 56.4503L11.094 55.4875L11.1648 52.9675L13.4868 53.3812L14.2094 57.0647L13.3028 58.5388Z" fill="#AA1B1B"/>
<path d="M32.792 37.2954L30.5477 42.9067L36.1279 41.6631L32.792 37.2954Z" fill="#E76A6A"/>
<path d="M32.7921 37.2954L36.9774 39.0246L36.1279 41.6631L32.7921 37.2954Z" fill="#F29191"/>
<path d="M36.9773 39.0247L39.0099 47.3349L37.705 48.2146L36.1278 41.6631L36.9773 39.0247Z" fill="#E65251"/>
<path d="M36.1279 41.6631L30.5477 42.9067L35.5825 49.7615L37.705 48.2146L36.1279 41.6631Z" fill="#CC3737"/>
<path d="M28 25.5881L31.0023 28.9248L35.323 38.3416L34.5985 38.0423L28 25.5881Z" fill="#EF5E5E"/>
<path d="M28 25.5881L28.121 19.5222L31.6615 15.7612L41.072 17.1871L34.1566 22.1002L31.0023 28.9248L28 25.5881Z" fill="#E76A6A"/>
<path d="M41.0719 17.1873L44.5193 31.9654L42.376 32.1907L38.2623 19.184L41.0719 17.1873Z" fill="#CC3737"/>
<path d="M38.2624 19.1838L34.1566 22.1001L39.1811 36.3552L40.8801 32.6348L42.3761 32.1905L38.2624 19.1838Z" fill="#E65251"/>
<path d="M34.1566 22.1001L32.9608 24.6884L42.6189 47.881L43.1045 48.0912V45.94L38.7369 37.7707L39.1811 36.3551L34.1566 22.1001Z" fill="#CC3737"/>
<path d="M32.9607 24.6882L31.0022 28.9245L35.3229 38.3414L36.9773 39.0245L39.0099 47.3347L39.9501 46.4247L42.6188 47.8808L32.9607 24.6882Z" fill="#E76A6A"/>
<path d="M52.3247 3.11353L47.391 17.187L51.1918 40.101L53.0524 39.4792L54.913 41.8955L53.9425 13.0622L52.3247 3.11353Z" fill="#E76A6A"/>
<path d="M52.3247 3.11374L57.7433 0L65.9532 13.7495L53.9425 13.0624L52.3247 3.11374Z" fill="#F29191"/>
<path d="M53.9425 13.0625L62.3538 24.871L62.7989 22.1004L65.3465 21.0694L53.9425 13.0625Z" fill="#AA1B1B"/>
<path d="M53.9425 13.0625L65.9532 13.7496L66.317 20.7461L65.3465 21.0694L53.9425 13.0625Z" fill="#CC3737"/>
<path d="M53.9425 13.0625L62.3538 24.871L61.9088 28.753L60.5744 28.2275L56.975 31.6247L56.288 43.2708L54.913 41.8958L53.9425 13.0625Z" fill="#E65251"/>
<path d="M61.9088 28.7528L60.5745 28.2273L60.3723 34.192L60.9184 34.4142L61.9088 28.7528Z" fill="#C34343"/>
<path d="M60.5744 28.2273L56.975 31.6245L60.3722 34.192L60.5744 28.2273Z" fill="#E76A6A"/>
<path d="M56.975 31.6245L56.288 43.2706L57.2983 44.5444L60.3722 34.1921L56.975 31.6245Z" fill="#CC3737"/>
<path d="M60.3722 34.1921L60.9184 34.4143L58.5928 45.839L57.2983 44.5445L60.3722 34.1921Z" fill="#AA1B1B"/>
<path d="M62.7989 22.1001L62.3538 24.8707L61.9088 28.7527L58.5928 45.8389L59.2799 46.5466L64.517 25.5379L62.7989 22.1001Z" fill="#E65251"/>
<path d="M62.7989 22.1001L65.3466 21.0691L66.3171 20.7458L69.5725 19.4314L64.517 25.5379L62.7989 22.1001Z" fill="#E76A6A"/>
<path d="M64.5169 25.5379L72.7467 26.9733L69.5725 19.4314L64.5169 25.5379Z" fill="#F29191"/>
<path d="M64.5169 25.5381L72.7467 26.9735L62.7988 43.797L60.1874 42.9069L64.5169 25.5381Z" fill="#E76A6A"/>
<path d="M60.1875 42.9067L59.2799 46.5467L61.6461 49.3372L61.7472 52.9358L62.9605 51.6015L62.7989 43.7968L60.1875 42.9067Z" fill="#CC3737"/>
<path d="M62.9605 51.6015L66.8425 47.9217L72.7468 26.9734L62.7989 43.7968L62.9605 51.6015Z" fill="#AA1B1B"/>
<path d="M60.1874 54.3108L61.7471 52.9358L62.9604 51.6015L66.8424 47.9217L71.9784 42.9067L72.3422 47.9217L60.3721 58.1323L60.1874 54.3108Z" fill="#CC3737"/>
<path d="M60.3723 58.1322L63.7591 60.3774L77.5898 52.4302L72.3423 47.9216L60.3723 58.1322Z" fill="#AA1B1B"/>
<path d="M40.88 32.6348L42.376 32.1906L44.5192 31.9653L46.7843 31.6245L45.7931 36.2852L41.7494 38.5192L38.7368 37.7708L39.1811 36.3552L40.88 32.6348Z" fill="#F29191"/>
<path d="M46.7843 31.6245L48.9076 41.2699C48.9076 41.2699 46.9459 41.8566 46.8854 41.8964C46.8249 41.9362 45.7939 36.2852 45.7939 36.2852L46.7843 31.6245V31.6245Z" fill="#E65251"/>
<path d="M45.7931 36.2852L41.7495 38.5192L44.3783 43.1695L46.8854 41.8956L45.7931 36.2852Z" fill="#CC3737"/>
<path d="M38.7368 37.7708L41.7494 38.5191L44.3783 43.1694L43.4277 43.6193L43.1045 45.94L38.7368 37.7708Z" fill="#AA1B1B"/>
<path d="M33.0953 51.5204L35.5825 49.7617L37.705 48.2148L39.0099 47.335L39.9502 46.425L42.7399 53.432L36.1279 52.916L33.0953 51.5204Z" fill="#E76A6A"/>
<path d="M33.0953 51.52L34.9352 58.0309L37.5689 58.7188L35.1765 52.4778L33.0953 51.52Z" fill="#AA1B1B"/>
<path d="M35.0841 52.4348L36.1279 52.9157L39.0099 58.9011L37.5689 58.7188L35.0841 52.4348Z" fill="#CC3737"/>
<path d="M36.1278 52.916L42.7398 53.4319L42.5177 61.4491L39.0099 58.9015L36.1278 52.916Z" fill="#E65251"/>
<path d="M42.5178 61.4491L46.8647 60.5184L42.7399 53.4319L42.5178 61.4491Z" fill="#AA1B1B"/>
<path d="M39.9503 46.425L42.6189 47.8812L47.3505 49.9281L42.74 53.432L39.9503 46.425Z" fill="#F29191"/>
<path d="M42.7399 53.4318L47.3504 49.928L47.9419 60.3926L46.8647 60.5183L42.7399 53.4318Z" fill="#E65251"/>
<path d="M47.7747 57.4405L52.0007 59.9324L50.8486 56.4947L47.633 54.9358L47.7747 57.4405Z" fill="#AA1B1B"/>
<path d="M50.8487 56.4947L48.7452 53.5227L47.5725 53.8627L47.633 54.9359L50.8487 56.4947Z" fill="#E65251"/>
<path d="M54.4075 57.4405L55.1551 51.7026L58.9973 57.9508L54.4075 57.4405Z" fill="#E65251"/>
<path d="M55.1551 51.7026L50.8487 56.4947L54.4075 57.4405L55.1551 51.7026Z" fill="#EF8484"/>
<path d="M55.1551 51.7026L48.7453 53.5226L50.8487 56.4947L55.1551 51.7026Z" fill="#E76A6A"/>
<path d="M46.2254 49.4416L46.9865 44.9896L43.4277 43.6194L43.1045 45.9402V48.0914L46.2254 49.4416Z" fill="#AA1B1B"/>
<path d="M43.4277 43.6195L46.8854 41.8958L48.9076 41.2692L51.1918 40.1013L53.0524 39.4795L46.9865 44.9896L43.4277 43.6195Z" fill="#E76A6A"/>
<path d="M53.0524 39.4795L54.913 41.8958L56.288 43.2708L57.2983 44.5446L58.5928 45.8391L59.3627 46.6432L61.6461 49.3374L58.3301 49.9281L53.0524 39.4795Z" fill="#D35E5E"/>
<path d="M58.3301 49.9281L53.0524 39.4795L46.9866 44.9896L58.3301 49.9281Z" fill="#F29191"/>
<path d="M57.1104 49.3975L47.4993 52.5694L47.3504 49.9278L46.2255 49.4413L46.9866 44.9893L57.1104 49.3975Z" fill="#E65251"/>
<path d="M57.1104 49.3977L58.3301 49.9279L57.2983 55.1881L55.155 51.7026L47.5725 53.8625L47.4993 52.5696L57.1104 49.3977Z" fill="#CC3737"/>
<path d="M58.5928 57.2933L60.3228 57.119L60.1875 54.3109L61.7472 52.936L61.646 49.3374L58.3301 49.9281L57.2983 55.1883L58.5928 57.2933Z" fill="#AA1B1B"/>
</svg>
