<svg width="70" height="57" viewBox="0 0 70 57" fill="none" xmlns="http://www.w3.org/2000/svg">
<path d="M38.2195 44.5352L36.6479 48.4645L40.5555 47.5937L38.2195 44.5352Z" fill="#E76A6A"/>
<path d="M38.2195 44.5352L41.1504 45.7461L40.5555 47.5937L38.2195 44.5352Z" fill="#F29191"/>
<path d="M41.1503 45.7461L42.5737 51.5654L41.6599 52.1815L40.5555 47.5937L41.1503 45.7461Z" fill="#E65251"/>
<path d="M40.5555 47.5938L36.6479 48.4646L40.1736 53.2648L41.6599 52.1815L40.5555 47.5938Z" fill="#CC3737"/>
<path d="M34.8638 36.3369L36.9662 38.6735L39.9918 45.2677L39.4845 45.0581L34.8638 36.3369Z" fill="#EF5E5E"/>
<path d="M34.8638 36.337L34.9486 32.0893L37.4278 29.4556L44.0177 30.4541L39.1751 33.8945L36.9662 38.6735L34.8638 36.337Z" fill="#E76A6A"/>
<path d="M44.0176 30.4541L46.4317 40.8027L44.9308 40.9605L42.0502 31.8523L44.0176 30.4541Z" fill="#CC3737"/>
<path d="M42.0502 31.8523L39.1751 33.8945L42.6936 43.8768L43.8833 41.2715L44.9309 40.9604L42.0502 31.8523Z" fill="#E65251"/>
<path d="M39.1751 33.8945L38.3377 35.707L45.1009 51.948L45.441 52.0951V50.5887L42.3825 44.8681L42.6936 43.8768L39.1751 33.8945Z" fill="#CC3737"/>
<path d="M38.3377 35.707L36.9662 38.6736L39.9918 45.2678L41.1503 45.7462L42.5737 51.5655L43.2321 50.9283L45.1009 51.948L38.3377 35.707Z" fill="#E76A6A"/>
<path d="M51.8976 20.5989L48.4427 30.4541L51.1043 46.4999L52.4072 46.0645L53.7101 47.7565L53.0305 27.5656L51.8976 20.5989Z" fill="#E76A6A"/>
<path d="M51.8976 20.5989L55.692 18.4185L61.4411 28.0467L53.0305 27.5656L51.8976 20.5989Z" fill="#F29191"/>
<path d="M53.0305 27.5657L58.9206 35.8347L59.2322 33.8946L61.0163 33.1726L53.0305 27.5657Z" fill="#AA1B1B"/>
<path d="M53.0305 27.5657L61.4411 28.0468L61.6959 32.9462L61.0163 33.1726L53.0305 27.5657Z" fill="#CC3737"/>
<path d="M53.0305 27.5657L58.9206 35.8347L58.6089 38.5532L57.6745 38.1852L55.154 40.5641L54.6729 48.7194L53.7101 47.7566L53.0305 27.5657Z" fill="#E65251"/>
<path d="M58.6089 38.553L57.6745 38.1851L57.5329 42.362L57.9154 42.5175L58.6089 38.553Z" fill="#C34343"/>
<path d="M57.6745 38.1851L55.154 40.564L57.5329 42.362L57.6745 38.1851Z" fill="#E76A6A"/>
<path d="M55.154 40.564L54.6729 48.7193L55.3803 49.6113L57.5329 42.3619L55.154 40.564Z" fill="#CC3737"/>
<path d="M57.5329 42.3621L57.9154 42.5176L56.2869 50.5179L55.3804 49.6114L57.5329 42.3621Z" fill="#AA1B1B"/>
<path d="M59.2322 33.8945L58.9206 35.8347L58.6089 38.5531L56.2869 50.5179L56.768 51.0136L60.4353 36.3019L59.2322 33.8945Z" fill="#E65251"/>
<path d="M59.2322 33.8944L61.0163 33.1724L61.6959 32.9461L63.9756 32.0256L60.4354 36.3018L59.2322 33.8944Z" fill="#E76A6A"/>
<path d="M60.4353 36.3018L66.1983 37.307L63.9755 32.0256L60.4353 36.3018Z" fill="#F29191"/>
<path d="M60.4353 36.3018L66.1984 37.307L59.2322 49.0878L57.4036 48.4645L60.4353 36.3018Z" fill="#E76A6A"/>
<path d="M57.4036 48.4646L56.768 51.0136L58.4249 52.9676L58.4957 55.4876L59.3454 54.5532L59.2322 49.0879L57.4036 48.4646Z" fill="#CC3737"/>
<path d="M59.3454 54.5533L62.0639 51.9764L66.1984 37.3071L59.2322 49.088L59.3454 54.5533Z" fill="#AA1B1B"/>
<path d="M57.4036 56.4504L58.4957 55.4876L59.3454 54.5532L62.0638 51.9764L65.6603 48.4646L65.9151 51.9764L57.5329 59.1265L57.4036 56.4504Z" fill="#CC3737"/>
<path d="M57.5329 59.1264L59.9046 60.6986L69.5897 55.1335L65.9151 51.9763L57.5329 59.1264Z" fill="#AA1B1B"/>
<path d="M65.6603 48.4646L69.2708 50.6735L65.9151 51.9764L65.6603 48.4646Z" fill="#E76A6A"/>
<path d="M69.2708 50.6736L69.5897 55.1337L65.9152 51.9765L69.2708 50.6736Z" fill="#E65251"/>
<path d="M65.6603 48.4646L69.4408 49.9939L69.2708 50.6735L65.6603 48.4646Z" fill="#EF8484"/>
<path d="M69.4409 49.9939L69.5897 55.1336L69.2708 50.6735L69.4409 49.9939Z" fill="#C34343"/>
<path d="M43.8833 41.2715L44.9308 40.9604L46.4317 40.8026L48.0178 40.564L47.3237 43.8277L44.4921 45.392L42.3824 44.868L42.6935 43.8767L43.8833 41.2715Z" fill="#F29191"/>
<path d="M48.0178 40.564L49.5047 47.3183C49.5047 47.3183 48.131 47.7291 48.0886 47.757C48.0463 47.7849 47.3243 43.8277 47.3243 43.8277L48.0178 40.564Z" fill="#E65251"/>
<path d="M47.3237 43.8276L44.4921 45.392L46.333 48.6485L48.0886 47.7564L47.3237 43.8276Z" fill="#CC3737"/>
<path d="M42.3824 44.8679L44.4921 45.392L46.333 48.6484L45.6673 48.9634L45.441 50.5886L42.3824 44.8679Z" fill="#AA1B1B"/>
<path d="M38.4319 54.4963L40.1736 53.2648L41.66 52.1815L42.5737 51.5655L43.2321 50.9282L45.1857 55.8349L40.5555 55.4736L38.4319 54.4963Z" fill="#E76A6A"/>
<path d="M38.4319 54.4963L39.7204 59.0557L41.5646 59.5374L39.8893 55.167L38.4319 54.4963Z" fill="#AA1B1B"/>
<path d="M39.8246 55.137L40.5555 55.4737L42.5737 59.6651L41.5646 59.5374L39.8246 55.137Z" fill="#CC3737"/>
<path d="M40.5555 55.4736L45.1856 55.8349L45.0301 61.4491L42.5737 59.665L40.5555 55.4736Z" fill="#E65251"/>
<path d="M45.0301 61.4491L48.0741 60.7974L45.1856 55.835L45.0301 61.4491Z" fill="#AA1B1B"/>
<path d="M43.2321 50.9282L45.1009 51.9479L48.4142 53.3813L45.1856 55.8349L43.2321 50.9282Z" fill="#F29191"/>
<path d="M45.1857 55.835L48.4142 53.3813L48.8285 60.7093L48.0741 60.7974L45.1857 55.835Z" fill="#E65251"/>
<path d="M50.8639 57.9796L49.391 55.8984L48.5698 56.1365L48.6121 56.888L50.8639 57.9796Z" fill="#E65251"/>
<path d="M53.356 58.642L53.8795 54.624L56.5701 58.9994L53.356 58.642Z" fill="#E65251"/>
<path d="M53.8795 54.624L50.864 57.9797L53.356 58.642L53.8795 54.624Z" fill="#EF8484"/>
<path d="M53.8795 54.624L49.391 55.8985L50.8639 57.9797L53.8795 54.624Z" fill="#E76A6A"/>
<path d="M47.6264 53.0407L48.1594 49.9231L45.6673 48.9636L45.441 50.5888V52.0952L47.6264 53.0407Z" fill="#AA1B1B"/>
<path d="M45.6674 48.9635L48.0886 47.7565L49.5047 47.3177L51.1042 46.4999L52.4071 46.0645L48.1594 49.923L45.6674 48.9635Z" fill="#E76A6A"/>
<path d="M52.4071 46.0645L53.71 47.7565L54.6728 48.7193L55.3803 49.6114L56.2868 50.5179L56.826 51.081L58.4249 52.9676L56.1029 53.3813L52.4071 46.0645Z" fill="#D35E5E"/>
<path d="M56.1029 53.3813L52.4071 46.0645L48.1594 49.923L56.1029 53.3813Z" fill="#F29191"/>
<path d="M55.2488 53.0101L48.5185 55.2312L48.4142 53.3814L47.6265 53.0407L48.1594 49.9231L55.2488 53.0101Z" fill="#E65251"/>
<path d="M55.2487 53.01L56.1029 53.3813L55.3803 57.0648L53.8795 54.624L48.5697 56.1366L48.5184 55.2311L55.2487 53.01Z" fill="#CC3737"/>
<path d="M56.2869 58.5388L57.4984 58.4167L57.4036 56.4503L58.4958 55.4875L58.425 52.9675L56.1029 53.3812L55.3804 57.0647L56.2869 58.5388Z" fill="#AA1B1B"/>
<path d="M36.7977 37.2954L39.0421 42.9067L33.4618 41.6631L36.7977 37.2954Z" fill="#E76A6A"/>
<path d="M36.7977 37.2954L32.6123 39.0246L33.4618 41.6631L36.7977 37.2954Z" fill="#F29191"/>
<path d="M32.6124 39.0247L30.5799 47.3349L31.8847 48.2146L33.4619 41.6631L32.6124 39.0247Z" fill="#E65251"/>
<path d="M33.4618 41.6631L39.0421 42.9067L34.0072 49.7615L31.8847 48.2146L33.4618 41.6631Z" fill="#CC3737"/>
<path d="M41.5897 25.5881L38.5874 28.9248L34.2667 38.3416L34.9912 38.0423L41.5897 25.5881Z" fill="#EF5E5E"/>
<path d="M41.5897 25.5881L41.4687 19.5222L37.9282 15.7612L28.5178 17.1871L35.4331 22.1002L38.5874 28.9248L41.5897 25.5881Z" fill="#E76A6A"/>
<path d="M28.5178 17.1873L25.0705 31.9654L27.2137 32.1907L31.3274 19.184L28.5178 17.1873Z" fill="#CC3737"/>
<path d="M31.3274 19.1838L35.4331 22.1001L30.4086 36.3552L28.7096 32.6348L27.2137 32.1905L31.3274 19.1838Z" fill="#E65251"/>
<path d="M35.4331 22.1001L36.6289 24.6884L26.9708 47.881L26.4852 48.0912V45.94L30.8528 37.7707L30.4086 36.3551L35.4331 22.1001Z" fill="#CC3737"/>
<path d="M36.629 24.6882L38.5875 28.9245L34.2668 38.3414L32.6124 39.0245L30.5799 47.3347L29.6396 46.4247L26.9709 47.8808L36.629 24.6882Z" fill="#E76A6A"/>
<path d="M17.265 3.11353L22.1987 17.187L18.3979 40.101L16.5373 39.4792L14.6767 41.8955L15.6472 13.0622L17.265 3.11353Z" fill="#E76A6A"/>
<path d="M17.265 3.11374L11.8464 0L3.63654 13.7495L15.6472 13.0624L17.265 3.11374Z" fill="#F29191"/>
<path d="M15.6472 13.0625L7.2359 24.871L6.79086 22.1004L4.24318 21.0694L15.6472 13.0625Z" fill="#AA1B1B"/>
<path d="M15.6472 13.0625L3.63652 13.7496L3.27268 20.7461L4.24319 21.0694L15.6472 13.0625Z" fill="#CC3737"/>
<path d="M15.6472 13.0625L7.2359 24.871L7.68095 28.753L9.0153 28.2275L12.6147 31.6247L13.3018 43.2708L14.6767 41.8958L15.6472 13.0625Z" fill="#E65251"/>
<path d="M7.6809 28.7528L9.01525 28.2273L9.21747 34.192L8.67131 34.4142L7.6809 28.7528Z" fill="#C34343"/>
<path d="M9.0153 28.2273L12.6147 31.6245L9.21752 34.192L9.0153 28.2273Z" fill="#E76A6A"/>
<path d="M12.6147 31.6245L13.3018 43.2706L12.2914 44.5444L9.21752 34.1921L12.6147 31.6245Z" fill="#CC3737"/>
<path d="M9.21751 34.1921L8.67136 34.4143L10.9969 45.839L12.2914 44.5445L9.21751 34.1921Z" fill="#AA1B1B"/>
<path d="M6.79083 22.1001L7.23588 24.8707L7.68093 28.7527L10.9969 45.8389L10.3098 46.5466L5.07274 25.5379L6.79083 22.1001Z" fill="#E65251"/>
<path d="M6.79083 22.1001L4.24316 21.0691L3.27265 20.7458L0.0171986 19.4314L5.07274 25.5379L6.79083 22.1001Z" fill="#E76A6A"/>
<path d="M5.07281 25.5379L-3.15697 26.9733L0.017271 19.4314L5.07281 25.5379Z" fill="#F29191"/>
<path d="M5.07283 25.5381L-3.15696 26.9735L6.79092 43.797L9.40228 42.9069L5.07283 25.5381Z" fill="#E76A6A"/>
<path d="M9.4022 42.9067L10.3098 46.5467L7.94366 49.3372L7.84255 52.9358L6.62922 51.6015L6.79084 43.7968L9.4022 42.9067Z" fill="#CC3737"/>
<path d="M6.62921 51.6015L2.74719 47.9217L-3.15705 26.9734L6.79083 43.7968L6.62921 51.6015Z" fill="#AA1B1B"/>
<path d="M9.40228 54.3108L7.84263 52.9358L6.6293 51.6015L2.74728 47.9217L-2.38868 42.9067L-2.75252 47.9217L9.21758 58.1323L9.40228 54.3108Z" fill="#CC3737"/>
<path d="M9.21747 58.1322L5.83065 60.3774L-8.00004 52.4302L-2.75263 47.9216L9.21747 58.1322Z" fill="#AA1B1B"/>
<path d="M28.7097 32.6348L27.2137 32.1906L25.0705 31.9653L22.8054 31.6245L23.7966 36.2852L27.8403 38.5192L30.8529 37.7708L30.4087 36.3552L28.7097 32.6348Z" fill="#F29191"/>
<path d="M22.8054 31.6245L20.6821 41.2699C20.6821 41.2699 22.6438 41.8566 22.7043 41.8964C22.7648 41.9362 23.7958 36.2852 23.7958 36.2852L22.8054 31.6245Z" fill="#E65251"/>
<path d="M23.7966 36.2852L27.8403 38.5192L25.2114 43.1695L22.7043 41.8956L23.7966 36.2852Z" fill="#CC3737"/>
<path d="M30.8529 37.7708L27.8403 38.5191L25.2114 43.1694L26.162 43.6193L26.4852 45.94L30.8529 37.7708Z" fill="#AA1B1B"/>
<path d="M36.4944 51.5204L34.0072 49.7617L31.8847 48.2148L30.5798 47.335L29.6395 46.425L26.8498 53.432L33.4619 52.916L36.4944 51.5204Z" fill="#E76A6A"/>
<path d="M36.4944 51.52L34.6545 58.0309L32.0208 58.7188L34.4133 52.4778L36.4944 51.52Z" fill="#AA1B1B"/>
<path d="M34.5056 52.4348L33.4619 52.9157L30.5798 58.9011L32.0208 58.7188L34.5056 52.4348Z" fill="#CC3737"/>
<path d="M33.4619 52.916L26.8499 53.4319L27.072 61.4491L30.5799 58.9015L33.4619 52.916Z" fill="#E65251"/>
<path d="M27.072 61.4491L22.725 60.5184L26.8498 53.4319L27.072 61.4491Z" fill="#AA1B1B"/>
<path d="M29.6395 46.425L26.9708 47.8812L22.2393 49.9281L26.8498 53.432L29.6395 46.425Z" fill="#F29191"/>
<path d="M26.8499 53.4318L22.2394 49.928L21.6478 60.3926L22.725 60.5183L26.8499 53.4318Z" fill="#E65251"/>
<path d="M21.815 57.4405L17.5891 59.9324L18.7411 56.4947L21.9567 54.9358L21.815 57.4405Z" fill="#AA1B1B"/>
<path d="M18.7411 56.4947L20.8445 53.5227L22.0172 53.8627L21.9567 54.9359L18.7411 56.4947Z" fill="#E65251"/>
<path d="M15.1823 57.4405L14.4347 51.7026L10.5925 57.9508L15.1823 57.4405Z" fill="#E65251"/>
<path d="M14.4347 51.7026L18.741 56.4947L15.1822 57.4405L14.4347 51.7026Z" fill="#EF8484"/>
<path d="M14.4346 51.7026L20.8444 53.5226L18.741 56.4947L14.4346 51.7026Z" fill="#E76A6A"/>
<path d="M23.3643 49.4416L22.6032 44.9896L26.162 43.6194L26.4852 45.9402V48.0914L23.3643 49.4416Z" fill="#AA1B1B"/>
<path d="M26.162 43.6195L22.7043 41.8958L20.6821 41.2692L18.3979 40.1013L16.5373 39.4795L22.6032 44.9896L26.162 43.6195Z" fill="#E76A6A"/>
<path d="M16.5373 39.4795L14.6767 41.8958L13.3017 43.2708L12.2914 44.5446L10.9969 45.8391L10.227 46.6432L7.94366 49.3374L11.2596 49.9281L16.5373 39.4795Z" fill="#D35E5E"/>
<path d="M11.2596 49.9281L16.5373 39.4795L22.6031 44.9896L11.2596 49.9281Z" fill="#F29191"/>
<path d="M12.4793 49.3975L22.0904 52.5694L22.2393 49.9278L23.3643 49.4413L22.6031 44.9893L12.4793 49.3975Z" fill="#E65251"/>
<path d="M12.4793 49.3977L11.2596 49.9279L12.2915 55.1881L14.4347 51.7026L22.0172 53.8625L22.0905 52.5696L12.4793 49.3977Z" fill="#CC3737"/>
<path d="M10.9969 57.2933L9.26688 57.119L9.40222 54.3109L7.84257 52.936L7.94368 49.3374L11.2596 49.9281L12.2914 55.1883L10.9969 57.2933Z" fill="#AA1B1B"/>
</svg>
