<svg width="259" height="323" viewBox="0 0 259 323" fill="none" xmlns="http://www.w3.org/2000/svg">
<path d="M86.5668 179.871L100.656 100.123C100.665 100.078 100.716 100.058 100.75 100.085L161.04 151.978C161.04 151.978 161.057 151.998 161.058 152.012L175.76 239.294C175.767 239.345 175.713 239.381 175.67 239.352L86.5848 179.927C86.5848 179.927 86.5574 179.893 86.5614 179.869L86.5668 179.871Z" stroke="#E65251" stroke-width="0.7" stroke-miterlimit="10"/>
<path d="M86.7874 180.06L175.774 239.42C175.774 239.42 175.787 239.429 175.79 239.437L190.206 260.828C190.206 260.828 190.213 260.848 190.217 260.856L192.217 287.75C192.221 287.794 192.178 287.825 192.14 287.808L144.537 270.87C144.537 270.87 144.514 270.857 144.509 270.845L86.7074 180.133C86.6723 180.079 86.7342 180.018 86.7898 180.055L86.7874 180.06Z" stroke="#E65251" stroke-width="0.7" stroke-miterlimit="10"/>
<path d="M86.5277 179.91L60.5092 181.27C60.4732 181.271 60.4496 181.303 60.4543 181.337L64.6206 214.43C64.6206 214.43 64.6331 214.461 64.6456 214.47L144.279 270.7C144.331 270.739 144.397 270.676 144.362 270.622L86.5762 179.94C86.5762 179.94 86.5465 179.911 86.5253 179.915L86.5277 179.91Z" stroke="#E65251" stroke-width="0.7" stroke-miterlimit="10"/>
<path d="M60.4865 181.27L86.5144 179.91C86.541 179.909 86.5653 179.89 86.5677 179.862L100.668 100.05C100.668 100.05 100.667 100.014 100.651 99.9973L83.3492 82.2217C83.3265 82.1989 83.2944 82.1981 83.2701 82.2169L36.8656 122.005C36.8452 122.022 36.8413 122.047 36.8507 122.07L60.4294 181.229C60.4387 181.253 60.4622 181.266 60.4849 181.266L60.4865 181.27Z" stroke="#E65251" stroke-width="0.7" stroke-miterlimit="10"/>
<path d="M192.321 287.6L215.465 227.62C215.489 227.555 215.404 227.512 215.365 227.564L190.235 260.821C190.235 260.821 190.222 260.845 190.224 260.862L192.21 287.585C192.216 287.646 192.299 287.658 192.322 287.604L192.321 287.6Z" stroke="#E65251" stroke-width="0.7" stroke-miterlimit="10"/>
<path d="M190.175 260.773L175.814 239.463C175.801 239.441 175.802 239.409 175.818 239.394L211.687 199.854C211.722 199.817 211.779 199.835 211.786 199.887L215.609 227.217C215.609 227.217 215.608 227.249 215.599 227.262L190.27 260.785C190.247 260.817 190.196 260.814 190.174 260.782L190.175 260.773Z" stroke="#E65251" stroke-width="0.7" stroke-miterlimit="10"/>
<path d="M175.912 239.288L211.751 199.778C211.751 199.778 211.769 199.753 211.766 199.735L208.611 135.57C208.61 135.52 208.555 135.497 208.517 135.526L187.646 152.558C187.646 152.558 187.627 152.58 187.624 152.594L175.806 239.239C175.798 239.297 175.869 239.328 175.907 239.285L175.912 239.288Z" stroke="#E65251" stroke-width="0.7" stroke-miterlimit="10"/>
<path d="M176.615 233.359L187.629 152.606C187.629 152.606 187.622 152.568 187.607 152.551L179.324 146.012C179.324 146.012 179.29 145.994 179.27 146.002L161.112 151.976C161.085 151.987 161.067 152.012 161.074 152.041L174.778 233.387C174.957 234.441 176.478 234.417 176.624 233.359L176.615 233.359Z" stroke="#E65251" stroke-width="0.7" stroke-miterlimit="10"/>
<path d="M187.666 152.541L208.576 135.479C208.596 135.462 208.604 135.436 208.593 135.409L187.175 86.9003C187.153 86.8455 187.072 86.8595 187.064 86.9174L179.302 145.957C179.302 145.957 179.308 145.995 179.324 146.012L187.598 152.541C187.619 152.56 187.65 152.557 187.67 152.54L187.666 152.541Z" stroke="#E65251" stroke-width="0.7" stroke-miterlimit="10"/>
<path d="M37.0288 121.867L83.2882 82.205C83.2882 82.205 83.3118 82.1729 83.3094 82.1557L77.4572 30.8535C77.451 30.7924 77.3703 30.7837 77.3452 30.8346L36.938 121.799C36.9105 121.856 36.9817 121.909 37.0288 121.867V121.867Z" stroke="#E65251" stroke-width="0.7" stroke-miterlimit="10"/>
<path d="M103.647 102.454L106.752 53.2086C106.754 53.1804 106.737 53.16 106.715 53.1506L96.2381 49.275C96.2068 49.2648 96.1754 49.2773 96.1637 49.3047L83.3288 82.148C83.3288 82.148 83.3249 82.195 83.3405 82.2115L100.672 100.016L103.549 102.493C103.584 102.525 103.643 102.501 103.647 102.454V102.454Z" stroke="#E65251" stroke-width="0.7" stroke-miterlimit="10"/>
<path d="M83.3973 81.966L96.1669 49.2895C96.1669 49.2895 96.1709 49.2425 96.1552 49.226L77.5504 30.7571C77.5121 30.7179 77.4431 30.7499 77.4517 30.8056L83.2869 81.951C83.2931 82.0122 83.3792 82.0232 83.3973 81.966V81.966Z" stroke="#E65251" stroke-width="0.7" stroke-miterlimit="10"/>
<path d="M77.601 30.8051L96.1706 49.2427C96.1706 49.2427 96.1831 49.2513 96.1901 49.2576L106.752 53.1631L186.812 86.5953C186.873 86.6212 186.92 86.5476 186.875 86.5021L154.697 54.634C154.697 54.634 154.683 54.6214 154.673 54.6206L77.6583 30.7097C77.6012 30.6916 77.5572 30.7636 77.601 30.8051V30.8051Z" stroke="#E65251" stroke-width="0.7" stroke-miterlimit="10"/>
<path d="M187.081 86.7564L179.301 145.953C179.301 145.953 179.28 145.993 179.261 146.001L161.089 151.977C161.089 151.977 161.049 151.979 161.035 151.966L103.663 102.585C103.663 102.585 103.642 102.556 103.644 102.538L106.751 53.2408C106.753 53.1993 106.793 53.1743 106.831 53.1908L187.051 86.6914C187.051 86.6914 187.087 86.7267 187.085 86.7549L187.081 86.7564Z" stroke="#E65251" stroke-width="0.7" stroke-miterlimit="10"/>
<path d="M64.5967 214.244L60.4443 181.278C60.4443 181.278 60.4412 181.27 60.4396 181.266L37.142 122.812C37.1155 122.746 37.0144 122.777 37.0331 122.847L57.1258 204.956C57.1258 204.956 57.132 204.972 57.1351 204.98L64.4924 214.29C64.5284 214.335 64.6029 214.305 64.5982 214.248L64.5967 214.244Z" stroke="#E65251" stroke-width="0.7" stroke-miterlimit="10"/>
</svg>
