<svg width="45" height="39" viewBox="0 0 45 39" fill="none" xmlns="http://www.w3.org/2000/svg">
<path d="M24.9088 31.7354H26.4157L30.6752 37.1085L29.321 38.2633L24.9088 31.7354Z" fill="#B72C2C"/>
<path d="M26.4156 31.7354L29.8452 31.9099L33.7549 37.8291L30.6751 37.1085L26.4156 31.7354Z" fill="#AA1B1B"/>
<path d="M29.3209 38.2632L32.5317 38.7899L33.7548 37.829L30.675 37.1084L29.3209 38.2632Z" fill="#D84545"/>
<path d="M22.7972 31.5825L24.9086 31.7353H26.4156L29.8451 31.9098L31.4757 31.9757L33.7548 29.0779L27.0492 27.9275L25.7534 26.8789L22.7972 31.5825Z" fill="#CC3737"/>
<path d="M22.7973 31.5826L19.215 27.2431L21.6326 24.7969L25.7535 26.8791L22.7973 31.5826Z" fill="#E65251"/>
<path d="M33.7549 29.078L28.2761 25.9324L21.6326 24.7969L25.7535 26.8791L27.0493 27.9276L33.7549 29.078Z" fill="#D84545"/>
<path d="M33.7549 29.078L36.3247 29.6892L36.5582 20.6318L33.7549 19.4087L28.2761 25.9323L33.7549 29.078Z" fill="#E76A72"/>
<path d="M36.3247 29.689C36.3247 29.689 41.1301 26.0775 41.4507 25.8153C41.7712 25.5532 43.2564 23.3983 43.2564 23.3983L36.5583 20.6316L36.3253 29.689H36.3247Z" fill="#AA1B1B"/>
<path d="M36.3247 29.6892L41.0432 27.4176L41.4507 25.8162L36.3247 29.6892Z" fill="#D84545"/>
<path d="M7.26044 20.4426L9.8377 25.8158L8.78916 27.752L12.6336 29.4267L12.9392 23.8063L7.26044 20.4426Z" fill="#E76A72"/>
<path d="M8.78911 27.752L7.2604 26.8787L6.7796 24.9344L7.2604 20.4426L9.83766 25.8158L8.78911 27.752Z" fill="#E65251"/>
<path d="M10.3979 28.4536L11.1477 30.8837C11.1477 30.8837 15.3413 32.4565 15.2978 32.3254C15.2543 32.1944 14.4238 29.0779 14.4238 29.0779L12.6329 29.4276L10.3979 28.4542V28.4536Z" fill="#CC3737"/>
<path d="M12.6337 29.4269L14.4245 29.0778L17.6137 28.1895L19.215 23.5002L12.9393 23.8065L12.6337 29.4269Z" fill="#E65251"/>
<path d="M17.6136 28.1897L19.2156 27.2431L21.6326 24.7969L25.7535 21.0984L32.4175 18.6081C32.4175 18.6081 28.7097 18.2148 28.5786 18.2148C28.4476 18.2148 19.2156 23.5005 19.2156 23.5005L17.6136 28.1891V28.1897Z" fill="#CC3737"/>
<path d="M14.4244 29.0776L17.6135 28.1894L19.2149 27.2427L22.0518 30.679L15.2978 32.3245L14.4244 29.0776Z" fill="#AA1B1B"/>
<path d="M6.77958 24.9344L1.93066 22.641L10.3979 12.3027L11.8322 15.7099L8.80338 18.9717L7.26037 20.4427L6.77958 24.9344Z" fill="#CC3737"/>
<path d="M10.3979 12.3027L4.35512 13.2345L2.80404 17.4498L1.93066 22.641L10.3979 12.3027Z" fill="#E65251"/>
<path d="M7.26044 20.4429L12.6336 16.176L14.4245 15.5063H16.1135L13.8126 17.778L12.9392 23.8065L7.26044 20.4429Z" fill="#EF848F"/>
<path d="M7.26044 20.4428L12.6336 16.1759L14.4245 15.5063H16.1135L18.3851 13.4092L22.0519 10.8462H20.8021L16.7831 13.9043L11.8323 15.71L7.26044 20.4428Z" fill="#AA1B1B"/>
<path d="M16.1134 15.5063L18.3851 13.4092L22.0519 10.8462L21.2686 13.7589L19.215 17.7195L12.9392 23.8065L13.8126 17.7779L16.1134 15.5063Z" fill="#E04C4C"/>
<path d="M19.215 17.7195L21.5015 16.9915L19.215 23.5002L12.9392 23.8064L19.215 17.7195Z" fill="#E76A72"/>
<path d="M21.5015 16.9918L30.6751 10.9924L28.578 18.2149L19.215 23.5005L21.5015 16.9918Z" fill="#E04C4C"/>
<path d="M32.4169 18.6079L33.7549 19.4086L28.2761 25.9322L21.6326 24.7967L25.7535 21.0982L32.4169 18.6079Z" fill="#B72C2C"/>
<path d="M43.2564 23.3984L42.7906 17.2462L35.4805 15.4187L29.1762 16.1554L28.578 18.2146L32.4169 18.6078L33.7549 19.4085L36.5583 20.6316L43.2564 23.3984Z" fill="#CC3737"/>
<path d="M42.7905 17.2463L44.0136 18.7688L43.2564 23.3985L42.7905 17.2463Z" fill="#AA1B1B"/>
<path d="M44.0137 18.7686L42.2955 9.85596L40.7227 10.1765L42.7906 17.2461L44.0137 18.7686Z" fill="#E65251"/>
<path d="M40.7226 10.1768L35.4805 15.4189L42.7905 17.2464L40.7226 10.1768Z" fill="#E76A72"/>
<path d="M40.7226 10.1767L34.0394 3.59473L42.2955 9.85621L40.7226 10.1767Z" fill="#EF848F"/>
<path d="M34.0394 3.59473L35.6842 10.1767H40.7226L34.0394 3.59473Z" fill="#E76A72"/>
<path d="M35.6842 10.1768L35.4805 15.4189L40.7226 10.1768H35.6842Z" fill="#EF848F"/>
<path d="M35.6842 10.1768L30.6751 10.9924L29.1761 16.1556L35.4805 15.4189L35.6842 10.1768Z" fill="#E65251"/>
<path d="M1.9307 22.641L0.314392 12.6226L3.59049 12.3027L4.35516 13.2345L2.80407 17.4498L1.9307 22.641Z" fill="#E76A72"/>
<path d="M3.59049 12.303L8.0462 5.10913L0.314392 12.6229L3.59049 12.303Z" fill="#EF848F"/>
<path d="M3.59045 12.303L8.04617 5.10913L10.3979 6.37634L15.4289 6.8857L11.2788 7.90506L10.3979 12.303L4.35512 13.2348L3.59045 12.303Z" fill="#ED5A5A"/>
<path d="M11.2788 7.90474L15.4289 6.88538L25.7535 3.75464L20.8021 10.846L10.3979 12.3027L11.2788 7.90474Z" fill="#E76A72"/>
<path d="M10.3979 12.3029L20.8021 10.8462L16.783 13.9043L11.8322 15.71L10.3979 12.3029Z" fill="#E65251"/>
<path d="M8.04614 5.10908L22.7973 0.958984L10.3979 6.37629L8.04614 5.10908Z" fill="#EF8E9C"/>
<path d="M22.7973 0.958984L25.7535 3.75491L15.4289 6.88565L10.3979 6.37629L22.7973 0.958984Z" fill="#EF848F"/>
<path d="M23.4756 1.60034C23.5445 1.66557 28.9718 2.05132 28.9718 2.05132L34.04 3.59495L25.7541 3.75521L23.4762 1.60096L23.4756 1.60034Z" fill="#E76A72"/>
<path d="M22.0519 10.846L26.9617 9.85586L30.6751 10.992L25.7535 3.75464L20.8021 10.846H22.0519Z" fill="#CC3737"/>
<path d="M34.0394 3.59473L35.6843 10.1767L30.6751 10.9923L25.7535 3.75499L34.0394 3.59473Z" fill="#D64949"/>
<path d="M19.215 17.7195L21.5015 16.9914L30.6751 10.9921L26.9617 9.85596L21.2686 13.7588L19.215 17.7195Z" fill="#EF848F"/>
<path d="M22.0519 10.8461L26.9617 9.85596L21.2686 13.7588L22.0519 10.8461Z" fill="#ED5A5A"/>
</svg>
