<svg width="1440" height="478" viewBox="0 0 1440 478" fill="none" xmlns="http://www.w3.org/2000/svg">
<path d="M1502.16 170.67L1406.52 143.408L1459.99 220.841L1502.16 170.67Z" stroke="#E65251" stroke-linecap="round" stroke-linejoin="round"/>
<path d="M1515.92 69.7066L1303.27 115.183L1439.59 1L1515.92 69.7066Z" stroke="#E65251" stroke-linecap="round" stroke-linejoin="round"/>
<path d="M826.943 438.797C826.6 438.452 826.162 438.217 825.685 438.121C825.207 438.025 824.712 438.072 824.262 438.258C823.812 438.444 823.428 438.759 823.157 439.163C822.886 439.568 822.741 440.044 822.741 440.53C822.741 441.017 822.886 441.493 823.157 441.898C823.428 442.302 823.812 442.617 824.262 442.803C824.712 442.989 825.207 443.036 825.685 442.94C826.162 442.844 826.6 442.609 826.943 442.263C827.401 441.803 827.658 441.18 827.658 440.53C827.658 439.881 827.401 439.258 826.943 438.797V438.797Z" fill="#E65251"/>
<path d="M1342.38 247.881C1342.04 247.536 1341.6 247.301 1341.13 247.205C1340.65 247.109 1340.15 247.156 1339.7 247.342C1339.25 247.528 1338.87 247.843 1338.6 248.247C1338.33 248.652 1338.18 249.128 1338.18 249.614C1338.18 250.101 1338.33 250.577 1338.6 250.982C1338.87 251.386 1339.25 251.701 1339.7 251.887C1340.15 252.073 1340.65 252.12 1341.13 252.024C1341.6 251.928 1342.04 251.693 1342.38 251.347C1342.84 250.887 1343.1 250.264 1343.1 249.614C1343.1 248.965 1342.84 248.342 1342.38 247.881V247.881Z" fill="#E65251"/>
<path d="M1303.27 117.585C1301.92 117.585 1300.83 116.49 1300.83 115.139C1300.83 113.788 1301.92 112.693 1303.27 112.693C1304.62 112.693 1305.72 113.788 1305.72 115.139C1305.72 116.49 1304.62 117.585 1303.27 117.585Z" fill="#E65251"/>
<path d="M1153.64 279.801C1152.29 279.801 1151.2 278.706 1151.2 277.355C1151.2 276.004 1152.29 274.909 1153.64 274.909C1154.99 274.909 1156.09 276.004 1156.09 277.355C1156.09 278.706 1154.99 279.801 1153.64 279.801Z" fill="#E65251"/>
<path d="M1145.11 353.977C1143.76 353.977 1142.66 352.882 1142.66 351.532C1142.66 350.181 1143.76 349.086 1145.11 349.086C1146.46 349.086 1147.56 350.181 1147.56 351.532C1147.56 352.882 1146.46 353.977 1145.11 353.977Z" fill="#E65251"/>
<path d="M1055.18 476.506C1054.84 476.161 1054.4 475.926 1053.92 475.83C1053.45 475.734 1052.95 475.781 1052.5 475.967C1052.05 476.153 1051.67 476.468 1051.39 476.872C1051.12 477.277 1050.98 477.753 1050.98 478.239C1050.98 478.726 1051.12 479.202 1051.39 479.607C1051.67 480.011 1052.05 480.326 1052.5 480.512C1052.95 480.698 1053.45 480.745 1053.92 480.649C1054.4 480.553 1054.84 480.318 1055.18 479.972C1055.64 479.512 1055.9 478.889 1055.9 478.239C1055.9 477.59 1055.64 476.967 1055.18 476.506V476.506Z" fill="#E65251"/>
<path d="M1180.35 467.055C1179 467.055 1177.9 465.96 1177.9 464.609C1177.9 463.258 1179 462.163 1180.35 462.163C1181.7 462.163 1182.8 463.258 1182.8 464.609C1182.8 465.96 1181.7 467.055 1180.35 467.055Z" fill="#E65251"/>
<path d="M1386.34 358.599C1384.45 358.599 1382.91 357.063 1382.91 355.169C1382.91 353.276 1384.45 351.74 1386.34 351.74C1388.24 351.74 1389.77 353.276 1389.77 355.169C1389.77 357.063 1388.24 358.599 1386.34 358.599Z" fill="#E65251"/>
<path d="M1281.55 475.671C1279.66 475.671 1278.12 474.136 1278.12 472.242C1278.12 470.348 1279.66 468.812 1281.55 468.812C1283.45 468.812 1284.98 470.348 1284.98 472.242C1284.98 474.136 1283.45 475.671 1281.55 475.671Z" fill="#E65251"/>
<path d="M1172.19 322.943C1171.84 322.598 1171.41 322.362 1170.93 322.266C1170.45 322.17 1169.96 322.218 1169.51 322.403C1169.06 322.589 1168.67 322.904 1168.4 323.309C1168.13 323.713 1167.99 324.189 1167.99 324.676C1167.99 325.163 1168.13 325.639 1168.4 326.043C1168.67 326.448 1169.06 326.763 1169.51 326.948C1169.96 327.134 1170.45 327.182 1170.93 327.086C1171.41 326.99 1171.84 326.754 1172.19 326.409C1172.65 325.948 1172.9 325.325 1172.9 324.676C1172.9 324.027 1172.65 323.404 1172.19 322.943V322.943Z" fill="#E65251"/>
<path d="M1112.98 379.186C1112.13 379.186 1111.44 378.498 1111.44 377.65C1111.44 376.801 1112.13 376.113 1112.98 376.113C1113.83 376.113 1114.52 376.801 1114.52 377.65C1114.52 378.498 1113.83 379.186 1112.98 379.186Z" fill="#E65251"/>
<path d="M1105.23 308.243C1104.39 308.243 1103.7 307.555 1103.7 306.706C1103.7 305.858 1104.39 305.17 1105.23 305.17C1106.08 305.17 1106.77 305.858 1106.77 306.706C1106.77 307.555 1106.08 308.243 1105.23 308.243Z" fill="#E65251"/>
<path d="M1111.79 394.304C1110.94 394.304 1110.25 393.616 1110.25 392.768C1110.25 391.919 1110.94 391.231 1111.79 391.231C1112.63 391.231 1113.32 391.919 1113.32 392.768C1113.32 393.616 1112.63 394.304 1111.79 394.304Z" fill="#E65251"/>
<path d="M1256.43 427.49C1255.58 427.49 1254.89 426.802 1254.89 425.953C1254.89 425.105 1255.58 424.417 1256.43 424.417C1257.28 424.417 1257.96 425.105 1257.96 425.953C1257.96 426.802 1257.28 427.49 1256.43 427.49Z" fill="#E65251"/>
<path d="M982.315 302.946C981.466 302.946 980.779 302.258 980.779 301.409C980.779 300.561 981.466 299.873 982.315 299.873C983.164 299.873 983.852 300.561 983.852 301.409C983.852 302.258 983.164 302.946 982.315 302.946Z" fill="#E65251"/>
<path d="M887.936 347.88C887.088 347.88 886.4 347.193 886.4 346.344C886.4 345.495 887.088 344.808 887.936 344.808C888.785 344.808 889.473 345.495 889.473 346.344C889.473 347.193 888.785 347.88 887.936 347.88Z" fill="#E65251"/>
<path d="M1406.53 145.854C1405.18 145.854 1404.08 144.759 1404.08 143.408C1404.08 142.057 1405.18 140.962 1406.53 140.962C1407.88 140.962 1408.97 142.057 1408.97 143.408C1408.97 144.759 1407.88 145.854 1406.53 145.854Z" fill="#E65251"/>
<path d="M1105.37 306.879L1145.11 351.532L1112.74 378.167L1153.31 276.152L1170.52 325.315L1256.56 426.102L1385.63 356.043L1459.99 220.842L1303.27 115.14" stroke="#E65251" stroke-linecap="round" stroke-linejoin="round"/>
<path d="M1385.63 356.042L1437.25 390.457L1330.31 510.908L1385.63 356.042Z" stroke="#E65251" stroke-linecap="round" stroke-linejoin="round"/>
<path d="M1437.26 390.458L1487.65 342.523L1385.63 356.043L1340.15 250.34L1303.27 115.14" stroke="#E65251" stroke-linecap="round" stroke-linejoin="round"/>
<path d="M1330.31 510.908L1281.14 471.577L1274.59 559.654L1330.31 510.908Z" stroke="#E65251" stroke-linecap="round" stroke-linejoin="round"/>
<path d="M1577.79 316.293L1558.33 222.992L1477.2 297.045L1385.63 356.042L1281.15 471.577L1180.35 464.608L1049.23 586.695" stroke="#E65251" stroke-linecap="round" stroke-linejoin="round"/>
<path d="M1515.9 69.625L1459.99 220.841L1340.15 250.339" stroke="#E65251" stroke-linecap="round" stroke-linejoin="round"/>
<path d="M1477.2 297.046L1340.15 250.34" stroke="#E65251" stroke-linecap="round" stroke-linejoin="round"/>
<path d="M982.045 301.544L955.408 336.377L923.043 346.615L887.802 345.792L1053.34 478.534L1049.23 586.695L1218.46 555.156L1281.15 471.578L1256.56 426.101L1340.15 250.34L1170.52 325.315" stroke="#E65251" stroke-linecap="round" stroke-linejoin="round"/>
<path d="M1053.34 478.534L1180.35 464.608L1218.46 555.156L1274.59 559.655" stroke="#E65251" stroke-linecap="round" stroke-linejoin="round"/>
<path d="M955.393 337.434C954.545 337.434 953.857 336.746 953.857 335.898C953.857 335.049 954.545 334.361 955.393 334.361C956.242 334.361 956.93 335.049 956.93 335.898C956.93 336.746 956.242 337.434 955.393 337.434Z" fill="#E65251"/>
<path d="M922.698 347.598C921.849 347.598 921.161 346.91 921.161 346.062C921.161 345.213 921.849 344.525 922.698 344.525C923.546 344.525 924.234 345.213 924.234 346.062C924.234 346.91 923.546 347.598 922.698 347.598Z" fill="#E65251"/>
<path d="M943.288 297.181C942.439 297.181 941.751 296.493 941.751 295.645C941.751 294.796 942.439 294.108 943.288 294.108C944.136 294.108 944.824 294.796 944.824 295.645C944.824 296.493 944.136 297.181 943.288 297.181Z" fill="#E65251"/>
<path d="M1010.72 369.254C1009.87 369.254 1009.18 368.567 1009.18 367.718C1009.18 366.869 1009.87 366.182 1010.72 366.182C1011.57 366.182 1012.26 366.869 1012.26 367.718C1012.26 368.567 1011.57 369.254 1010.72 369.254Z" fill="#E65251"/>
<path d="M1068.36 453.583C1067.51 453.583 1066.82 452.896 1066.82 452.047C1066.82 451.199 1067.51 450.511 1068.36 450.511C1069.21 450.511 1069.89 451.199 1069.89 452.047C1069.89 452.896 1069.21 453.583 1068.36 453.583Z" fill="#E65251"/>
<path d="M1068.49 451.912L1180.35 464.609L1032.85 512.138L1068.49 451.912Z" stroke="#E65251" stroke-linecap="round" stroke-linejoin="round"/>
<path d="M887.802 345.792L917.303 538.871L850.926 506.398L887.802 345.792Z" stroke="#E65251" stroke-linecap="round" stroke-linejoin="round"/>
<path d="M943.287 295.816L1010.89 367.719L1053.51 478.534L917.474 538.871L825.283 440.85L887.973 345.792L729 507.221" stroke="#E65251" stroke-linecap="round" stroke-linejoin="round"/>
<path d="M703.422 469.525L728.829 507.222L720.63 601.862L850.926 506.398L728.829 507.222L551 531.804" stroke="#E65251" stroke-linecap="round" stroke-linejoin="round"/>
<path d="M704.515 468.431C704.299 468.212 704.023 468.062 703.722 468.001C703.421 467.94 703.108 467.969 702.824 468.086C702.54 468.202 702.297 468.401 702.126 468.656C701.955 468.911 701.863 469.211 701.863 469.518C701.863 469.826 701.955 470.126 702.126 470.381C702.297 470.636 702.54 470.835 702.824 470.951C703.108 471.068 703.421 471.097 703.722 471.036C704.023 470.974 704.299 470.825 704.515 470.606C704.801 470.316 704.961 469.926 704.961 469.518C704.961 469.111 704.801 468.72 704.515 468.431V468.431Z" fill="#E65251"/>
<path d="M711.066 409.435C710.851 409.22 710.577 409.074 710.279 409.015C709.981 408.956 709.672 408.987 709.392 409.103C709.111 409.22 708.872 409.417 708.703 409.669C708.534 409.922 708.444 410.219 708.444 410.522C708.444 410.826 708.534 411.123 708.703 411.376C708.872 411.628 709.111 411.825 709.392 411.942C709.672 412.058 709.981 412.089 710.279 412.03C710.577 411.971 710.851 411.825 711.066 411.61C711.209 411.467 711.323 411.298 711.4 411.111C711.477 410.925 711.517 410.725 711.517 410.522C711.517 410.32 711.477 410.12 711.4 409.934C711.323 409.747 711.209 409.577 711.066 409.435V409.435Z" fill="#E65251"/>
<path d="M771.112 434.865C770.263 434.865 769.575 434.177 769.575 433.328C769.575 432.48 770.263 431.792 771.112 431.792C771.961 431.792 772.648 432.48 772.648 433.328C772.648 434.177 771.961 434.865 771.112 434.865Z" fill="#E65251"/>
<path d="M1180.35 464.608L1111.52 392.915L1256.56 426.101" stroke="#E65251" stroke-linecap="round" stroke-linejoin="round"/>
<path d="M703.422 469.525L771.434 433.476L709.973 410.528" stroke="#E65251" stroke-linecap="round" stroke-linejoin="round"/>
<path d="M-62.1562 170.67L33.4757 143.408L-19.9946 220.841L-62.1562 170.67Z" stroke="#E65251" stroke-linecap="round" stroke-linejoin="round"/>
<path d="M-75.9219 69.7066L136.73 115.183L0.411594 1L-75.9219 69.7066Z" stroke="#E65251" stroke-linecap="round" stroke-linejoin="round"/>
<path d="M613.057 438.797C613.4 438.452 613.838 438.217 614.315 438.121C614.793 438.025 615.288 438.072 615.738 438.258C616.188 438.444 616.572 438.759 616.843 439.163C617.114 439.568 617.259 440.044 617.259 440.53C617.259 441.017 617.114 441.493 616.843 441.898C616.572 442.302 616.188 442.617 615.738 442.803C615.288 442.989 614.793 443.036 614.315 442.94C613.838 442.844 613.4 442.609 613.057 442.263C612.599 441.803 612.342 441.18 612.342 440.53C612.342 439.881 612.599 439.258 613.057 438.797V438.797Z" fill="#E65251"/>
<path d="M97.6153 247.881C97.9585 247.536 98.3965 247.301 98.8738 247.205C99.3511 247.109 99.8461 247.156 100.296 247.342C100.746 247.528 101.131 247.843 101.402 248.247C101.673 248.652 101.817 249.128 101.817 249.614C101.817 250.101 101.673 250.577 101.402 250.982C101.131 251.386 100.746 251.701 100.296 251.887C99.8461 252.073 99.3511 252.12 98.8738 252.024C98.3965 251.928 97.9585 251.693 97.6153 251.347C97.1574 250.887 96.9004 250.264 96.9004 249.614C96.9004 248.965 97.1574 248.342 97.6153 247.881V247.881Z" fill="#E65251"/>
<path d="M136.727 117.585C138.078 117.585 139.173 116.49 139.173 115.139C139.173 113.788 138.078 112.693 136.727 112.693C135.376 112.693 134.281 113.788 134.281 115.139C134.281 116.49 135.376 117.585 136.727 117.585Z" fill="#E65251"/>
<path d="M286.358 279.801C287.709 279.801 288.804 278.706 288.804 277.355C288.804 276.004 287.709 274.909 286.358 274.909C285.007 274.909 283.912 276.004 283.912 277.355C283.912 278.706 285.007 279.801 286.358 279.801Z" fill="#E65251"/>
<path d="M294.89 353.977C296.241 353.977 297.336 352.882 297.336 351.532C297.336 350.181 296.241 349.086 294.89 349.086C293.539 349.086 292.444 350.181 292.444 351.532C292.444 352.882 293.539 353.977 294.89 353.977Z" fill="#E65251"/>
<path d="M384.819 476.506C385.162 476.161 385.6 475.926 386.077 475.83C386.554 475.734 387.049 475.781 387.5 475.967C387.95 476.153 388.334 476.468 388.605 476.872C388.876 477.277 389.021 477.753 389.021 478.239C389.021 478.726 388.876 479.202 388.605 479.607C388.334 480.011 387.95 480.326 387.5 480.512C387.049 480.698 386.554 480.745 386.077 480.649C385.6 480.553 385.162 480.318 384.819 479.972C384.361 479.512 384.104 478.889 384.104 478.239C384.104 477.59 384.361 476.967 384.819 476.506V476.506Z" fill="#E65251"/>
<path d="M259.649 467.055C261 467.055 262.095 465.96 262.095 464.609C262.095 463.258 261 462.163 259.649 462.163C258.298 462.163 257.203 463.258 257.203 464.609C257.203 465.96 258.298 467.055 259.649 467.055Z" fill="#E65251"/>
<path d="M53.658 358.599C55.552 358.599 57.0875 357.063 57.0875 355.169C57.0875 353.276 55.552 351.74 53.658 351.74C51.7639 351.74 50.2285 353.276 50.2285 355.169C50.2285 357.063 51.7639 358.599 53.658 358.599Z" fill="#E65251"/>
<path d="M158.449 475.671C160.343 475.671 161.878 474.136 161.878 472.242C161.878 470.348 160.343 468.812 158.449 468.812C156.555 468.812 155.02 470.348 155.02 472.242C155.02 474.136 156.555 475.671 158.449 475.671Z" fill="#E65251"/>
<path d="M267.813 322.943C268.156 322.598 268.594 322.362 269.071 322.266C269.548 322.17 270.043 322.218 270.493 322.403C270.944 322.589 271.328 322.904 271.599 323.309C271.87 323.713 272.014 324.189 272.014 324.676C272.014 325.163 271.87 325.639 271.599 326.043C271.328 326.448 270.944 326.763 270.493 326.948C270.043 327.134 269.548 327.182 269.071 327.086C268.594 326.99 268.156 326.754 267.813 326.409C267.355 325.948 267.098 325.325 267.098 324.676C267.098 324.027 267.355 323.404 267.813 322.943V322.943Z" fill="#E65251"/>
<path d="M327.021 379.186C327.869 379.186 328.557 378.498 328.557 377.65C328.557 376.801 327.869 376.113 327.021 376.113C326.172 376.113 325.484 376.801 325.484 377.65C325.484 378.498 326.172 379.186 327.021 379.186Z" fill="#E65251"/>
<path d="M334.765 308.243C335.614 308.243 336.302 307.555 336.302 306.706C336.302 305.858 335.614 305.17 334.765 305.17C333.916 305.17 333.229 305.858 333.229 306.706C333.229 307.555 333.916 308.243 334.765 308.243Z" fill="#E65251"/>
<path d="M328.214 394.304C329.063 394.304 329.751 393.616 329.751 392.768C329.751 391.919 329.063 391.231 328.214 391.231C327.366 391.231 326.678 391.919 326.678 392.768C326.678 393.616 327.366 394.304 328.214 394.304Z" fill="#E65251"/>
<path d="M183.572 427.49C184.42 427.49 185.108 426.802 185.108 425.953C185.108 425.105 184.42 424.417 183.572 424.417C182.723 424.417 182.035 425.105 182.035 425.953C182.035 426.802 182.723 427.49 183.572 427.49Z" fill="#E65251"/>
<path d="M457.685 302.946C458.534 302.946 459.221 302.258 459.221 301.409C459.221 300.561 458.534 299.873 457.685 299.873C456.836 299.873 456.148 300.561 456.148 301.409C456.148 302.258 456.836 302.946 457.685 302.946Z" fill="#E65251"/>
<path d="M552.064 347.88C552.912 347.88 553.6 347.193 553.6 346.344C553.6 345.495 552.912 344.808 552.064 344.808C551.215 344.808 550.527 345.495 550.527 346.344C550.527 347.193 551.215 347.88 552.064 347.88Z" fill="#E65251"/>
<path d="M33.4735 145.854C34.8244 145.854 35.9196 144.759 35.9196 143.408C35.9196 142.057 34.8244 140.962 33.4735 140.962C32.1225 140.962 31.0273 142.057 31.0273 143.408C31.0273 144.759 32.1225 145.854 33.4735 145.854Z" fill="#E65251"/>
<path d="M334.631 306.879L294.891 351.532L327.255 378.167L286.692 276.152L269.483 325.315L183.439 426.102L54.3726 356.043L-19.9941 220.842L136.729 115.14" stroke="#E65251" stroke-linecap="round" stroke-linejoin="round"/>
<path d="M54.3726 356.042L2.74609 390.457L109.687 510.908L54.3726 356.042Z" stroke="#E65251" stroke-linecap="round" stroke-linejoin="round"/>
<path d="M2.74495 390.458L-47.6523 342.523L54.3715 356.043L99.8519 250.34L136.728 115.14" stroke="#E65251" stroke-linecap="round" stroke-linejoin="round"/>
<path d="M109.688 510.908L158.856 471.577L165.407 559.654L109.688 510.908Z" stroke="#E65251" stroke-linecap="round" stroke-linejoin="round"/>
<path d="M-137.789 316.293L-118.331 222.992L-37.2034 297.045L54.3721 356.042L158.854 471.577L259.649 464.608L390.768 586.695" stroke="#E65251" stroke-linecap="round" stroke-linejoin="round"/>
<path d="M-75.8984 69.625L-19.9943 220.841L99.8529 250.339" stroke="#E65251" stroke-linecap="round" stroke-linejoin="round"/>
<path d="M-37.2031 297.046L99.8529 250.34" stroke="#E65251" stroke-linecap="round" stroke-linejoin="round"/>
<path d="M457.955 301.544L484.592 336.377L516.957 346.615L552.198 345.792L386.661 478.534L390.767 586.695L221.543 555.156L158.853 471.578L183.437 426.101L99.8516 250.34L269.481 325.315" stroke="#E65251" stroke-linecap="round" stroke-linejoin="round"/>
<path d="M386.663 478.534L259.649 464.608L221.544 555.156L165.406 559.655" stroke="#E65251" stroke-linecap="round" stroke-linejoin="round"/>
<path d="M484.607 337.434C485.455 337.434 486.143 336.746 486.143 335.898C486.143 335.049 485.455 334.361 484.607 334.361C483.758 334.361 483.07 335.049 483.07 335.898C483.07 336.746 483.758 337.434 484.607 337.434Z" fill="#E65251"/>
<path d="M517.302 347.598C518.151 347.598 518.839 346.91 518.839 346.062C518.839 345.213 518.151 344.525 517.302 344.525C516.454 344.525 515.766 345.213 515.766 346.062C515.766 346.91 516.454 347.598 517.302 347.598Z" fill="#E65251"/>
<path d="M496.712 297.181C497.561 297.181 498.249 296.493 498.249 295.645C498.249 294.796 497.561 294.108 496.712 294.108C495.864 294.108 495.176 294.796 495.176 295.645C495.176 296.493 495.864 297.181 496.712 297.181Z" fill="#E65251"/>
<path d="M429.279 369.254C430.127 369.254 430.815 368.567 430.815 367.718C430.815 366.869 430.127 366.182 429.279 366.182C428.43 366.182 427.742 366.869 427.742 367.718C427.742 368.567 428.43 369.254 429.279 369.254Z" fill="#E65251"/>
<path d="M371.642 453.583C372.491 453.583 373.178 452.896 373.178 452.047C373.178 451.199 372.491 450.511 371.642 450.511C370.793 450.511 370.105 451.199 370.105 452.047C370.105 452.896 370.793 453.583 371.642 453.583Z" fill="#E65251"/>
<path d="M371.506 451.912L259.648 464.609L407.153 512.138L371.506 451.912Z" stroke="#E65251" stroke-linecap="round" stroke-linejoin="round"/>
<path d="M552.198 345.792L522.697 538.871L589.074 506.398L552.198 345.792Z" stroke="#E65251" stroke-linecap="round" stroke-linejoin="round"/>
<path d="M496.883 295.816L429.277 367.719L386.66 478.534L522.696 538.871L614.886 440.85L552.197 345.792L711.17 507.221" stroke="#E65251" stroke-linecap="round" stroke-linejoin="round"/>
<path d="M736.578 469.525L711.171 507.222L719.37 601.862L589.074 506.398L711.171 507.222L889 531.804" stroke="#E65251" stroke-linecap="round" stroke-linejoin="round"/>
<path d="M735.485 468.431C735.701 468.212 735.977 468.062 736.278 468.001C736.579 467.94 736.892 467.969 737.176 468.086C737.46 468.202 737.703 468.401 737.874 468.656C738.045 468.911 738.137 469.211 738.137 469.518C738.137 469.826 738.045 470.126 737.874 470.381C737.703 470.636 737.46 470.835 737.176 470.951C736.892 471.068 736.579 471.097 736.278 471.036C735.977 470.974 735.701 470.825 735.485 470.606C735.199 470.316 735.039 469.926 735.039 469.518C735.039 469.111 735.199 468.72 735.485 468.431V468.431Z" fill="#E65251"/>
<path d="M728.934 409.435C729.149 409.22 729.423 409.074 729.721 409.015C730.019 408.956 730.328 408.987 730.608 409.103C730.889 409.22 731.128 409.417 731.297 409.669C731.466 409.922 731.556 410.219 731.556 410.522C731.556 410.826 731.466 411.123 731.297 411.376C731.128 411.628 730.889 411.825 730.608 411.942C730.328 412.058 730.019 412.089 729.721 412.03C729.423 411.971 729.149 411.825 728.934 411.61C728.791 411.467 728.677 411.298 728.6 411.111C728.523 410.925 728.483 410.725 728.483 410.522C728.483 410.32 728.523 410.12 728.6 409.934C728.677 409.747 728.791 409.577 728.934 409.435V409.435Z" fill="#E65251"/>
<path d="M668.888 434.865C669.737 434.865 670.425 434.177 670.425 433.328C670.425 432.48 669.737 431.792 668.888 431.792C668.039 431.792 667.352 432.48 667.352 433.328C667.352 434.177 668.039 434.865 668.888 434.865Z" fill="#E65251"/>
<path d="M259.648 464.608L328.483 392.915L183.438 426.101" stroke="#E65251" stroke-linecap="round" stroke-linejoin="round"/>
<path d="M736.578 469.525L668.566 433.476L730.027 410.528" stroke="#E65251" stroke-linecap="round" stroke-linejoin="round"/>
</svg>
