<svg width="180" height="216" viewBox="0 0 180 216" fill="none" xmlns="http://www.w3.org/2000/svg">
<path d="M-35.8152 70.6958L4.03146 59.3369L-18.2478 91.6007L-35.8152 70.6958Z" stroke="#E65251" stroke-width="0.7" stroke-linecap="round" stroke-linejoin="round"/>
<path d="M-41.5509 28.6277L47.0541 47.5763L-9.74529 0L-41.5509 28.6277Z" stroke="#E65251" stroke-width="0.7" stroke-linecap="round" stroke-linejoin="round"/>
<path d="M30.7564 102.867C30.8994 102.723 31.0819 102.625 31.2807 102.585C31.4796 102.545 31.6859 102.565 31.8734 102.643C32.0609 102.72 32.2213 102.851 32.3341 103.02C32.4469 103.188 32.5072 103.387 32.5072 103.589C32.5072 103.792 32.4469 103.991 32.3341 104.159C32.2213 104.328 32.0609 104.459 31.8734 104.536C31.6859 104.614 31.4796 104.634 31.2807 104.594C31.0819 104.554 30.8994 104.455 30.7564 104.312C30.5656 104.12 30.4585 103.86 30.4585 103.589C30.4585 103.319 30.5656 103.059 30.7564 102.867Z" fill="#E65251"/>
<path d="M47.0529 48.5773C47.6158 48.5773 48.0721 48.121 48.0721 47.5582C48.0721 46.9953 47.6158 46.5391 47.0529 46.5391C46.49 46.5391 46.0337 46.9953 46.0337 47.5582C46.0337 48.121 46.49 48.5773 47.0529 48.5773Z" fill="#E65251"/>
<path d="M109.399 116.167C109.962 116.167 110.418 115.711 110.418 115.148C110.418 114.585 109.962 114.129 109.399 114.129C108.836 114.129 108.38 114.585 108.38 115.148C108.38 115.711 108.836 116.167 109.399 116.167Z" fill="#E65251"/>
<path d="M112.954 147.074C113.517 147.074 113.973 146.618 113.973 146.055C113.973 145.492 113.517 145.036 112.954 145.036C112.391 145.036 111.935 145.492 111.935 146.055C111.935 146.618 112.391 147.074 112.954 147.074Z" fill="#E65251"/>
<path d="M35.1712 211.591C35.3142 211.447 35.4967 211.349 35.6955 211.309C35.8944 211.269 36.1007 211.289 36.2882 211.366C36.4757 211.444 36.6361 211.575 36.7489 211.744C36.8617 211.912 36.922 212.11 36.922 212.313C36.922 212.516 36.8617 212.714 36.7489 212.883C36.6361 213.052 36.4757 213.183 36.2882 213.26C36.1007 213.338 35.8944 213.357 35.6955 213.317C35.4967 213.277 35.3142 213.179 35.1712 213.035C34.9804 212.843 34.8733 212.584 34.8733 212.313C34.8733 212.043 34.9804 211.783 35.1712 211.591Z" fill="#E65251"/>
<path d="M150.424 198.128C150.567 197.984 150.75 197.886 150.949 197.846C151.148 197.806 151.354 197.826 151.541 197.903C151.729 197.98 151.889 198.112 152.002 198.28C152.115 198.449 152.175 198.647 152.175 198.85C152.175 199.053 152.115 199.251 152.002 199.42C151.889 199.588 151.729 199.719 151.541 199.797C151.354 199.874 151.148 199.894 150.949 199.854C150.75 199.814 150.567 199.716 150.424 199.572C150.234 199.38 150.126 199.121 150.126 198.85C150.126 198.579 150.234 198.32 150.424 198.128Z" fill="#E65251"/>
<path d="M98.2704 194.19C98.8333 194.19 99.2896 193.733 99.2896 193.17C99.2896 192.608 98.8333 192.151 98.2704 192.151C97.7075 192.151 97.2512 192.608 97.2512 193.17C97.2512 193.733 97.7075 194.19 98.2704 194.19Z" fill="#E65251"/>
<path d="M12.4408 148.999C13.23 148.999 13.8697 148.36 13.8697 147.571C13.8697 146.782 13.23 146.142 12.4408 146.142C11.6516 146.142 11.0118 146.782 11.0118 147.571C11.0118 148.36 11.6516 148.999 12.4408 148.999Z" fill="#E65251"/>
<path d="M56.1036 197.78C56.8928 197.78 57.5326 197.14 57.5326 196.351C57.5326 195.562 56.8928 194.922 56.1036 194.922C55.3144 194.922 54.6747 195.562 54.6747 196.351C54.6747 197.14 55.3144 197.78 56.1036 197.78Z" fill="#E65251"/>
<path d="M101.672 134.143C101.815 133.999 101.997 133.901 102.196 133.861C102.395 133.821 102.601 133.841 102.789 133.918C102.976 133.996 103.137 134.127 103.25 134.295C103.362 134.464 103.423 134.662 103.423 134.865C103.423 135.068 103.362 135.266 103.25 135.435C103.137 135.603 102.976 135.735 102.789 135.812C102.601 135.889 102.395 135.909 102.196 135.869C101.997 135.829 101.815 135.731 101.672 135.587C101.481 135.395 101.374 135.136 101.374 134.865C101.374 134.594 101.481 134.335 101.672 134.143Z" fill="#E65251"/>
<path d="M126.342 157.578C126.696 157.578 126.982 157.291 126.982 156.938C126.982 156.584 126.696 156.297 126.342 156.297C125.988 156.297 125.702 156.584 125.702 156.938C125.702 157.291 125.988 157.578 126.342 157.578Z" fill="#E65251"/>
<path d="M129.569 128.018C129.922 128.018 130.209 127.731 130.209 127.378C130.209 127.024 129.922 126.738 129.569 126.738C129.215 126.738 128.928 127.024 128.928 127.378C128.928 127.731 129.215 128.018 129.569 128.018Z" fill="#E65251"/>
<path d="M126.839 163.877C127.193 163.877 127.479 163.59 127.479 163.237C127.479 162.883 127.193 162.596 126.839 162.596C126.486 162.596 126.199 162.883 126.199 163.237C126.199 163.59 126.486 163.877 126.839 163.877Z" fill="#E65251"/>
<path d="M66.5715 177.704C66.9251 177.704 67.2117 177.418 67.2117 177.064C67.2117 176.71 66.9251 176.424 66.5715 176.424C66.2179 176.424 65.9313 176.71 65.9313 177.064C65.9313 177.418 66.2179 177.704 66.5715 177.704Z" fill="#E65251"/>
<path d="M159.786 213.67C160.14 213.67 160.426 213.384 160.426 213.03C160.426 212.677 160.14 212.39 159.786 212.39C159.432 212.39 159.146 212.677 159.146 213.03C159.146 213.384 159.432 213.67 159.786 213.67Z" fill="#E65251"/>
<path d="M4.03057 60.3559C4.59347 60.3559 5.04979 59.8996 5.04979 59.3368C5.04979 58.7739 4.59347 58.3176 4.03057 58.3176C3.46767 58.3176 3.01135 58.7739 3.01135 59.3368C3.01135 59.8996 3.46767 60.3559 4.03057 60.3559Z" fill="#E65251"/>
<path d="M129.513 127.45L112.954 146.055L126.44 157.153L109.538 114.647L102.368 135.132L66.5161 177.126L12.7385 147.935L-18.2477 91.601L47.0537 47.5583" stroke="#E65251" stroke-width="0.7" stroke-linecap="round" stroke-linejoin="round"/>
<path d="M12.7385 147.934L-8.77258 162.274L35.786 212.462L12.7385 147.934Z" stroke="#E65251" stroke-width="0.7" stroke-linecap="round" stroke-linejoin="round"/>
<path d="M-8.77298 162.274L-29.7719 142.301L12.7381 147.935L31.6883 103.892L47.0533 47.5583" stroke="#E65251" stroke-width="0.7" stroke-linecap="round" stroke-linejoin="round"/>
<path d="M35.7864 212.462L56.2731 196.074L59.0029 232.773L35.7864 212.462Z" stroke="#E65251" stroke-width="0.7" stroke-linecap="round" stroke-linejoin="round"/>
<path d="M-67.3289 131.372L-59.2212 92.4968L-25.4182 123.352L12.7383 147.934L56.2726 196.074L98.2703 193.17L152.903 244.04" stroke="#E65251" stroke-width="0.7" stroke-linecap="round" stroke-linejoin="round"/>
<path d="M-41.5411 28.5938L-18.2478 91.6004L31.6886 103.891" stroke="#E65251" stroke-width="0.7" stroke-linecap="round" stroke-linejoin="round"/>
<path d="M-25.4181 123.352L31.6886 103.892" stroke="#E65251" stroke-width="0.7" stroke-linecap="round" stroke-linejoin="round"/>
<path d="M35.7855 212.462L14.2744 236.02L-46.0333 298.371" stroke="#E65251" stroke-width="0.7" stroke-linecap="round" stroke-linejoin="round"/>
<path d="M180.898 125.227L191.997 139.74L205.482 144.006L220.166 143.663L151.192 198.973L152.903 244.04L82.3927 230.898L56.2722 196.074L66.5155 177.125L31.6881 103.892L102.367 135.131" stroke="#E65251" stroke-width="0.7" stroke-linecap="round" stroke-linejoin="round"/>
<path d="M151.193 198.973L98.2705 193.17L82.3933 230.898L59.0026 232.773" stroke="#E65251" stroke-width="0.7" stroke-linecap="round" stroke-linejoin="round"/>
<path d="M168.949 153.439C169.303 153.439 169.59 153.153 169.59 152.799C169.59 152.446 169.303 152.159 168.949 152.159C168.596 152.159 168.309 152.446 168.309 152.799C168.309 153.153 168.596 153.439 168.949 153.439Z" fill="#E65251"/>
<path d="M144.934 188.576C145.288 188.576 145.574 188.29 145.574 187.936C145.574 187.583 145.288 187.296 144.934 187.296C144.58 187.296 144.294 187.583 144.294 187.936C144.294 188.29 144.58 188.576 144.934 188.576Z" fill="#E65251"/>
<path d="M144.877 187.88L98.2701 193.17L159.73 212.974L144.877 187.88Z" stroke="#E65251" stroke-width="0.7" stroke-linecap="round" stroke-linejoin="round"/>
<path d="M197.118 122.84L168.949 152.8L151.192 198.973L207.873 224.113L246.286 183.271L220.165 143.663L286.404 210.926" stroke="#E65251" stroke-width="0.7" stroke-linecap="round" stroke-linejoin="round"/>
<path d="M98.2699 193.17L126.951 163.298L66.5155 177.125" stroke="#E65251" stroke-width="0.7" stroke-linecap="round" stroke-linejoin="round"/>
</svg>
