<svg width="78" height="62" viewBox="0 0 78 62" fill="none" xmlns="http://www.w3.org/2000/svg">
<path d="M46.2195 44.5352L44.6478 48.4645L48.5554 47.5937L46.2195 44.5352Z" fill="#E76A6A"/>
<path d="M46.2195 44.5352L49.1503 45.7461L48.5555 47.5937L46.2195 44.5352Z" fill="#F29191"/>
<path d="M49.1503 45.7461L50.5736 51.5654L49.6599 52.1815L48.5554 47.5937L49.1503 45.7461Z" fill="#E65251"/>
<path d="M48.5554 47.5938L44.6478 48.4646L48.1735 53.2648L49.6599 52.1815L48.5554 47.5938Z" fill="#CC3737"/>
<path d="M42.8638 36.3369L44.9662 38.6735L47.9918 45.2677L47.4844 45.0581L42.8638 36.3369Z" fill="#EF5E5E"/>
<path d="M42.8638 36.337L42.9485 32.0893L45.4278 29.4556L52.0176 30.4541L47.175 33.8945L44.9662 38.6735L42.8638 36.337Z" fill="#E76A6A"/>
<path d="M52.0176 30.4541L54.4317 40.8027L52.9308 40.9605L50.0502 31.8523L52.0176 30.4541Z" fill="#CC3737"/>
<path d="M50.0501 31.8523L47.175 33.8945L50.6935 43.8768L51.8833 41.2715L52.9308 40.9604L50.0501 31.8523Z" fill="#E65251"/>
<path d="M47.175 33.8945L46.3376 35.707L53.1009 51.948L53.4409 52.0951V50.5887L50.3824 44.8681L50.6935 43.8768L47.175 33.8945Z" fill="#CC3737"/>
<path d="M46.3377 35.707L44.9662 38.6736L47.9918 45.2678L49.1503 45.7462L50.5737 51.5655L51.2321 50.9283L53.1009 51.948L46.3377 35.707Z" fill="#E76A6A"/>
<path d="M59.8975 20.5989L56.4426 30.4541L59.1042 46.4999L60.4071 46.0645L61.71 47.7565L61.0304 27.5656L59.8975 20.5989Z" fill="#E76A6A"/>
<path d="M59.8975 20.5989L63.6919 18.4185L69.441 28.0467L61.0303 27.5656L59.8975 20.5989Z" fill="#F29191"/>
<path d="M61.0304 27.5657L66.9205 35.8347L67.2322 33.8946L69.0162 33.1726L61.0304 27.5657Z" fill="#AA1B1B"/>
<path d="M61.0304 27.5657L69.4411 28.0468L69.6958 32.9462L69.0162 33.1726L61.0304 27.5657Z" fill="#CC3737"/>
<path d="M61.0304 27.5657L66.9205 35.8347L66.6089 38.5532L65.6745 38.1852L63.154 40.5641L62.6728 48.7194L61.71 47.7566L61.0304 27.5657Z" fill="#E65251"/>
<path d="M66.6088 38.553L65.6744 38.1851L65.5328 42.362L65.9153 42.5175L66.6088 38.553Z" fill="#C34343"/>
<path d="M65.6745 38.1851L63.1539 40.564L65.5328 42.362L65.6745 38.1851Z" fill="#E76A6A"/>
<path d="M63.154 40.564L62.6729 48.7193L63.3803 49.6113L65.5329 42.3619L63.154 40.564Z" fill="#CC3737"/>
<path d="M65.5328 42.3621L65.9153 42.5176L64.2868 50.5179L63.3802 49.6114L65.5328 42.3621Z" fill="#AA1B1B"/>
<path d="M67.2322 33.8945L66.9206 35.8347L66.6089 38.5531L64.2869 50.5179L64.768 51.0136L68.4353 36.3019L67.2322 33.8945Z" fill="#E65251"/>
<path d="M67.2322 33.8944L69.0162 33.1724L69.6958 32.9461L71.9755 32.0256L68.4353 36.3018L67.2322 33.8944Z" fill="#E76A6A"/>
<path d="M68.4353 36.3018L74.1983 37.307L71.9755 32.0256L68.4353 36.3018Z" fill="#F29191"/>
<path d="M68.4353 36.3018L74.1984 37.307L67.2322 49.0878L65.4036 48.4645L68.4353 36.3018Z" fill="#E76A6A"/>
<path d="M65.4035 48.4646L64.7679 51.0136L66.4249 52.9676L66.4957 55.4876L67.3453 54.5532L67.2322 49.0879L65.4035 48.4646Z" fill="#CC3737"/>
<path d="M67.3454 54.5533L70.0638 51.9764L74.1983 37.3071L67.2322 49.088L67.3454 54.5533Z" fill="#AA1B1B"/>
<path d="M65.4036 56.4504L66.4957 55.4876L67.3454 54.5532L70.0638 51.9764L73.6603 48.4646L73.9151 51.9764L65.5329 59.1265L65.4036 56.4504Z" fill="#CC3737"/>
<path d="M65.5328 59.1264L67.9045 60.6986L77.5896 55.1335L73.9151 51.9763L65.5328 59.1264Z" fill="#AA1B1B"/>
<path d="M73.6603 48.4646L77.2707 50.6735L73.9151 51.9764L73.6603 48.4646Z" fill="#E76A6A"/>
<path d="M77.2707 50.6736L77.5896 55.1337L73.915 51.9765L77.2707 50.6736Z" fill="#E65251"/>
<path d="M73.6603 48.4646L77.4408 49.9939L77.2707 50.6735L73.6603 48.4646Z" fill="#EF8484"/>
<path d="M77.4408 49.9939L77.5897 55.1336L77.2708 50.6735L77.4408 49.9939Z" fill="#C34343"/>
<path d="M51.8833 41.2715L52.9308 40.9604L54.4317 40.8026L56.0178 40.564L55.3237 43.8277L52.4921 45.392L50.3824 44.868L50.6935 43.8767L51.8833 41.2715Z" fill="#F29191"/>
<path d="M56.0178 40.564L57.5047 47.3183C57.5047 47.3183 56.1309 47.7291 56.0886 47.757C56.0462 47.7849 55.3242 43.8277 55.3242 43.8277L56.0178 40.564V40.564Z" fill="#E65251"/>
<path d="M55.3237 43.8276L52.4921 45.392L54.333 48.6485L56.0886 47.7564L55.3237 43.8276Z" fill="#CC3737"/>
<path d="M50.3824 44.8679L52.4921 45.392L54.333 48.6484L53.6673 48.9634L53.441 50.5886L50.3824 44.8679Z" fill="#AA1B1B"/>
<path d="M46.4319 54.4963L48.1736 53.2648L49.6599 52.1815L50.5737 51.5655L51.2321 50.9282L53.1856 55.8349L48.5555 55.4736L46.4319 54.4963Z" fill="#E76A6A"/>
<path d="M46.4319 54.4963L47.7203 59.0557L49.5646 59.5374L47.8892 55.167L46.4319 54.4963Z" fill="#AA1B1B"/>
<path d="M47.8246 55.137L48.5555 55.4737L50.5737 59.6651L49.5646 59.5374L47.8246 55.137Z" fill="#CC3737"/>
<path d="M48.5554 55.4736L53.1856 55.8349L53.03 61.4491L50.5736 59.665L48.5554 55.4736Z" fill="#E65251"/>
<path d="M53.03 61.4491L56.0741 60.7974L53.1856 55.835L53.03 61.4491Z" fill="#AA1B1B"/>
<path d="M51.2321 50.9282L53.1008 51.9479L56.4142 53.3813L53.1856 55.8349L51.2321 50.9282Z" fill="#F29191"/>
<path d="M53.1855 55.835L56.4141 53.3813L56.8283 60.7093L56.074 60.7974L53.1855 55.835Z" fill="#E65251"/>
<path d="M56.7113 58.6419L59.6706 60.3869L58.8639 57.9796L56.6121 56.8879L56.7113 58.6419Z" fill="#AA1B1B"/>
<path d="M58.8639 57.9796L57.3909 55.8984L56.5697 56.1365L56.6121 56.888L58.8639 57.9796Z" fill="#E65251"/>
<path d="M62.1203 60.0543C62.1487 60.0119 64.57 58.9995 64.57 58.9995L61.356 58.6421L59.6711 60.3871L62.1209 60.0543H62.1203Z" fill="#AA1B1B"/>
<path d="M61.356 58.6421L58.8639 57.9797L59.6706 60.3871L61.356 58.6421Z" fill="#C34343"/>
<path d="M61.356 58.642L61.8795 54.624L64.57 58.9994L61.356 58.642Z" fill="#E65251"/>
<path d="M61.8795 54.624L58.8639 57.9797L61.356 58.642L61.8795 54.624Z" fill="#EF8484"/>
<path d="M61.8794 54.624L57.3909 55.8985L58.8638 57.9797L61.8794 54.624Z" fill="#E76A6A"/>
<path d="M55.6264 53.0407L56.1594 49.9231L53.6673 48.9636L53.4409 50.5888V52.0952L55.6264 53.0407Z" fill="#AA1B1B"/>
<path d="M53.6672 48.9635L56.0885 47.7565L57.5046 47.3177L59.1041 46.4999L60.407 46.0645L56.1593 49.923L53.6672 48.9635Z" fill="#E76A6A"/>
<path d="M60.4071 46.0645L61.71 47.7565L62.6728 48.7193L63.3803 49.6114L64.2868 50.5179L64.826 51.081L66.4249 52.9676L64.1029 53.3813L60.4071 46.0645Z" fill="#D35E5E"/>
<path d="M64.1029 53.3813L60.4071 46.0645L56.1594 49.923L64.1029 53.3813Z" fill="#F29191"/>
<path d="M63.2487 53.0101L56.5184 55.2312L56.4141 53.3814L55.6263 53.0407L56.1593 49.9231L63.2487 53.0101Z" fill="#E65251"/>
<path d="M63.2487 53.01L64.1029 53.3813L63.3803 57.0648L61.8795 54.624L56.5697 56.1366L56.5184 55.2311L63.2487 53.01Z" fill="#CC3737"/>
<path d="M64.2868 58.5388L65.4982 58.4167L65.4035 56.4503L66.4956 55.4875L66.4248 52.9675L64.1028 53.3812L63.3802 57.0647L64.2868 58.5388Z" fill="#AA1B1B"/>
<path d="M44.7978 37.2954L47.0421 42.9067L41.4619 41.6631L44.7978 37.2954Z" fill="#E76A6A"/>
<path d="M44.7977 37.2954L40.6124 39.0246L41.4619 41.6631L44.7977 37.2954Z" fill="#F29191"/>
<path d="M40.6124 39.0247L38.5799 47.3349L39.8847 48.2146L41.4619 41.6631L40.6124 39.0247Z" fill="#E65251"/>
<path d="M41.4619 41.6631L47.0421 42.9067L42.0073 49.7615L39.8847 48.2146L41.4619 41.6631Z" fill="#CC3737"/>
<path d="M49.5897 25.5881L46.5874 28.9248L42.2667 38.3416L42.9912 38.0423L49.5897 25.5881Z" fill="#EF5E5E"/>
<path d="M49.5897 25.5881L49.4687 19.5222L45.9282 15.7612L36.5178 17.1871L43.4331 22.1002L46.5874 28.9248L49.5897 25.5881Z" fill="#E76A6A"/>
<path d="M36.5178 17.1873L33.0705 31.9654L35.2137 32.1907L39.3274 19.184L36.5178 17.1873Z" fill="#CC3737"/>
<path d="M39.3274 19.1838L43.4331 22.1001L38.4086 36.3552L36.7096 32.6348L35.2137 32.1905L39.3274 19.1838Z" fill="#E65251"/>
<path d="M43.4331 22.1001L44.6289 24.6884L34.9708 47.881L34.4852 48.0912V45.94L38.8528 37.7707L38.4086 36.3551L43.4331 22.1001Z" fill="#CC3737"/>
<path d="M44.629 24.6882L46.5875 28.9245L42.2668 38.3414L40.6124 39.0245L38.5799 47.3347L37.6396 46.4247L34.9709 47.8808L44.629 24.6882Z" fill="#E76A6A"/>
<path d="M25.265 3.11353L30.1987 17.187L26.3979 40.101L24.5373 39.4792L22.6767 41.8955L23.6472 13.0622L25.265 3.11353Z" fill="#E76A6A"/>
<path d="M25.265 3.11374L19.8464 0L11.6365 13.7495L23.6472 13.0624L25.265 3.11374Z" fill="#F29191"/>
<path d="M23.6472 13.0625L15.2359 24.871L14.7909 22.1004L12.2432 21.0694L23.6472 13.0625Z" fill="#AA1B1B"/>
<path d="M23.6472 13.0625L11.6365 13.7496L11.2727 20.7461L12.2432 21.0694L23.6472 13.0625Z" fill="#CC3737"/>
<path d="M23.6472 13.0625L15.2359 24.871L15.681 28.753L17.0153 28.2275L20.6147 31.6247L21.3018 43.2708L22.6767 41.8958L23.6472 13.0625Z" fill="#E65251"/>
<path d="M15.681 28.7528L17.0153 28.2273L17.2175 34.192L16.6714 34.4142L15.681 28.7528Z" fill="#C34343"/>
<path d="M17.0154 28.2273L20.6147 31.6245L17.2176 34.192L17.0154 28.2273Z" fill="#E76A6A"/>
<path d="M20.6147 31.6245L21.3018 43.2706L20.2914 44.5444L17.2175 34.1921L20.6147 31.6245Z" fill="#CC3737"/>
<path d="M17.2175 34.1921L16.6713 34.4143L18.9968 45.839L20.2914 44.5445L17.2175 34.1921Z" fill="#AA1B1B"/>
<path d="M14.7909 22.1001L15.2359 24.8707L15.681 28.7527L18.9969 45.8389L18.3099 46.5466L13.0728 25.5379L14.7909 22.1001Z" fill="#E65251"/>
<path d="M14.7909 22.1001L12.2432 21.0691L11.2727 20.7458L8.01726 19.4314L13.0728 25.5379L14.7909 22.1001Z" fill="#E76A6A"/>
<path d="M13.0728 25.5379L4.84297 26.9733L8.01721 19.4314L13.0728 25.5379Z" fill="#F29191"/>
<path d="M13.0728 25.5381L4.84298 26.9735L14.7909 43.797L17.4022 42.9069L13.0728 25.5381Z" fill="#E76A6A"/>
<path d="M17.4022 42.9067L18.3098 46.5467L15.9437 49.3372L15.8426 52.9358L14.6292 51.6015L14.7908 43.7968L17.4022 42.9067Z" fill="#CC3737"/>
<path d="M14.6293 51.6015L10.7473 47.9217L4.84301 26.9734L14.7909 43.7968L14.6293 51.6015Z" fill="#AA1B1B"/>
<path d="M17.4022 54.3108L15.8426 52.9358L14.6292 51.6015L10.7472 47.9217L5.61126 42.9067L5.24742 47.9217L17.2175 58.1323L17.4022 54.3108Z" fill="#CC3737"/>
<path d="M17.2175 58.1322L13.8307 60.3774L1.66791e-05 52.4302L5.24744 47.9216L17.2175 58.1322Z" fill="#AA1B1B"/>
<path d="M5.61133 42.9067L0.455469 46.0611L5.24749 47.9217L5.61133 42.9067Z" fill="#E76A6A"/>
<path d="M0.455418 46.061L1.81951e-05 52.4302L5.24744 47.9216L0.455418 46.061Z" fill="#E65251"/>
<path d="M5.61133 42.9067L0.212644 45.0906L0.455469 46.0611L5.61133 42.9067Z" fill="#EF8484"/>
<path d="M0.21262 45.0906L4.47939e-05 52.4303L0.455444 46.0611L0.21262 45.0906Z" fill="#C34343"/>
<path d="M36.7097 32.6348L35.2137 32.1906L33.0705 31.9653L30.8054 31.6245L31.7966 36.2852L35.8403 38.5192L38.8529 37.7708L38.4087 36.3552L36.7097 32.6348Z" fill="#F29191"/>
<path d="M30.8054 31.6245L28.682 41.2699C28.682 41.2699 30.6437 41.8566 30.7043 41.8964C30.7648 41.9362 31.7958 36.2852 31.7958 36.2852L30.8054 31.6245V31.6245Z" fill="#E65251"/>
<path d="M31.7966 36.2852L35.8402 38.5192L33.2113 43.1695L30.7043 41.8956L31.7966 36.2852Z" fill="#CC3737"/>
<path d="M38.8529 37.7708L35.8403 38.5191L33.2114 43.1694L34.162 43.6193L34.4852 45.94L38.8529 37.7708Z" fill="#AA1B1B"/>
<path d="M44.4944 51.5204L42.0072 49.7617L39.8847 48.2148L38.5798 47.335L37.6395 46.425L34.8498 53.432L41.4619 52.916L44.4944 51.5204Z" fill="#E76A6A"/>
<path d="M44.4944 51.52L42.6545 58.0309L40.0208 58.7188L42.4133 52.4778L44.4944 51.52Z" fill="#AA1B1B"/>
<path d="M42.5056 52.4348L41.4619 52.9157L38.5798 58.9011L40.0208 58.7188L42.5056 52.4348Z" fill="#CC3737"/>
<path d="M41.4619 52.916L34.8499 53.4319L35.072 61.4491L38.5799 58.9015L41.4619 52.916Z" fill="#E65251"/>
<path d="M35.072 61.4491L30.725 60.5184L34.8499 53.4319L35.072 61.4491Z" fill="#AA1B1B"/>
<path d="M37.6394 46.425L34.9707 47.8812L30.2392 49.9281L34.8497 53.432L37.6394 46.425Z" fill="#F29191"/>
<path d="M34.8499 53.4318L30.2394 49.928L29.6478 60.3926L30.725 60.5183L34.8499 53.4318Z" fill="#E65251"/>
<path d="M29.815 57.4405L25.589 59.9324L26.741 56.4947L29.9567 54.9358L29.815 57.4405Z" fill="#AA1B1B"/>
<path d="M26.7411 56.4947L28.8445 53.5227L30.0172 53.8627L29.9567 54.9359L26.7411 56.4947Z" fill="#E65251"/>
<path d="M22.0908 59.4571C22.0502 59.3966 18.5925 57.9508 18.5925 57.9508L23.1823 57.4404L25.5883 59.9324L22.09 59.4571H22.0908Z" fill="#AA1B1B"/>
<path d="M23.1822 57.4405L26.741 56.4946L25.5889 59.9324L23.1822 57.4405Z" fill="#C34343"/>
<path d="M23.1823 57.4405L22.4347 51.7026L18.5925 57.9508L23.1823 57.4405Z" fill="#E65251"/>
<path d="M22.4346 51.7026L26.741 56.4947L23.1822 57.4405L22.4346 51.7026Z" fill="#EF8484"/>
<path d="M22.4347 51.7026L28.8445 53.5226L26.7411 56.4947L22.4347 51.7026Z" fill="#E76A6A"/>
<path d="M31.3643 49.4416L30.6032 44.9896L34.162 43.6194L34.4852 45.9402V48.0914L31.3643 49.4416Z" fill="#AA1B1B"/>
<path d="M34.162 43.6195L30.7043 41.8958L28.6821 41.2692L26.3979 40.1013L24.5373 39.4795L30.6032 44.9896L34.162 43.6195Z" fill="#E76A6A"/>
<path d="M24.5374 39.4795L22.6768 41.8958L21.3018 43.2708L20.2915 44.5446L18.997 45.8391L18.2271 46.6432L15.9437 49.3374L19.2597 49.9281L24.5374 39.4795Z" fill="#D35E5E"/>
<path d="M19.2596 49.9281L24.5373 39.4795L30.6031 44.9896L19.2596 49.9281Z" fill="#F29191"/>
<path d="M20.4793 49.3975L30.0904 52.5694L30.2393 49.9278L31.3643 49.4413L30.6031 44.9893L20.4793 49.3975Z" fill="#E65251"/>
<path d="M20.4793 49.3977L19.2596 49.9279L20.2915 55.1881L22.4347 51.7026L30.0172 53.8625L30.0905 52.5696L20.4793 49.3977Z" fill="#CC3737"/>
<path d="M18.9968 57.2933L17.2668 57.119L17.4022 54.3109L15.8425 52.936L15.9436 49.3374L19.2596 49.9281L20.2914 55.1883L18.9968 57.2933Z" fill="#AA1B1B"/>
</svg>
