<svg width="563" height="379" viewBox="0 0 563 379" fill="none" xmlns="http://www.w3.org/2000/svg">
<path d="M-122.617 328.012L-17.5641 261.741L19.0636 377.95L-122.617 328.012Z" fill="#B72C2C"/>
<path d="M-120.605 327.746L18.6611 377.652L-74.7195 474.245L-120.605 327.746Z" fill="#AA1B1B"/>
<path d="M-17.5642 261.741L52.4712 340.625L18.661 377.652L-17.5642 261.741Z" fill="#EF848F"/>
<path d="M-17.5642 261.741L16.246 239.203L52.4712 340.625L-17.5642 261.741Z" fill="#D64949"/>
<path d="M16.2461 239.203L84.6715 314.867L52.4713 340.625L16.2461 239.203Z" fill="#AA1B1B"/>
<path d="M16.2461 239.203L100.772 285.085L84.6715 314.867L16.2461 239.203Z" fill="#EF848F"/>
<path d="M84.6714 314.867L150.682 310.303L100.771 285.084L84.6714 314.867Z" fill="#D64949"/>
<path d="M88.9619 372.549L18.6609 377.652L52.4711 340.625L88.9619 372.549Z" fill="#D64949"/>
<path d="M52.4712 340.625L84.6714 314.867L88.9782 372.573L52.4712 340.625Z" fill="#CC3737"/>
<path d="M84.6714 314.867L125.727 369.603L150.682 310.303L84.6714 314.867Z" fill="#AA1B1B"/>
<path d="M84.6714 314.867L88.9621 372.549L125.727 369.603L84.6714 314.867Z" fill="#AA1B1B"/>
<path d="M150.682 310.303L125.727 369.603L236.552 390.258L150.682 310.303Z" fill="#CC3737"/>
<path d="M125.727 369.603L110.432 460.561L236.552 390.257L125.727 369.603Z" fill="#CC3737"/>
<path d="M150.682 310.303L233.863 319.423L236.552 390.258L150.682 310.303Z" fill="#EF848F"/>
<path d="M150.682 310.303L223.937 301.988L233.863 319.423L150.682 310.303Z" fill="#EF848F"/>
<path d="M-32.4567 150.66L16.2461 239.203L-50.5693 230.349L-32.4567 150.66Z" fill="#EF848F"/>
<path d="M-50.5693 230.349L16.2461 239.203L-17.5641 261.741L-50.5693 230.349Z" fill="#CC3737"/>
<path d="M16.246 239.203L-32.4568 150.66L46.0312 169.978L16.246 239.203Z" fill="#B72C2C"/>
<path d="M46.0313 169.979L100.772 285.084L16.2461 239.203L46.0313 169.979Z" fill="#EF848F"/>
<path d="M100.771 285.084L195.762 263.351L150.682 310.303L100.771 285.084Z" fill="#E04C4C"/>
<path d="M195.762 263.351L223.937 301.988L150.682 310.303L195.762 263.351Z" fill="#CC3737"/>
<path d="M46.0312 169.979L70.1813 81.4355L-32.4568 150.66L46.0312 169.979Z" fill="#EF848F"/>
<path d="M18.6609 377.652L88.6963 410.655L40.396 486.319L18.6609 377.652Z" fill="#D64949"/>
<path d="M18.6609 377.652L88.9619 372.549L88.6963 410.655L18.6609 377.652Z" fill="#EF848F"/>
<path d="M-69.0845 51.6526L70.1814 81.4352L-32.4568 150.66L-69.0845 51.6526Z" fill="#EF848F"/>
<path d="M-69.0845 51.6527L-19.0937 6.65674L70.1814 81.4354L-69.0845 51.6527Z" fill="#AA1B1B"/>
<path d="M19.0636 377.451L42.61 486.319L-74.7195 474.245L19.0636 377.451Z" fill="#EF848F"/>
<path d="M88.6963 410.655L125.727 369.603L88.9619 372.549L88.6963 410.655Z" fill="#EF848F"/>
<path d="M46.0312 169.979L195.762 263.351L100.772 285.084L46.0312 169.979Z" fill="#CC3737"/>
<path d="M88.6963 410.655L110.431 460.561L125.727 369.603L88.6963 410.655Z" fill="#AA1B1B"/>
<path d="M233.863 319.423L322.953 358.937L236.552 390.258L233.863 319.423Z" fill="#CC3737"/>
<path d="M342.273 232.49L233.863 319.423L322.953 358.937L342.273 232.49Z" fill="#E04C4C"/>
<path d="M223.937 301.988L342.273 232.49L233.863 319.423L223.937 301.988Z" fill="#CC3737"/>
<path d="M322.953 358.937L366.423 337.671L342.273 232.49L322.953 358.937Z" fill="#EF848F"/>
<path d="M342.273 232.49L446.384 338.21L366.423 337.671L342.273 232.49Z" fill="#CC3737"/>
<path d="M366.423 337.671L451.753 400.191L446.384 338.21L366.423 337.671Z" fill="#EF848F"/>
<path d="M322.953 358.938L283.773 419.235L236.552 390.258L322.953 358.938Z" fill="#AA1B1B"/>
<path d="M350.323 432.654L283.773 419.235L322.953 358.938L350.323 432.654Z" fill="#EF848F"/>
<path d="M322.953 358.938L329.997 378.86L350.323 432.654L366.423 337.671L322.953 358.938Z" fill="#CC3737"/>
<path d="M451.754 400.191L350.323 432.654L366.423 337.671L451.754 400.191Z" fill="#AA1B1B"/>
<path d="M446.384 338.21L562.844 354.309L451.754 400.19L446.384 338.21Z" fill="#CC3737"/>
<path d="M451.754 400.19L438.874 448.213L493.614 467.531L562.844 354.309L451.754 400.19Z" fill="#E04C4C"/>
<path d="M225.547 290.719L207.837 260.132L273.043 256.912L225.547 290.719Z" fill="#E04C4C"/>
<path d="M446.988 304.87L408.348 204.663L486.828 260.196L446.988 304.87Z" fill="#E04C4C"/>
<path d="M487.979 179.638L487.174 200.566L461.414 188.492L487.979 179.638Z" fill="#CC3737"/>
<path d="M60.5212 163.265L84.7519 77.8936L131.837 99.6188L60.5212 163.265Z" fill="#E04C4C"/>
<path d="M376.888 219.885L392.988 260.132L356.425 228.812L376.888 219.885Z" fill="#CC3737"/>
<path d="M475.099 175.613L511.324 161.124L492.004 148.245L475.099 175.613Z" fill="#CC3737"/>
<path d="M16.2461 0L82.2565 56.0799L111.237 0H16.2461Z" fill="#CC3737"/>
<path d="M216.765 241.481L249.359 231.83L234.805 214.177L216.765 241.481Z" fill="#CC3737"/>
<path d="M112.525 128.597L139.082 102.034L175.307 115.315L112.525 128.597Z" fill="#CC3737"/>
<path d="M62.1311 169.174L182.882 185.804L167.852 218.54L62.1311 169.174Z" fill="#CC3737"/>
</svg>
