<svg width="259" height="323" viewBox="0 0 259 323" fill="none" xmlns="http://www.w3.org/2000/svg">
<path d="M172.191 179.871L158.102 100.123C158.093 100.078 158.042 100.058 158.008 100.085L97.7184 151.978C97.7184 151.978 97.7012 151.998 97.7005 152.012L82.998 239.294C82.9911 239.345 83.0452 239.381 83.0882 239.352L172.173 179.927C172.173 179.927 172.201 179.893 172.197 179.869L172.191 179.871Z" stroke="#E65251" stroke-width="0.7" stroke-miterlimit="10"/>
<path d="M171.971 180.06L82.9841 239.42C82.9841 239.42 82.9716 239.429 82.9685 239.437L68.5527 260.828C68.5527 260.828 68.5449 260.848 68.5418 260.856L66.5415 287.75C66.5377 287.794 66.58 287.825 66.6183 287.808L114.221 270.87C114.221 270.87 114.244 270.857 114.249 270.845L172.051 180.133C172.086 180.079 172.024 180.018 171.968 180.055L171.971 180.06Z" stroke="#E65251" stroke-width="0.7" stroke-miterlimit="10"/>
<path d="M172.231 179.91L198.249 181.27C198.285 181.271 198.309 181.303 198.304 181.337L194.138 214.43C194.138 214.43 194.125 214.461 194.113 214.47L114.479 270.7C114.427 270.739 114.362 270.676 114.397 270.622L172.182 179.94C172.182 179.94 172.212 179.911 172.233 179.915L172.231 179.91Z" stroke="#E65251" stroke-width="0.7" stroke-miterlimit="10"/>
<path d="M198.272 181.27L172.244 179.91C172.217 179.909 172.193 179.89 172.191 179.862L158.091 100.05C158.091 100.05 158.091 100.014 158.107 99.9973L175.409 82.2217C175.432 82.1989 175.464 82.1981 175.488 82.2169L221.893 122.005C221.913 122.022 221.917 122.047 221.908 122.07L198.329 181.229C198.32 181.253 198.296 181.266 198.273 181.266L198.272 181.27Z" stroke="#E65251" stroke-width="0.7" stroke-miterlimit="10"/>
<path d="M66.4377 287.6L43.2935 227.62C43.2692 227.555 43.3545 227.512 43.393 227.564L68.5235 260.821C68.5235 260.821 68.5368 260.845 68.5345 260.862L66.5481 287.585C66.5419 287.646 66.4597 287.658 66.4361 287.604L66.4377 287.6Z" stroke="#E65251" stroke-width="0.7" stroke-miterlimit="10"/>
<path d="M68.5838 260.773L82.9441 239.463C82.9574 239.441 82.9565 239.409 82.9401 239.394L47.0717 199.854C47.0364 199.817 46.9793 199.835 46.9723 199.887L43.1498 227.217C43.1498 227.217 43.1506 227.249 43.1592 227.262L68.4882 260.785C68.5118 260.817 68.5627 260.814 68.5846 260.782L68.5838 260.773Z" stroke="#E65251" stroke-width="0.7" stroke-miterlimit="10"/>
<path d="M82.8462 239.288L47.0069 199.778C47.0069 199.778 46.9896 199.753 46.992 199.735L50.1469 135.57C50.1484 135.52 50.2032 135.497 50.2417 135.526L71.1127 152.558C71.1127 152.558 71.1315 152.58 71.1347 152.594L82.9519 239.239C82.9606 239.297 82.8894 239.328 82.8517 239.285L82.8462 239.288Z" stroke="#E65251" stroke-width="0.7" stroke-miterlimit="10"/>
<path d="M82.1438 233.359L71.1296 152.606C71.1296 152.606 71.1359 152.568 71.1515 152.551L79.4342 146.012C79.4342 146.012 79.4686 145.994 79.4882 146.002L97.6462 151.976C97.6737 151.987 97.6909 152.012 97.6839 152.041L83.9807 233.387C83.8011 234.441 82.2806 234.417 82.1343 233.359L82.1438 233.359Z" stroke="#E65251" stroke-width="0.7" stroke-miterlimit="10"/>
<path d="M71.0919 152.541L50.1825 135.479C50.1621 135.462 50.1542 135.436 50.1652 135.409L71.5833 86.9003C71.6052 86.8455 71.6859 86.8595 71.6946 86.9174L79.4561 145.957C79.4561 145.957 79.4498 145.995 79.4342 146.012L71.1601 152.541C71.139 152.56 71.1084 152.557 71.088 152.54L71.0919 152.541Z" stroke="#E65251" stroke-width="0.7" stroke-miterlimit="10"/>
<path d="M221.73 121.867L175.47 82.205C175.47 82.205 175.447 82.1729 175.449 82.1557L181.301 30.8535C181.307 30.7924 181.388 30.7837 181.413 30.8346L221.82 121.799C221.848 121.856 221.777 121.909 221.73 121.867V121.867Z" stroke="#E65251" stroke-width="0.7" stroke-miterlimit="10"/>
<path d="M155.111 102.454L152.006 53.2086C152.004 53.1804 152.021 53.16 152.043 53.1506L162.52 49.275C162.552 49.2648 162.583 49.2773 162.595 49.3047L175.429 82.148C175.429 82.148 175.433 82.195 175.418 82.2115L158.086 100.016L155.209 102.493C155.174 102.525 155.115 102.501 155.111 102.454V102.454Z" stroke="#E65251" stroke-width="0.7" stroke-miterlimit="10"/>
<path d="M175.361 81.966L162.591 49.2895C162.591 49.2895 162.587 49.2425 162.603 49.226L181.208 30.7571C181.246 30.7179 181.315 30.7499 181.307 30.8056L175.471 81.951C175.465 82.0122 175.379 82.0232 175.361 81.966V81.966Z" stroke="#E65251" stroke-width="0.7" stroke-miterlimit="10"/>
<path d="M181.157 30.8051L162.588 49.2427C162.588 49.2427 162.575 49.2513 162.568 49.2576L152.007 53.1631L71.946 86.5953C71.8857 86.6212 71.8379 86.5476 71.8832 86.5021L104.061 54.634C104.061 54.634 104.076 54.6214 104.085 54.6206L181.1 30.7097C181.157 30.6916 181.201 30.7636 181.157 30.8051V30.8051Z" stroke="#E65251" stroke-width="0.7" stroke-miterlimit="10"/>
<path d="M71.6772 86.7564L79.4577 145.953C79.4577 145.953 79.4781 145.993 79.4977 146.001L97.669 151.977C97.669 151.977 97.7089 151.979 97.723 151.966L155.096 102.585C155.096 102.585 155.116 102.556 155.115 102.538L152.007 53.2408C152.006 53.1993 151.966 53.1743 151.927 53.1908L71.7076 86.6914C71.7076 86.6914 71.6709 86.7267 71.6733 86.7549L71.6772 86.7564Z" stroke="#E65251" stroke-width="0.7" stroke-miterlimit="10"/>
<path d="M194.162 214.244L198.314 181.278C198.314 181.278 198.317 181.27 198.319 181.266L221.616 122.812C221.643 122.746 221.744 122.777 221.725 122.847L201.633 204.956C201.633 204.956 201.626 204.972 201.623 204.98L194.266 214.29C194.23 214.335 194.155 214.305 194.16 214.248L194.162 214.244Z" stroke="#E65251" stroke-width="0.7" stroke-miterlimit="10"/>
</svg>
