<svg width="58" height="58" viewBox="0 0 58 58" fill="none" xmlns="http://www.w3.org/2000/svg">
<path d="M47.7469 9.29028H9.28992V47.7473H47.7469V9.29028Z" fill="#E65251"/>
<path d="M48.7653 0.00012207L47.7469 9.29027L57.0369 8.27203L48.7653 0.00012207Z" fill="#FB9897"/>
<path d="M8.27157 0L9.28997 9.29015L0 8.27191L8.27157 0Z" fill="#DE3736"/>
<path d="M48.7653 57.0375L47.7469 47.7473L57.0369 48.7655L48.7653 57.0375Z" fill="#F27B79"/>
<path d="M8.27157 57.0375L9.28997 47.7473L0 48.7655L8.27157 57.0375Z" fill="#EB6160"/>
<path d="M8.27148 0.00012207H48.7653L47.7469 9.29027H9.28989L8.27148 0.00012207Z" fill="#F27B79"/>
<path d="M57.037 8.27185V48.7657L47.7468 47.7473V9.29025L57.037 8.27185Z" fill="#DE3736"/>
<path d="M48.7654 57.0377H8.27161L9.29001 47.7476H47.747L48.7654 57.0377Z" fill="#DE3736"/>
<path d="M0 48.7658V8.27197L9.29013 9.29037V47.7474L0 48.7658Z" fill="#FB9897"/>
</svg>
