<svg width="136" height="92" viewBox="0 0 136 92" fill="none" xmlns="http://www.w3.org/2000/svg">
<path d="M21.2706 28.3983C20.9517 28.2322 20.5968 28.1498 20.2366 28.1564L12.0762 28.3186C10.076 28.3585 9.20944 30.8677 10.7578 32.1343L43.6015 59.9901V41.8152C43.6015 41.0124 21.2706 28.397 21.2706 28.397V28.3983Z" fill="#D4E8F3"/>
<path d="M112.512 57.817L124.503 64.0384C124.822 64.2045 125.177 64.2869 125.537 64.2802L133.697 64.1181C135.697 64.0782 136.564 61.569 135.016 60.3024L111.352 40.9553V55.9085C111.352 56.7113 111.8 57.4476 112.512 57.817Z" fill="#D4E8F3"/>
<path d="M93.8001 20.4944L57.5845 20.4944C45.2339 20.4944 35.2218 30.5065 35.2218 42.8571V48.6598C35.2218 61.0104 45.2339 71.0225 57.5845 71.0225H93.8001C106.151 71.0225 116.163 61.0104 116.163 48.6598V42.8571C116.163 30.5065 106.151 20.4944 93.8001 20.4944Z" fill="#FFFFFC"/>
<path d="M110.275 42.3508V49.1662C110.275 58.2809 102.818 65.7383 93.7031 65.7383C93.1157 65.7383 92.5535 65.5043 92.1375 65.0897L86.5515 59.501C86.0172 58.9667 85.2928 58.6663 84.5379 58.6663H66.8455C66.0906 58.6663 65.3663 58.9667 64.832 59.501L59.2459 65.0897C58.8313 65.5043 58.2678 65.7383 57.6803 65.7383C48.5656 65.7383 41.1083 58.2809 41.1083 49.1662V42.3508C41.1083 33.2388 48.5656 25.7814 57.6803 25.7814C58.2678 25.7814 58.8299 26.014 59.2459 26.43L64.9901 32.1742C65.4234 32.6075 66.0095 32.8494 66.6209 32.8494H84.7612C85.3726 32.8494 85.96 32.6061 86.392 32.1742L92.1362 26.43C92.5508 26.0153 93.1144 25.7814 93.7005 25.7814C102.816 25.7801 110.273 33.2375 110.273 42.3508H110.275Z" fill="#1B2D40"/>
<path d="M69.057 45.7585C69.057 50.5378 65.535 54.412 61.189 54.412C50.7532 53.9588 50.7559 37.5556 61.189 37.1037C65.5337 37.1037 69.057 40.9779 69.057 45.7572V45.7585Z" fill="#FFFFFC"/>
<path d="M98.1009 45.7585C98.1009 50.3252 94.7344 54.0279 90.5824 54.0279C80.6105 53.5947 80.6132 37.9211 90.5824 37.4891C94.7344 37.4891 98.1009 41.1919 98.1009 45.7585Z" fill="#FFFFFC"/>
<path d="M62.2947 1.99658L62.0262 3.26584L64.3906 4.4487L64.0663 3.09306L62.2947 1.99658Z" fill="#E65251"/>
<path d="M62.0264 3.26581L64.3908 4.44867L65.4168 7.51215L64.1475 7.1028L62.0264 3.26581Z" fill="#E65251"/>
<path d="M62.0264 3.26581L64.1475 7.1028L63.8871 7.56531L62.9447 7.62512L62.0264 3.26581Z" fill="#E65251"/>
<path d="M65.4234 7.51616L65.4168 7.71286H63.9694L63.8923 7.57065L64.1528 7.10681L65.4234 7.51616Z" fill="#E65251"/>
<path d="M63.9694 7.71289H62.9075L62.95 7.63049L63.8923 7.57068L63.9694 7.71289Z" fill="#E65251"/>
<path d="M57.7095 7.70759H57.3187L57.235 7.08426L57.4038 6.50214L57.7095 7.70759Z" fill="#E65251"/>
<path d="M62.9446 7.62512L62.9021 7.70752H59.0345L62.0263 3.26581L62.9446 7.62512Z" fill="#E65251"/>
<path d="M59.0345 7.70758L62.0263 3.26586L62.2947 1.99661L61.896 0.69812L60.026 2.37938L59.0345 7.70758Z" fill="#E65251"/>
<path d="M60.026 2.37939L59.0346 7.70759H57.7095L57.4038 6.50214L60.026 2.37939Z" fill="#E65251"/>
<path d="M61.8961 0.69812L64.0665 3.09308L62.2948 1.99661L61.8961 0.69812Z" fill="#E65251"/>
<path d="M66.8467 20.4944H56.1465L56.9107 8.58072C56.9466 8.02517 57.1818 7.60785 57.4609 7.60785L65.2944 7.60785C65.5655 7.60785 65.7968 7.99992 65.842 8.53686L66.8481 20.4944H66.8467Z" fill="#1B2D40"/>
<path d="M91.7094 2.30359L91.4463 3.5436L93.7562 4.69855L93.4385 3.37481L91.7094 2.30359Z" fill="#E65251"/>
<path d="M91.4463 3.54364L93.7562 4.69859L94.7583 7.69031L93.5183 7.29026L91.4463 3.54364Z" fill="#E65251"/>
<path d="M91.4463 3.54364L93.5183 7.29026L93.2631 7.74214L92.3434 7.80062L91.4463 3.54364Z" fill="#E65251"/>
<path d="M94.765 7.69424L94.7583 7.88562H93.3442L93.2684 7.7474L93.5236 7.29419L94.765 7.69424Z" fill="#E65251"/>
<path d="M93.3441 7.88566H92.3062L92.3487 7.80592L93.2684 7.74744L93.3441 7.88566Z" fill="#E65251"/>
<path d="M87.2319 7.88031H86.8505L86.7667 7.27293L86.9329 6.70276L87.2319 7.88031Z" fill="#E65251"/>
<path d="M92.3434 7.80054L92.3022 7.88029H88.525L91.4463 3.54224L92.3434 7.80054Z" fill="#E65251"/>
<path d="M88.525 7.8803L91.4463 3.54358L91.7095 2.30357L91.3187 1.03564L89.4926 2.67703L88.525 7.8803Z" fill="#E65251"/>
<path d="M89.494 2.67706L88.5251 7.88033H87.2319L86.9329 6.70278L89.494 2.67706Z" fill="#E65251"/>
<path d="M91.3187 1.03571L93.4386 3.37485L91.7095 2.30363L91.3187 1.03571Z" fill="#E65251"/>
<path d="M96.1871 20.5954H85.4868L86.251 8.68173C86.2869 8.12619 86.5222 7.70886 86.8013 7.70886L94.6347 7.70886C94.9059 7.70886 95.1371 8.10093 95.1823 8.63787L96.1884 20.5954H96.1871Z" fill="#1B2D40"/>
<path d="M42.2365 72.8765C43.535 74.0288 44.3244 75.6955 44.371 77.4339C44.3829 77.8605 45.0474 77.8618 45.0355 77.4339C44.985 75.5293 44.1344 73.6727 42.707 72.4074C42.388 72.1243 41.9162 72.5921 42.2365 72.8779V72.8765Z" fill="#FFFFFC"/>
<path d="M56.1239 79.3185C55.8713 82.4312 56.9718 85.4203 57.526 88.4399C57.6828 89.2905 57.7905 90.1477 57.8157 91.0129C57.8277 91.4396 58.4922 91.4409 58.4803 91.0129C58.3926 87.9056 57.223 84.9803 56.8548 81.9155C56.7512 81.0543 56.7179 80.1851 56.7884 79.3199C56.803 79.1405 56.6249 78.9876 56.4561 78.9876C56.2647 78.9876 56.1385 79.1405 56.1239 79.3199V79.3185Z" fill="#FFFFFC"/>
<path d="M69.6616 77.3143V80.9971C69.6616 81.425 70.3262 81.425 70.3262 80.9971V77.3143C70.3262 76.8863 69.6616 76.8863 69.6616 77.3143Z" fill="#FFFFFC"/>
<path d="M85.3605 78.4148C85.0441 79.9565 84.7916 81.5248 84.7863 83.1024C84.7823 84.5085 84.9936 85.904 85.3472 87.2637C85.5824 88.1687 85.8722 89.0592 86.1818 89.9404C86.2416 90.1092 86.4091 90.2221 86.5912 90.173C86.756 90.1278 86.8836 89.9337 86.8238 89.7636C86.3187 88.3229 85.8602 86.8543 85.621 85.3432C85.4083 83.9968 85.4123 82.6279 85.5598 81.2749C85.6582 80.3738 85.819 79.4794 86.0024 78.5915C86.0383 78.4161 85.9519 78.2327 85.7698 78.1822C85.605 78.137 85.3977 78.238 85.3605 78.4148Z" fill="#FFFFFC"/>
<path d="M95.177 76.2457L95.0468 80.8775C95.0348 81.3054 95.6994 81.3054 95.7113 80.8775L95.8416 76.2457C95.8535 75.8178 95.189 75.8178 95.177 76.2457Z" fill="#FFFFFC"/>
<path d="M108.725 74.3652C108.323 75.4338 107.984 76.5262 107.713 77.636C107.442 78.7458 107.218 79.9007 107.471 81.0583C107.606 81.6763 107.839 82.2665 108.07 82.8539C108.137 83.02 108.292 83.137 108.48 83.0865C108.639 83.0426 108.777 82.8459 108.712 82.6771C108.315 81.6697 107.94 80.661 108.026 79.5605C108.069 79.0116 108.196 78.4707 108.324 77.9364C108.452 77.4021 108.602 76.8505 108.764 76.3136C108.945 75.7169 109.147 75.1254 109.367 74.542C109.431 74.3745 109.297 74.1778 109.135 74.1326C108.949 74.0808 108.789 74.1964 108.725 74.3652Z" fill="#FFFFFC"/>
<path d="M8.14757 35.0609C7.14811 35.1964 6.22043 35.6988 5.33794 36.16C4.89004 36.3939 4.45943 36.6531 4.06869 36.9734C3.67794 37.2937 3.38289 37.6499 3.10113 38.0406C2.7795 38.4872 2.5097 38.9683 2.2399 39.4468C2.02991 39.8202 2.60406 40.1551 2.81405 39.7817C3.38688 38.7623 3.97964 37.7642 4.98972 37.1222C5.50141 36.7966 6.05297 36.5321 6.59921 36.2703C7.14546 36.0085 7.71695 35.7825 8.32433 35.7001C8.50243 35.6762 8.59945 35.4476 8.55692 35.2908C8.50375 35.0981 8.32699 35.0343 8.14757 35.0582V35.0609Z" fill="#FFFFFC"/>
<path d="M8.29101 23.7891C7.55604 23.3585 7.12543 22.581 6.89018 21.7769C6.65494 20.9728 6.58317 20.0412 6.67886 19.1706C6.6988 18.9925 6.51273 18.8384 6.3466 18.8384C6.15123 18.8384 6.03427 18.9912 6.01433 19.1706C5.85617 20.6167 6.09142 22.2992 6.98853 23.4861C7.25435 23.8383 7.57332 24.1387 7.95609 24.362C8.33886 24.5852 8.66049 24.0044 8.29101 23.7878V23.7891Z" fill="#FFFFFC"/>
<path d="M21.5444 22.6222C21.8766 21.9616 22.2993 21.3596 22.8681 20.8811C23.3652 20.4638 23.9885 20.1594 24.6079 19.9428C25.0305 19.7953 25.4624 19.6783 25.8957 19.572C26.329 19.4657 26.1349 18.8304 25.719 18.9314C24.2238 19.2955 22.7419 19.8444 21.7451 21.0778C21.442 21.4526 21.1869 21.8566 20.9702 22.2859C20.7788 22.6674 21.3517 23.0036 21.5444 22.6208V22.6222Z" fill="#FFFFFC"/>
<path d="M15.3283 21.7822V17.387C15.3283 16.9591 14.6638 16.9591 14.6638 17.387V21.7822C14.6638 22.2102 15.3283 22.2102 15.3283 21.7822Z" fill="#FFFFFC"/>
<path d="M5.78981 29.4044C4.19228 29.3632 2.59608 29.4656 1.0145 29.6981C0.836403 29.7247 0.739381 29.9493 0.781911 30.1075C0.833745 30.2975 1.01184 30.3653 1.19126 30.3401C2.71303 30.1181 4.25208 30.0317 5.78981 30.0703C6.21776 30.0809 6.21776 29.4164 5.78981 29.4057V29.4044Z" fill="#FFFFFC"/>
<path d="M108.066 18.9141C111.191 20.1474 113.623 22.658 115.424 25.4291C115.943 26.2279 116.417 27.0559 116.851 27.9038C117.047 28.2839 117.621 27.949 117.425 27.5689C116.628 26.0166 115.699 24.532 114.606 23.1684C113.514 21.8048 112.266 20.598 110.827 19.6291C110.017 19.0842 109.151 18.6323 108.243 18.2735C108.075 18.207 107.879 18.3452 107.834 18.5061C107.782 18.6948 107.899 18.849 108.066 18.9154V18.9141Z" fill="#FFFFFC"/>
<path d="M116.294 20.3628C117.695 21.7729 118.738 23.514 119.321 25.4159C119.446 25.8239 120.087 25.6498 119.961 25.2391C119.347 23.2296 118.245 21.3849 116.765 19.8923C116.463 19.588 115.993 20.0584 116.294 20.3628Z" fill="#FFFFFC"/>
</svg>
