<svg width="106" height="121" viewBox="0 0 106 121" fill="none" xmlns="http://www.w3.org/2000/svg">
<path d="M42.7577 120.887H35.7376C34.4584 120.887 33.7679 119.61 34.6018 118.784L36.4665 116.938C36.9185 116.491 37.1587 115.916 37.1386 115.327C36.9385 109.077 35.3573 102.914 32.4769 97.1636H53.7356L49.1006 105.114C46.6722 109.282 45.4363 113.879 45.4947 118.531C45.5114 119.828 44.2788 120.887 42.7544 120.887H42.7577Z" fill="#FFFFFC"/>
<path d="M64.717 120.719H71.737C73.0163 120.719 73.7068 119.441 72.8728 118.616L71.0082 116.769C70.5562 116.322 70.316 115.747 70.336 115.158C70.5362 108.909 72.1173 102.746 74.9977 96.9952H53.739L58.374 104.946C60.8025 109.114 62.0383 113.711 61.98 118.362C61.9633 119.66 63.1958 120.719 64.7203 120.719H64.717Z" fill="#FFFFFC"/>
<mask id="mask0_538_1394" style="mask-type:luminance" maskUnits="userSpaceOnUse" x="53" y="96" width="22" height="25">
<path d="M64.717 120.719H71.737C73.0163 120.719 73.7068 119.441 72.8728 118.616L71.0082 116.769C70.5562 116.322 70.316 115.747 70.336 115.158C70.5362 108.909 72.1173 102.746 74.9977 96.9952H53.739L58.374 104.946C60.8025 109.114 62.0383 113.711 61.98 118.362C61.9633 119.66 63.1958 120.719 64.7203 120.719H64.717Z" fill="white"/>
</mask>
<g mask="url(#mask0_538_1394)">
<path d="M72.0089 110.053C72.0089 110.053 69.4587 113.394 61.3011 113.904" stroke="#1B2D40" stroke-width="1.83697" stroke-miterlimit="10"/>
</g>
<mask id="mask1_538_1394" style="mask-type:luminance" maskUnits="userSpaceOnUse" x="32" y="97" width="22" height="24">
<path d="M42.7577 120.887H35.7376C34.4584 120.887 33.7679 119.61 34.6018 118.784L36.4665 116.938C36.9185 116.491 37.1587 115.916 37.1386 115.327C36.9385 109.077 35.3573 102.914 32.4769 97.1636H53.7356L49.1006 105.114C46.6722 109.282 45.4363 113.879 45.4947 118.531C45.5114 119.828 44.2788 120.887 42.7544 120.887H42.7577Z" fill="white"/>
</mask>
<g mask="url(#mask1_538_1394)">
<path d="M35.9427 110.053C35.9427 110.053 38.4929 113.394 46.6505 113.904" stroke="#1B2D40" stroke-width="1.83697" stroke-miterlimit="10"/>
</g>
<path d="M80.9086 76.3068C80.9086 76.3068 90.3972 82.1543 90.4038 88.9759C90.4088 93.4909 83.9291 101.79 80.2065 101.642C76.4838 101.493 74.3339 97.7756 75.8216 95.0954C76.8841 93.1823 78.9022 91.3844 79.631 90.0918C79.9146 89.5897 79.8445 88.9626 79.4593 88.534L73.4799 80.6866L80.907 76.3051L80.9086 76.3068Z" fill="#D4E8F3"/>
<path d="M26.601 76.3067C26.601 76.3067 17.1125 82.1543 17.1058 88.9759C17.1008 93.4908 23.5805 101.79 27.3032 101.642C31.0259 101.493 33.1758 97.7756 31.6881 95.0953C30.6256 93.1823 28.6075 91.3843 27.8786 90.0917C27.5951 89.5897 27.6651 88.9625 28.0504 88.5339L34.0297 80.6865L26.6027 76.3051L26.601 76.3067Z" fill="#D4E8F3"/>
<path d="M76.3087 85.9604V90.2368C76.3087 95.956 73.8852 101.108 70.0108 104.724C66.4699 108.031 61.7181 110.053 56.4927 110.053H50.9803C45.9534 110.053 41.365 108.183 37.8708 105.096C33.7579 101.468 31.1627 96.1545 31.1627 90.2368V85.9604C31.1627 73.4947 41.2683 63.3891 53.7357 63.3891C59.9685 63.3891 65.6109 65.9159 69.6955 69.9989C73.7802 74.0835 76.307 79.7259 76.307 85.9588L76.3087 85.9604Z" fill="#FFFFFC"/>
<mask id="mask2_538_1394" style="mask-type:luminance" maskUnits="userSpaceOnUse" x="31" y="63" width="46" height="48">
<path d="M76.3087 85.9604V90.2368C76.3087 95.956 73.8852 101.108 70.0108 104.724C66.4699 108.031 61.7181 110.053 56.4927 110.053H50.9803C45.9534 110.053 41.365 108.183 37.8708 105.096C33.7579 101.468 31.1627 96.1545 31.1627 90.2368V85.9604C31.1627 73.4947 41.2683 63.3891 53.7357 63.3891C59.9685 63.3891 65.6109 65.9159 69.6955 69.9989C73.7802 74.0835 76.307 79.7259 76.307 85.9588L76.3087 85.9604Z" fill="white"/>
</mask>
<g mask="url(#mask2_538_1394)">
<path d="M30.0451 86.3523L36.4647 88.8641C36.5348 88.8925 36.5898 88.9508 36.6115 89.0226L38.598 95.5673C38.6296 95.6707 38.7247 95.7424 38.8331 95.7424L68.8465 95.9075C68.9666 95.9075 69.07 95.8225 69.0917 95.7041L70.0724 90.2635C70.0874 90.1834 70.1391 90.115 70.2142 90.0817L77.431 86.8076" stroke="#1B2D40" stroke-width="1.83697" stroke-miterlimit="10"/>
</g>
<path d="M53.7374 102.542C60.5068 102.542 65.9946 97.0547 65.9946 90.2853C65.9946 83.5158 60.5068 78.0281 53.7374 78.0281C46.9679 78.0281 41.4802 83.5158 41.4802 90.2853C41.4802 97.0547 46.9679 102.542 53.7374 102.542Z" fill="#1B2D40"/>
<path d="M48.8604 88.9877L51.4907 84.5812L54.0809 82.4096L56.7478 86.1757L58.0954 90.2169L57.8035 92.6904L55.9022 95.9461L53.3503 97.9108L49.3958 93.069L48.8604 88.9877Z" fill="#E65251"/>
<path d="M48.5185 25.4534H58.9144C79.3058 25.4534 95.8611 42.0087 95.8611 62.4001V64.5016C95.8611 73.8917 88.2373 81.5156 78.8471 81.5156H28.5875C19.1973 81.5156 11.5735 73.8917 11.5735 64.5016V62.4001C11.5735 42.0087 28.1288 25.4534 48.5202 25.4534H48.5185Z" fill="#FFFFFC"/>
<path d="M75.388 74.639H32.085C23.0451 74.5506 16.7439 67.4605 17.426 59.0427C17.426 42.3957 31.678 28.9009 49.2574 28.9009L58.2139 28.9009C75.7932 28.9009 90.0452 42.3957 90.0452 59.0427C90.7257 67.4572 84.4295 74.549 75.3863 74.639H75.388Z" fill="#1B2D40"/>
<path d="M9.02498 70.0538L2.43188 67.7738C1.53289 67.4636 0.955811 66.7831 0.955811 66.0326L0.955811 58.3554C0.955811 57.5648 1.59627 56.8559 2.56698 56.5707L9.16008 54.6327C10.8129 54.1473 12.5909 55.073 12.5909 56.4173C11.6802 60.3301 11.6802 64.3981 12.5909 68.3109C12.5909 69.7036 10.6945 70.6292 9.02498 70.0522V70.0538Z" fill="#1B2D40"/>
<path d="M97.7474 68.9764L104.34 66.6964C105.239 66.3862 105.817 65.7057 105.817 64.9551V57.2779C105.817 56.4873 105.176 55.7785 104.205 55.4933L97.6123 53.5552C95.9594 53.0699 94.1815 53.9955 94.1815 55.3398C95.0921 59.2527 95.0921 63.3206 94.1815 67.2334C94.1815 68.6261 96.0778 69.5518 97.7474 68.9747V68.9764Z" fill="#1B2D40"/>
<path d="M52.5031 22.8948C51.1254 16.1433 54.1376 9.31667 58.7076 4.15961L60.202 4.5599C55.9656 9.89042 54.4928 16.0749 55.4952 22.8098L52.5031 22.8965V22.8948Z" fill="#FFFFFC"/>
<path d="M59.7383 26.1872H47.7363C47.1092 26.1872 46.7239 25.2281 47.0525 24.4843L48.1533 21.9875C48.2984 21.6556 48.5585 21.4537 48.8371 21.4537H58.5608C58.831 21.4537 59.0828 21.6422 59.2313 21.9574L60.4105 24.4542C60.7607 25.1981 60.3788 26.1872 59.74 26.1872H59.7383Z" fill="#1B2D40"/>
<path d="M60.202 5.75076C61.5459 5.75076 62.6354 4.66128 62.6354 3.31734C62.6354 1.97339 61.5459 0.883911 60.202 0.883911C58.858 0.883911 57.7686 1.97339 57.7686 3.31734C57.7686 4.66128 58.858 5.75076 60.202 5.75076Z" fill="#1B2D40"/>
<path d="M44.5928 49.7854C45.3199 44.7083 42.4469 40.0966 38.1759 39.485C33.9048 38.8733 29.853 42.4933 29.1259 47.5704C28.3988 52.6475 31.2718 57.2592 35.5428 57.8708C39.8139 58.4825 43.8656 54.8625 44.5928 49.7854Z" fill="#FFFFFC"/>
<path d="M71.4586 58.4767C75.7296 57.865 78.6026 53.2534 77.8755 48.1763C77.1484 43.0991 73.0966 39.4792 68.8255 40.0909C64.5545 40.7025 61.6815 45.3142 62.4086 50.3913C63.1357 55.4684 67.1875 59.0884 71.4586 58.4767Z" fill="#FFFFFC"/>
<path d="M58.1204 61.3342C58.1004 61.3909 58.0788 61.446 58.0587 61.5027C58.0404 61.5544 58.0371 61.6345 58.0737 61.4693C58.0537 61.5594 57.987 61.6561 57.9437 61.7379C57.8419 61.9313 57.7218 62.1115 57.5951 62.2899C57.5584 62.34 57.5534 62.3983 57.6167 62.2616C57.5984 62.3016 57.5517 62.3416 57.5217 62.3767C57.4633 62.445 57.4033 62.5101 57.3415 62.5751C57.1981 62.7236 57.0347 62.9087 56.8545 63.0155C57.0196 62.9171 56.8996 62.9804 56.8545 63.0121C56.8145 63.0421 56.7728 63.0705 56.7311 63.0989C56.6477 63.1556 56.5643 63.2089 56.4776 63.2606C56.3041 63.364 56.1257 63.4524 55.9439 63.5392C55.7621 63.6259 56.114 63.4775 55.9205 63.5492C55.8822 63.5625 55.8455 63.5775 55.8088 63.5925C55.7154 63.6276 55.6186 63.6593 55.5236 63.6876C55.3117 63.7527 55.0966 63.796 54.8798 63.8377C54.8314 63.8477 54.728 63.8811 54.9231 63.8344C54.8764 63.8461 54.8231 63.8461 54.773 63.8511C54.683 63.8594 54.5929 63.8661 54.5028 63.8694C54.2743 63.8777 54.0458 63.8727 53.819 63.8561C53.7673 63.8527 53.7156 63.8477 53.6639 63.841C53.5738 63.831 53.5288 63.7777 53.6689 63.8444C53.5872 63.806 53.4487 63.8094 53.3603 63.7927C53.1552 63.7527 52.9517 63.7026 52.7516 63.6409C52.6515 63.6109 52.5531 63.5775 52.4547 63.5425C52.3963 63.5208 52.3379 63.4975 52.2779 63.4758C52.2395 63.4625 52.1278 63.4241 52.3029 63.4875C52.0911 63.4107 51.8826 63.2923 51.6875 63.1789C51.5257 63.0855 51.3672 62.9854 51.2155 62.8754L51.1654 62.8387C51.092 62.7836 51.0987 62.7903 51.1854 62.857C51.1571 62.8453 51.1137 62.8003 51.0887 62.7786C50.9936 62.7002 50.9002 62.6185 50.8102 62.5334C50.645 62.3767 50.4949 62.2082 50.3482 62.0347C50.2131 61.8746 50.4482 62.1798 50.3281 62.0064C50.2931 61.9564 50.2564 61.9047 50.2214 61.8546C50.1614 61.7662 50.103 61.6762 50.0429 61.5878L49.7744 61.1858C49.5326 60.8239 49.0272 60.6321 48.6336 60.8873C48.2717 61.1208 48.0748 61.6395 48.335 62.0281C48.6886 62.5585 49.0289 63.1022 49.4759 63.5625C50.193 64.3014 51.0987 64.8334 52.0677 65.1703C53.9157 65.8125 56.0573 65.6223 57.6668 64.4698C58.6158 63.7893 59.3347 62.887 59.7183 61.7779C59.8617 61.3659 59.5565 60.8472 59.1362 60.7522C58.6725 60.6471 58.2622 60.8923 58.1104 61.3342H58.1204Z" fill="#FFFFFC"/>
<path d="M91.3096 83.2717C92.5872 85.3115 92.8574 87.8767 92.0485 90.1417C91.9734 90.3535 92.1335 90.5987 92.3403 90.6554C92.5705 90.7188 92.7773 90.577 92.854 90.3635C93.733 87.9034 93.4161 85.0647 92.0301 82.8514C91.7466 82.3978 91.0244 82.8164 91.3096 83.2717Z" fill="#FFFFFC"/>
<path d="M94.567 83.572C95.4643 84.9063 95.8412 86.5658 95.5527 88.1536C95.5127 88.3754 95.6127 88.6023 95.8446 88.6673C96.0464 88.7223 96.3166 88.5989 96.3583 88.3754C96.6852 86.5708 96.3149 84.6778 95.2875 83.15C94.9889 82.7063 94.2667 83.1233 94.567 83.5703V83.572Z" fill="#FFFFFC"/>
<path d="M15.0594 84.3409C14.0187 87.3064 13.7702 90.512 14.3072 93.6076C14.3456 93.8294 14.6174 93.9545 14.8209 93.8995C15.0561 93.8344 15.1512 93.6093 15.1128 93.3858C14.6024 90.4387 14.876 87.3831 15.865 84.5627C15.9401 84.3509 15.7799 84.1057 15.5731 84.049C15.343 83.9857 15.1345 84.1274 15.0594 84.3409Z" fill="#FFFFFC"/>
<path d="M12.129 85.4399C11.5736 87.2246 11.3284 89.1059 11.4118 90.974C11.4351 91.5077 12.2691 91.511 12.2457 90.974C12.1657 89.1727 12.3975 87.383 12.9329 85.6618C13.093 85.1481 12.2874 84.9279 12.129 85.4399Z" fill="#FFFFFC"/>
<path d="M14.5357 23.4284L18.9539 29.3694C19.0874 29.5495 19.3142 29.6413 19.5243 29.5195C19.7028 29.4161 19.8095 29.1309 19.6744 28.9491L15.2562 23.0081C15.1228 22.828 14.896 22.7363 14.6858 22.858C14.5074 22.9614 14.4006 23.2466 14.5357 23.4284Z" fill="#FFFFFC"/>
<path d="M6.26962 25.5283C8.37281 28.2486 10.5594 30.9055 12.826 33.4907C13.4698 34.2246 14.1203 34.9535 14.7774 35.6773C15.1394 36.0759 15.7281 35.4838 15.3679 35.0869C13.0562 32.5417 10.8229 29.9248 8.67303 27.2412C8.06259 26.479 7.45882 25.7118 6.86172 24.9379C6.72329 24.7594 6.4164 24.7928 6.27129 24.9379C6.0945 25.1147 6.13286 25.3482 6.27129 25.5283H6.26962Z" fill="#FFFFFC"/>
<path d="M95.6627 27.6215C95.3859 29.4328 94.6487 31.1641 93.4945 32.5901C93.3527 32.7652 93.3227 33.0087 93.4945 33.1805C93.6413 33.3273 93.9415 33.3573 94.0849 33.1805C95.3292 31.6427 96.1681 29.8031 96.4683 27.8433C96.5017 27.6215 96.4116 27.3947 96.1764 27.3296C95.9796 27.2746 95.6978 27.3963 95.6627 27.6215Z" fill="#FFFFFC"/>
<path d="M103.39 30.2751C101.47 32.5568 99.6622 34.9318 97.9793 37.3919C97.499 38.0941 97.0286 38.8046 96.5683 39.5201C96.2764 39.9721 96.9986 40.3908 97.2888 39.9405C98.87 37.482 100.57 35.0986 102.389 32.8103C102.911 32.1548 103.442 31.506 103.98 30.8656C104.125 30.6938 104.149 30.4453 103.98 30.2751C103.832 30.1267 103.537 30.1017 103.39 30.2751Z" fill="#FFFFFC"/>
</svg>
