<svg width="338" height="465" viewBox="0 0 338 465" fill="none" xmlns="http://www.w3.org/2000/svg">
<path d="M1.11189 336.065H80.7182C80.7182 336.065 80.748 336.073 80.7629 336.088L165.911 457.731C165.911 457.731 165.911 457.806 165.874 457.813L123.971 463.28C123.971 463.28 123.956 463.28 123.949 463.28L83.5003 449.288C83.5003 449.288 83.4779 449.28 83.4779 449.265L1.07458 336.147C1.07458 336.147 1.07461 336.065 1.11936 336.065H1.11189Z" stroke="#E65251" stroke-width="1.6" stroke-miterlimit="10"/>
<path d="M1.00744 336.013V217.428C1.00744 217.428 1.03729 217.376 1.06713 217.376L122.979 226.498C122.979 226.498 123.039 226.535 123.024 226.572L80.7555 336.036C80.7555 336.036 80.7256 336.073 80.7032 336.073H1.05219C1.05219 336.073 1 336.05 1 336.021L1.00744 336.013Z" stroke="#E65251" stroke-width="1.6" stroke-miterlimit="10"/>
<path d="M1.0673 217.294L62.0045 138.881C62.0045 138.881 62.0344 138.858 62.0568 138.858L98.3655 146.153C98.3655 146.153 98.4028 146.168 98.4028 146.19L123.024 226.43C123.024 226.43 123.009 226.505 122.972 226.498L1.10458 217.383C1.05983 217.383 1.03746 217.331 1.0673 217.301V217.294Z" stroke="#E65251" stroke-width="1.6" stroke-miterlimit="10"/>
<path d="M62.0791 138.784L157.736 11.9493C157.736 11.9493 157.751 11.9344 157.759 11.9344L182.365 1C182.365 1 182.41 1 182.425 1.01492L198.804 19.214C198.804 19.214 198.819 19.2588 198.804 19.2812L98.4176 146.131C98.4176 146.131 98.3878 146.153 98.3654 146.153L62.1089 138.873C62.0716 138.866 62.0567 138.821 62.0791 138.791V138.784Z" stroke="#E65251" stroke-width="1.6" stroke-miterlimit="10"/>
<path d="M98.4029 146.183L123.046 226.498C123.046 226.498 123.046 226.505 123.046 226.513L165.919 287.622C165.919 287.622 165.978 287.651 166.001 287.622L208.851 241.124C208.851 241.124 208.866 241.102 208.866 241.087L198.826 19.3858C198.826 19.3335 198.759 19.3186 198.729 19.3559L98.4029 146.131C98.4029 146.131 98.388 146.161 98.3955 146.176L98.4029 146.183Z" stroke="#E65251" stroke-width="1.6" stroke-miterlimit="10"/>
<path d="M198.938 19.4378L305.604 205.427C305.604 205.427 305.604 205.509 305.56 205.509H265.492C265.492 205.509 265.469 205.509 265.462 205.516L241.743 222.85L208.955 241.072C208.955 241.072 208.88 241.072 208.873 241.027L198.841 19.4676C198.841 19.4154 198.916 19.3931 198.938 19.4378V19.4378Z" stroke="#E65251" stroke-width="1.6" stroke-miterlimit="10"/>
<path d="M305.664 205.531L321.163 235.627C321.163 235.627 321.163 235.634 321.163 235.642L336.669 341.473C336.669 341.473 336.647 341.54 336.61 341.532L284.668 336.065C284.668 336.065 284.63 336.05 284.623 336.028L241.736 222.88C241.736 222.88 241.736 222.835 241.75 222.82L265.439 205.509C265.439 205.509 265.462 205.501 265.469 205.501H305.589C305.589 205.501 305.626 205.509 305.634 205.531H305.664Z" stroke="#E65251" stroke-width="1.6" stroke-miterlimit="10"/>
<path d="M241.758 222.902L252.23 250.529C252.23 250.529 252.23 250.552 252.23 250.559L198.833 457.447C198.833 457.447 198.804 457.485 198.781 457.485L166.008 457.79C166.008 457.79 165.956 457.768 165.956 457.738V287.688C165.956 287.688 165.956 287.666 165.971 287.651L208.865 241.109C208.865 241.109 208.873 241.102 208.88 241.102L241.691 222.873C241.691 222.873 241.758 222.873 241.766 222.902H241.758Z" stroke="#E65251" stroke-width="1.6" stroke-miterlimit="10"/>
<path d="M123.098 226.58L165.941 287.659C165.941 287.659 165.948 287.681 165.948 287.688V457.626C165.948 457.679 165.881 457.701 165.851 457.656L80.7478 336.08C80.7478 336.08 80.7329 336.05 80.7478 336.028L123.009 226.587C123.024 226.55 123.076 226.542 123.098 226.572V226.58Z" stroke="#E65251" stroke-width="1.6" stroke-miterlimit="10"/>
<path d="M252.297 250.708L284.638 336.043C284.638 336.043 284.638 336.08 284.638 336.095L198.997 457.268C198.96 457.313 198.885 457.283 198.9 457.224L252.2 250.716C252.215 250.663 252.282 250.663 252.297 250.716V250.708Z" stroke="#E65251" stroke-width="1.6" stroke-miterlimit="10"/>
<path d="M336.692 341.54L234.449 457.477C234.449 457.477 234.426 457.492 234.412 457.492H198.931C198.886 457.492 198.864 457.448 198.886 457.41L284.631 336.088C284.631 336.088 284.66 336.065 284.683 336.065L289.218 336.543" stroke="#E65251" stroke-width="1.6" stroke-miterlimit="10"/>
</svg>
