<svg width="86" height="107" viewBox="0 0 86 107" fill="none" xmlns="http://www.w3.org/2000/svg">
<path d="M77.4555 64.4844L81.336 74.1863L71.6878 72.0361L77.4555 64.4844Z" fill="#E76A6A"/>
<path d="M77.4555 64.4844L70.219 67.4742L71.6878 72.0361L77.4555 64.4844Z" fill="#F29191"/>
<path d="M70.219 67.4741L66.7047 81.8425L68.9609 83.3636L71.6878 72.036L70.219 67.4741Z" fill="#E65251"/>
<path d="M71.6878 72.0361L81.336 74.1863L72.6307 86.0384L68.9608 83.3637L71.6878 72.0361Z" fill="#CC3737"/>
<path d="M85.741 44.2422L80.55 50.0113L73.0795 66.2931L74.3322 65.7755L85.741 44.2422Z" fill="#EF5E5E"/>
<path d="M85.741 44.2424L85.5317 33.7545L79.4102 27.2517L63.1395 29.7171L75.0961 38.2118L80.55 50.0115L85.741 44.2424Z" fill="#E76A6A"/>
<path d="M63.1394 29.717L57.179 55.2685L60.8846 55.6581L67.9973 33.1694L63.1394 29.717Z" fill="#CC3737"/>
<path d="M67.9973 33.1694L75.0962 38.2117L66.4088 62.8588L63.4713 56.4262L60.8847 55.6581L67.9973 33.1694Z" fill="#E65251"/>
<path d="M75.0961 38.2114L77.1637 42.6866L60.4648 82.7868L59.6251 83.1502V79.4307L67.1769 65.306L66.4087 62.8585L75.0961 38.2114Z" fill="#CC3737"/>
<path d="M77.1637 42.6865L80.55 50.0111L73.0795 66.2929L70.219 67.474L66.7047 81.8424L65.079 80.269L60.4648 82.7867L77.1637 42.6865Z" fill="#E76A6A"/>
<path d="M43.6833 5.38379L52.2138 29.717L45.6422 69.3354L42.4252 68.2603L39.2082 72.4381L40.8862 22.5851L43.6833 5.38379Z" fill="#E76A6A"/>
<path d="M43.6833 5.38367L34.3146 0L20.1196 23.773L40.8862 22.585L43.6833 5.38367Z" fill="#F29191"/>
<path d="M40.8861 22.5852L26.3429 43.0021L25.5734 38.2118L21.1685 36.4291L40.8861 22.5852Z" fill="#AA1B1B"/>
<path d="M40.8861 22.5852L20.1195 23.7732L19.4905 35.8703L21.1685 36.4291L40.8861 22.5852Z" fill="#CC3737"/>
<path d="M40.8861 22.5852L26.3429 43.0021L27.1124 49.7142L29.4195 48.8057L35.6428 54.6794L36.8308 74.8155L39.2081 72.4382L40.8861 22.5852Z" fill="#E65251"/>
<path d="M27.1125 49.7139L29.4196 48.8054L29.7692 59.1185L28.8249 59.5026L27.1125 49.7139Z" fill="#C34343"/>
<path d="M29.4196 48.8054L35.6429 54.6791L29.7692 59.1185L29.4196 48.8054Z" fill="#E76A6A"/>
<path d="M35.6429 54.6792L36.8309 74.8153L35.084 77.0178L29.7692 59.1186L35.6429 54.6792Z" fill="#CC3737"/>
<path d="M29.7691 59.1184L28.8248 59.5025L32.8457 79.2559L35.084 77.0176L29.7691 59.1184Z" fill="#AA1B1B"/>
<path d="M25.5734 38.2114L26.3429 43.0018L27.1124 49.7138L32.8457 79.2559L31.6577 80.4797L22.6028 44.1554L25.5734 38.2114Z" fill="#E65251"/>
<path d="M25.5735 38.2114L21.1685 36.4287L19.4905 35.8698L13.8618 33.5972L22.6029 44.1553L25.5735 38.2114Z" fill="#E76A6A"/>
<path d="M22.6029 44.1553L8.37355 46.6372L13.8618 33.5972L22.6029 44.1553Z" fill="#F29191"/>
<path d="M22.603 44.1555L8.3736 46.6374L25.5736 75.7252L30.0886 74.1863L22.603 44.1555Z" fill="#E76A6A"/>
<path d="M30.0886 74.186L31.6578 80.4796L27.5667 85.3044L27.3919 91.5264L25.2941 89.2193L25.5735 75.725L30.0886 74.186Z" fill="#CC3737"/>
<path d="M25.294 89.2193L18.582 82.8569L8.37354 46.6372L25.5735 75.725L25.294 89.2193Z" fill="#AA1B1B"/>
<path d="M30.0886 93.9037L27.392 91.5264L25.2941 89.2193L18.5821 82.8569L9.70197 74.186L9.07289 82.8569L29.7693 100.511L30.0886 93.9037Z" fill="#CC3737"/>
<path d="M29.7692 100.511L23.9134 104.393L3.39423e-05 90.6526L9.07286 82.8572L29.7692 100.511Z" fill="#AA1B1B"/>
<path d="M9.7019 74.186L0.78739 79.6399L9.07282 82.8569L9.7019 74.186Z" fill="#E76A6A"/>
<path d="M0.787384 79.6401L-4.61618e-06 90.6525L9.07281 82.8571L0.787384 79.6401Z" fill="#E65251"/>
<path d="M9.7019 74.186L0.367544 77.9619L0.787389 79.6399L9.7019 74.186Z" fill="#EF8484"/>
<path d="M0.367509 77.9619L-3.54355e-05 90.6523L0.787354 79.6399L0.367509 77.9619Z" fill="#C34343"/>
<path d="M63.4712 56.426L60.8847 55.6579L57.179 55.2684L53.2628 54.6792L54.9766 62.7375L61.968 66.6001L67.1769 65.3061L66.4088 62.8586L63.4712 56.426Z" fill="#F29191"/>
<path d="M53.2627 54.6792L49.5914 71.3561C49.5914 71.3561 52.9832 72.3706 53.0879 72.4394C53.1925 72.5082 54.9751 62.7375 54.9751 62.7375L53.2627 54.6792V54.6792Z" fill="#E65251"/>
<path d="M54.9765 62.7375L61.968 66.6001L57.4227 74.6406L53.0879 72.4381L54.9765 62.7375Z" fill="#CC3737"/>
<path d="M67.1769 65.3062L61.968 66.6001L57.4227 74.6405L59.0663 75.4183L59.6251 79.4309L67.1769 65.3062Z" fill="#AA1B1B"/>
<path d="M76.931 89.0789L72.6307 86.0381L68.9608 83.3635L66.7047 81.8424L65.079 80.269L60.2555 92.384L71.6878 91.492L76.931 89.0789Z" fill="#E76A6A"/>
<path d="M76.931 89.0791L73.7498 100.336L69.1962 101.526L73.3327 90.7351L76.931 89.0791Z" fill="#AA1B1B"/>
<path d="M73.4924 90.6606L71.6878 91.4921L66.7047 101.841L69.1962 101.526L73.4924 90.6606Z" fill="#CC3737"/>
<path d="M71.6878 91.4922L60.2556 92.3842L60.6396 106.246L66.7047 101.841L71.6878 91.4922Z" fill="#E65251"/>
<path d="M60.6396 106.246L53.1237 104.637L60.2556 92.3843L60.6396 106.246Z" fill="#AA1B1B"/>
<path d="M65.079 80.269L60.4648 82.7867L52.284 86.3258L60.2556 92.384L65.079 80.269Z" fill="#F29191"/>
<path d="M60.2556 92.3841L52.284 86.3259L51.2612 104.419L53.1237 104.637L60.2556 92.3841Z" fill="#E65251"/>
<path d="M51.5504 99.315L44.2437 103.624L46.2355 97.6797L51.7954 94.9844L51.5504 99.315Z" fill="#AA1B1B"/>
<path d="M46.2355 97.6797L49.8723 92.541L51.9 93.1288L51.7953 94.9844L46.2355 97.6797Z" fill="#E65251"/>
<path d="M38.195 102.802C38.1248 102.697 32.1465 100.197 32.1465 100.197L40.0823 99.3149L44.2422 103.624L38.1936 102.802H38.195Z" fill="#AA1B1B"/>
<path d="M40.0822 99.315L46.2354 97.6797L44.2436 103.624L40.0822 99.315Z" fill="#C34343"/>
<path d="M40.0823 99.3151L38.7897 89.3943L32.1465 100.197L40.0823 99.3151Z" fill="#E65251"/>
<path d="M38.7897 89.3943L46.2354 97.6797L40.0822 99.3151L38.7897 89.3943Z" fill="#EF8484"/>
<path d="M38.7897 89.3943L49.8723 92.5411L46.2355 97.6797L38.7897 89.3943Z" fill="#E76A6A"/>
<path d="M54.229 85.4849L52.913 77.7872L59.0662 75.4182L59.6251 79.4308V83.1503L54.229 85.4849Z" fill="#AA1B1B"/>
<path d="M59.0663 75.4181L53.0879 72.4378L49.5915 71.3545L45.6422 69.3351L42.4252 68.26L52.9131 77.7871L59.0663 75.4181Z" fill="#E76A6A"/>
<path d="M42.4252 68.26L39.2082 72.4378L36.8309 74.8151L35.084 77.0176L32.8458 79.2559L31.5147 80.6462L27.5667 85.3044L33.3 86.3258L42.4252 68.26Z" fill="#D35E5E"/>
<path d="M33.3001 86.3258L42.4252 68.26L52.9131 77.7871L33.3001 86.3258Z" fill="#F29191"/>
<path d="M35.4089 85.409L52.0265 90.8932L52.2839 86.3258L54.229 85.4848L52.913 77.7871L35.4089 85.409Z" fill="#E65251"/>
<path d="M35.4089 85.4092L33.3001 86.326L35.0841 95.4208L38.7897 89.3943L51.9 93.1289L52.0266 90.8933L35.4089 85.4092Z" fill="#CC3737"/>
<path d="M32.8457 99.0603L29.8545 98.7588L30.0885 93.9037L27.3919 91.5264L27.5667 85.3044L33.3 86.3258L35.084 95.4207L32.8457 99.0603Z" fill="#AA1B1B"/>
</svg>
