<svg width="124" height="150" viewBox="0 0 124 150" fill="none" xmlns="http://www.w3.org/2000/svg">
<path d="M98.6812 33.9319L60.3904 0L74.0882 43.8942L98.6812 33.9319Z" fill="#ED7E7E"/>
<path d="M60.3903 0L23.3461 52.6098L43.8918 65.3727L74.0881 43.8942L60.3903 0Z" fill="#F29191"/>
<path d="M43.8919 65.3726L60.3904 149.423L43.8919 141.64L35.1762 99.3046L31.7523 95.569L23.3462 52.6097L43.8919 65.3726Z" fill="#AA1B1B"/>
<path d="M98.6812 33.9318L84.0505 61.3254L74.0882 43.894L98.6812 33.9318Z" fill="#F29191"/>
<path d="M74.0883 43.894L43.8919 65.3726L60.3904 149.423L84.0505 61.3254L74.0883 43.894Z" fill="#E65251"/>
<path d="M98.6812 33.9318L79.5347 135.725L84.0505 61.3254L98.6812 33.9318Z" fill="#AA1B1B"/>
<path d="M84.0505 61.3254L79.5348 135.725L60.3904 149.423L84.0505 61.3254Z" fill="#CC3737"/>
<path d="M90.0556 79.7858L117.98 52.6097L79.5349 135.725L90.0556 79.7858Z" fill="#E65251"/>
<path d="M117.98 52.6097L123.584 79.38L101.89 87.3992L117.98 52.6097Z" fill="#F29191"/>
<path d="M123.584 79.3801L112.737 90.2773L101.89 87.3993L123.584 79.3801Z" fill="#E76A6A"/>
<path d="M123.584 79.3801L117.98 103.661L112.737 90.2773L123.584 79.3801Z" fill="#CC3737"/>
<path d="M112.737 90.2773L101.89 87.3993L79.5349 135.726L117.98 103.661L112.737 90.2773Z" fill="#AA1B1B"/>
<path d="M35.1764 99.3047L13.0746 105.374L43.8921 141.641L35.1764 99.3047Z" fill="#CC3737"/>
<path d="M13.0746 105.374L2.52826e-05 99.3047L28.4833 131.367L43.8921 141.641L13.0746 105.374Z" fill="#AA1B1B"/>
<path d="M35.1763 99.3046L31.7523 95.569L1.86766 71.2877L13.0744 105.374L35.1763 99.3046Z" fill="#E65251"/>
<path d="M1.86771 71.2877L-8.51152e-05 99.3046L13.0745 105.374L1.86771 71.2877Z" fill="#ED7E7E"/>
</svg>
